<?xml version="1.0" encoding="UTF-8" standalone="no"?>
<!DOCTYPE svg PUBLIC "-//W3C//DTD SVG 1.1//EN"
 "http://www.w3.org/Graphics/SVG/1.1/DTD/svg11.dtd">
<!-- Generated by graphviz version 2.43.0 (0)
 -->
<!-- Title: diagram Pages: 1 -->
<svg width="1158pt" height="478pt"
 viewBox="0.00 0.00 1157.55 478.00" xmlns="http://www.w3.org/2000/svg" xmlns:xlink="http://www.w3.org/1999/xlink">
<g id="graph0" class="graph" transform="scale(1 1) rotate(0) translate(4 474)">
<title>diagram</title>
<polygon fill="white" stroke="transparent" points="-4,4 -4,-474 1153.55,-474 1153.55,4 -4,4"/>
<!-- Virt -->
<g id="node1" class="node">
<title>Virt</title>
<ellipse fill="#cccccc" stroke="black" cx="553.78" cy="-250" rx="119.55" ry="36"/>
<text text-anchor="middle" x="553.78" y="-246.3" font-family="Helvetica,Arial,sans-serif" font-size="14.00">Virt / Block::&lt;Virt&gt; / Block::&lt;Page&gt;</text>
</g>
<!-- const_ptr -->
<g id="node2" class="node">
<title>const_ptr</title>
<ellipse fill="#cccccc" stroke="black" cx="72" cy="-434" rx="72" ry="36"/>
<text text-anchor="middle" x="72" y="-430.3" font-family="Helvetica,Arial,sans-serif" font-size="14.00">*const T</text>
</g>
<!-- Virt&#45;&gt;const_ptr -->
<g id="edge5" class="edge">
<title>Virt&#45;&gt;const_ptr</title>
<path fill="none" stroke="black" d="M453.45,-269.68C389.33,-284.17 304.94,-306.64 234,-337 194.79,-353.78 153.64,-378.71 122.76,-399.1"/>
<polygon fill="black" stroke="black" points="114.34,-404.72 120.16,-395.43 118.5,-401.94 122.66,-399.17 122.66,-399.17 122.66,-399.17 118.5,-401.94 125.15,-402.91 114.34,-404.72 114.34,-404.72"/>
<text text-anchor="middle" x="289" y="-340.8" font-family="Helvetica,Arial,sans-serif" font-size="14.00">try_into_ptr&lt;T&gt;()?</text>
</g>
<!-- const_ref -->
<g id="node3" class="node">
<title>const_ref</title>
<ellipse fill="#cccccc" stroke="black" cx="72" cy="-252" rx="72" ry="36"/>
<text text-anchor="middle" x="72" y="-248.3" font-family="Helvetica,Arial,sans-serif" font-size="14.00">&amp;T</text>
</g>
<!-- Virt&#45;&gt;const_ref -->
<g id="edge6" class="edge">
<title>Virt&#45;&gt;const_ref</title>
<path fill="none" stroke="black" d="M461.73,-226.9C397.96,-213.64 310.76,-201.38 234,-211 203.66,-214.8 170.84,-222.49 142.8,-230.18"/>
<polygon fill="black" stroke="black" points="133.09,-232.9 141.51,-225.87 137.91,-231.55 142.72,-230.21 142.72,-230.21 142.72,-230.21 137.91,-231.55 143.94,-234.54 133.09,-232.9 133.09,-232.9"/>
<text text-anchor="middle" x="289" y="-214.8" font-family="Helvetica,Arial,sans-serif" font-size="14.00">try_into_ref&lt;T&gt;()?</text>
</g>
<!-- mut_ptr -->
<g id="node5" class="node">
<title>mut_ptr</title>
<ellipse fill="#cccccc" stroke="black" cx="1077.55" cy="-394" rx="72" ry="36"/>
<text text-anchor="middle" x="1077.55" y="-390.3" font-family="Helvetica,Arial,sans-serif" font-size="14.00">*mut T</text>
</g>
<!-- Virt&#45;&gt;mut_ptr -->
<g id="edge7" class="edge">
<title>Virt&#45;&gt;mut_ptr</title>
<path fill="none" stroke="black" d="M642.7,-274.26C744.38,-302.33 909.87,-348 1004.35,-374.07"/>
<polygon fill="black" stroke="black" points="1014.11,-376.77 1003.27,-378.45 1009.29,-375.44 1004.47,-374.11 1004.47,-374.11 1004.47,-374.11 1009.29,-375.44 1005.67,-369.77 1014.11,-376.77 1014.11,-376.77"/>
<text text-anchor="middle" x="839.55" y="-350.8" font-family="Helvetica,Arial,sans-serif" font-size="14.00">try_into_mut_ptr&lt;T&gt;()?</text>
</g>
<!-- mut_ref -->
<g id="node6" class="node">
<title>mut_ref</title>
<ellipse fill="#cccccc" stroke="black" cx="1077.55" cy="-250" rx="72" ry="36"/>
<text text-anchor="middle" x="1077.55" y="-246.3" font-family="Helvetica,Arial,sans-serif" font-size="14.00">&amp;mut T</text>
</g>
<!-- Virt&#45;&gt;mut_ref -->
<g id="edge8" class="edge">
<title>Virt&#45;&gt;mut_ref</title>
<path fill="none" stroke="black" d="M673.83,-250C772.1,-250 908.94,-250 995.11,-250"/>
<polygon fill="black" stroke="black" points="1005.36,-250 995.36,-254.5 1000.36,-250 995.36,-250 995.36,-250 995.36,-250 1000.36,-250 995.36,-245.5 1005.36,-250 1005.36,-250"/>
<text text-anchor="middle" x="839.55" y="-253.8" font-family="Helvetica,Arial,sans-serif" font-size="14.00">try_into_mut&lt;T&gt;()?</text>
</g>
<!-- mut_slice -->
<g id="node7" class="node">
<title>mut_slice</title>
<ellipse fill="#cccccc" stroke="black" cx="1077.55" cy="-106" rx="72" ry="36"/>
<text text-anchor="middle" x="1077.55" y="-102.3" font-family="Helvetica,Arial,sans-serif" font-size="14.00">&amp;mut [T]</text>
</g>
<!-- Virt&#45;&gt;mut_slice -->
<g id="edge9" class="edge">
<title>Virt&#45;&gt;mut_slice</title>
<path fill="none" stroke="black" d="M642.7,-225.74C744.38,-197.67 909.87,-152 1004.35,-125.93"/>
<polygon fill="black" stroke="black" points="1014.11,-123.23 1005.67,-130.23 1009.29,-124.56 1004.47,-125.89 1004.47,-125.89 1004.47,-125.89 1009.29,-124.56 1003.27,-121.55 1014.11,-123.23 1014.11,-123.23"/>
<text text-anchor="middle" x="839.55" y="-193.8" font-family="Helvetica,Arial,sans-serif" font-size="14.00">try_into_mut_slice&lt;T&gt;()?</text>
</g>
<!-- const_ptr&#45;&gt;Virt -->
<g id="edge2" class="edge">
<title>const_ptr&#45;&gt;Virt</title>
<path fill="none" stroke="black" d="M138.28,-419.65C193.95,-406.49 275.58,-384.96 344,-358 394.47,-338.11 448.83,-309.75 489.42,-287.08"/>
<polygon fill="black" stroke="black" points="498.39,-282.04 491.87,-290.87 494.03,-284.49 489.67,-286.94 489.67,-286.94 489.67,-286.94 494.03,-284.49 487.47,-283.02 498.39,-282.04 498.39,-282.04"/>
<text text-anchor="middle" x="289" y="-397.8" font-family="Helvetica,Arial,sans-serif" font-size="14.00">from_ptr&lt;T&gt;()</text>
</g>
<!-- const_ref&#45;&gt;Virt -->
<g id="edge3" class="edge">
<title>const_ref&#45;&gt;Virt</title>
<path fill="none" stroke="black" d="M143.91,-248.25C171.96,-246.94 204.49,-245.64 234,-245 296.64,-243.64 366.22,-244.46 424.35,-245.8"/>
<polygon fill="black" stroke="black" points="434.69,-246.04 424.58,-250.3 429.69,-245.93 424.69,-245.81 424.69,-245.81 424.69,-245.81 429.69,-245.93 424.8,-241.31 434.69,-246.04 434.69,-246.04"/>
<text text-anchor="middle" x="289" y="-248.8" font-family="Helvetica,Arial,sans-serif" font-size="14.00">from_ref&lt;T&gt;()</text>
</g>
<!-- left_blank -->
<!-- const_ref&#45;&gt;left_blank -->
<!-- left_blank&#45;&gt;Virt -->
</g>
</svg>
