<?xml version="1.0" encoding="UTF-8" standalone="no"?>
<!DOCTYPE svg PUBLIC "-//W3C//DTD SVG 1.1//EN"
 "http://www.w3.org/Graphics/SVG/1.1/DTD/svg11.dtd">
<!-- Generated by graphviz version 2.40.1 (20161225.0304)
 -->
<!-- Title: diagram Pages: 1 -->
<svg width="934pt" height="150pt"
 viewBox="0.00 0.00 934.00 149.62" xmlns="http://www.w3.org/2000/svg" xmlns:xlink="http://www.w3.org/1999/xlink">
<g id="graph0" class="graph" transform="scale(1 1) rotate(0) translate(4 145.6167)">
<title>diagram</title>
<polygon fill="#ffffff" stroke="transparent" points="-4,4 -4,-145.6167 930,-145.6167 930,4 -4,4"/>
<!-- Virt -->
<g id="node1" class="node">
<title>Virt</title>
<ellipse fill="#cccccc" stroke="#000000" cx="433" cy="-105.6167" rx="72" ry="36"/>
<text text-anchor="middle" x="433" y="-101.9167" font-family="Helvetica,Arial,sans-serif" font-size="14.00" fill="#000000">Virt</text>
</g>
<!-- VirtAddr -->
<g id="node2" class="node">
<title>VirtAddr</title>
<ellipse fill="#cccccc" stroke="#000000" cx="72" cy="-105.6167" rx="72" ry="36"/>
<text text-anchor="middle" x="72" y="-101.9167" font-family="Helvetica,Arial,sans-serif" font-size="14.00" fill="#000000">x86_64::VirtAddr</text>
</g>
<!-- Virt&#45;&gt;VirtAddr -->
<g id="edge4" class="edge">
<title>Virt&#45;&gt;VirtAddr</title>
<path fill="none" stroke="#000000" d="M371.4215,-86.8474C332.2446,-77.0343 280.3422,-67.9446 234,-72.6167 205.132,-75.5271 173.8031,-81.2844 146.4577,-87.1865"/>
<polygon fill="#000000" stroke="#000000" points="136.5753,-89.3625 145.3736,-82.8173 141.4583,-88.2873 146.3413,-87.2121 146.3413,-87.2121 146.3413,-87.2121 141.4583,-88.2873 147.3091,-91.6068 136.5753,-89.3625 136.5753,-89.3625"/>
<text text-anchor="middle" x="252.5" y="-76.4167" font-family="Helvetica,Arial,sans-serif" font-size="14.00" fill="#000000">into()</text>
</g>
<!-- Page -->
<g id="node3" class="node">
<title>Page</title>
<ellipse fill="#cccccc" stroke="#000000" cx="854" cy="-105.6167" rx="72" ry="36"/>
<text text-anchor="middle" x="854" y="-101.9167" font-family="Helvetica,Arial,sans-serif" font-size="14.00" fill="#000000">Page</text>
</g>
<!-- Virt&#45;&gt;Page -->
<g id="edge3" class="edge">
<title>Virt&#45;&gt;Page</title>
<path fill="none" stroke="#000000" d="M505.3725,-105.6167C579.3962,-105.6167 694.2212,-105.6167 771.6699,-105.6167"/>
<polygon fill="#000000" stroke="#000000" points="781.8687,-105.6167 771.8688,-110.1168 776.8687,-105.6167 771.8687,-105.6168 771.8687,-105.6168 771.8687,-105.6168 776.8687,-105.6167 771.8687,-101.1168 781.8687,-105.6167 781.8687,-105.6167"/>
<text text-anchor="middle" x="643.5" y="-109.4167" font-family="Helvetica,Arial,sans-serif" font-size="14.00" fill="#000000">Page::new()</text>
</g>
<!-- VirtAddr&#45;&gt;Virt -->
<g id="edge2" class="edge">
<title>VirtAddr&#45;&gt;Virt</title>
<path fill="none" stroke="#000000" d="M144.1861,-105.6167C203.8283,-105.6167 288.5077,-105.6167 350.7591,-105.6167"/>
<polygon fill="#000000" stroke="#000000" points="360.939,-105.6167 350.9391,-110.1168 355.939,-105.6167 350.939,-105.6168 350.939,-105.6168 350.939,-105.6168 355.939,-105.6167 350.939,-101.1168 360.939,-105.6167 360.939,-105.6167"/>
<text text-anchor="middle" x="252.5" y="-109.4167" font-family="Helvetica,Arial,sans-serif" font-size="14.00" fill="#000000">from()</text>
</g>
<!-- Page&#45;&gt;Virt -->
<g id="edge1" class="edge">
<title>Page&#45;&gt;Virt</title>
<path fill="none" stroke="#000000" d="M816.1631,-74.8206C784.9673,-51.536 738.4458,-21.4587 692,-8.6167 650.448,2.8722 636.552,2.8722 595,-8.6167 552.5457,-20.3551 510.0281,-46.4938 479.2093,-68.6823"/>
<polygon fill="#000000" stroke="#000000" points="470.8369,-74.8206 476.2409,-65.2787 474.8693,-71.8642 478.9017,-68.9079 478.9017,-68.9079 478.9017,-68.9079 474.8693,-71.8642 481.5624,-72.537 470.8369,-74.8206 470.8369,-74.8206"/>
<text text-anchor="middle" x="643.5" y="-12.4167" font-family="Helvetica,Arial,sans-serif" font-size="14.00" fill="#000000">Page::address()</text>
</g>
</g>
</svg>
