<?xml version="1.0" encoding="UTF-8" standalone="no"?>
<!DOCTYPE svg PUBLIC "-//W3C//DTD SVG 1.1//EN"
 "http://www.w3.org/Graphics/SVG/1.1/DTD/svg11.dtd">
<!-- Generated by graphviz version 2.40.1 (20161225.0304)
 -->
<!-- Title: diagram Pages: 1 -->
<svg width="735pt" height="727pt"
 viewBox="0.00 0.00 735.39 726.98" xmlns="http://www.w3.org/2000/svg" xmlns:xlink="http://www.w3.org/1999/xlink">
<g id="graph0" class="graph" transform="scale(1 1) rotate(0) translate(4 722.9777)">
<title>diagram</title>
<polygon fill="#ffffff" stroke="transparent" points="-4,4 -4,-722.9777 731.3864,-722.9777 731.3864,4 -4,4"/>
<g id="clust1" class="cluster">
<title>cluster_virt_memory</title>
<polygon fill="none" stroke="#000000" points="8,-281.9777 8,-710.9777 719.3864,-710.9777 719.3864,-281.9777 8,-281.9777"/>
<text text-anchor="middle" x="363.6932" y="-695.7777" font-family="Helvetica,Arial,sans-serif" font-size="14.00" fill="#000000">Виртуальные</text>
</g>
<g id="clust3" class="cluster">
<title>cluster_phys_memory</title>
<polygon fill="none" stroke="#000000" points="328.4527,-198.9777 328.4527,-273.9777 419.5473,-273.9777 419.5473,-198.9777 328.4527,-198.9777"/>
<text text-anchor="middle" x="374" y="-258.7777" font-family="Helvetica,Arial,sans-serif" font-size="14.00" fill="#000000">Физические</text>
</g>
<!-- Virt -->
<g id="node1" class="node">
<title>Virt</title>
<ellipse fill="none" stroke="#000000" cx="43" cy="-333.9777" rx="27" ry="18"/>
<text text-anchor="middle" x="43" y="-330.2777" font-family="Helvetica,Arial,sans-serif" font-size="14.00" fill="#000000">Virt</text>
</g>
<!-- const_ptr -->
<g id="node2" class="node">
<title>const_ptr</title>
<ellipse fill="none" stroke="#000000" cx="634.6932" cy="-436.9777" rx="42.7926" ry="18"/>
<text text-anchor="middle" x="634.6932" y="-433.2777" font-family="Helvetica,Arial,sans-serif" font-size="14.00" fill="#000000">*const T</text>
</g>
<!-- Virt&#45;&gt;const_ptr -->
<g id="edge4" class="edge">
<title>Virt&#45;&gt;const_ptr</title>
<path fill="none" stroke="#000000" d="M69.1878,-338.5363C160.2446,-354.3872 464.066,-407.2754 584.7016,-428.2753"/>
<polygon fill="#000000" stroke="#000000" points="594.773,-430.0285 584.1494,-432.7468 589.8471,-429.171 584.9212,-428.3134 584.9212,-428.3134 584.9212,-428.3134 589.8471,-429.171 585.693,-423.8801 594.773,-430.0285 594.773,-430.0285"/>
<text text-anchor="middle" x="374" y="-407.7777" font-family="Helvetica,Arial,sans-serif" font-size="14.00" fill="#000000">Virt::into_ptr&lt;T&gt;()</text>
</g>
<!-- mut_ptr -->
<g id="node3" class="node">
<title>mut_ptr</title>
<ellipse fill="none" stroke="#000000" cx="634.6932" cy="-307.9777" rx="37.0935" ry="18"/>
<text text-anchor="middle" x="634.6932" y="-304.2777" font-family="Helvetica,Arial,sans-serif" font-size="14.00" fill="#000000">*mut T</text>
</g>
<!-- Virt&#45;&gt;mut_ptr -->
<g id="edge5" class="edge">
<title>Virt&#45;&gt;mut_ptr</title>
<path fill="none" stroke="#000000" d="M70.2768,-332.6528C117.0693,-330.3903 215.6569,-325.6689 299,-321.9777 401.6731,-317.4303 522.0299,-312.5108 587.0942,-309.8854"/>
<polygon fill="#000000" stroke="#000000" points="597.434,-309.4687 587.6233,-314.3678 592.438,-309.6701 587.4421,-309.8715 587.4421,-309.8715 587.4421,-309.8715 592.438,-309.6701 587.2608,-305.3751 597.434,-309.4687 597.434,-309.4687"/>
<text text-anchor="middle" x="374" y="-325.7777" font-family="Helvetica,Arial,sans-serif" font-size="14.00" fill="#000000">Virt::into_mut_ptr&lt;T&gt;()</text>
</g>
<!-- mut_ref -->
<g id="node5" class="node">
<title>mut_ref</title>
<ellipse fill="none" stroke="#000000" cx="634.6932" cy="-361.9777" rx="39.7935" ry="18"/>
<text text-anchor="middle" x="634.6932" y="-358.2777" font-family="Helvetica,Arial,sans-serif" font-size="14.00" fill="#000000">&amp;mut T</text>
</g>
<!-- Virt&#45;&gt;mut_ref -->
<g id="edge6" class="edge">
<title>Virt&#45;&gt;mut_ref</title>
<path fill="none" stroke="#000000" d="M69.9614,-335.2535C162.0058,-339.6092 464.755,-353.9359 584.91,-359.6218"/>
<polygon fill="#000000" stroke="#000000" points="594.9409,-360.0965 584.7394,-364.1187 589.9465,-359.8601 584.9521,-359.6237 584.9521,-359.6237 584.9521,-359.6237 589.9465,-359.8601 585.1649,-355.1288 594.9409,-360.0965 594.9409,-360.0965"/>
<text text-anchor="middle" x="374" y="-356.7777" font-family="Helvetica,Arial,sans-serif" font-size="14.00" fill="#000000">Virt::into_mut_ref&lt;T&gt;()</text>
</g>
<!-- mut_slice -->
<g id="node6" class="node">
<title>mut_slice</title>
<ellipse fill="none" stroke="#000000" cx="634.6932" cy="-511.9777" rx="44.6926" ry="18"/>
<text text-anchor="middle" x="634.6932" y="-508.2777" font-family="Helvetica,Arial,sans-serif" font-size="14.00" fill="#000000">&amp;mut [T]</text>
</g>
<!-- Virt&#45;&gt;mut_slice -->
<g id="edge7" class="edge">
<title>Virt&#45;&gt;mut_slice</title>
<path fill="none" stroke="#000000" d="M51.6855,-351.257C64.3349,-374.6082 90.0659,-415.8562 124,-437.9777 267.8813,-531.773 482.6744,-526.5856 581.4758,-518.0659"/>
<polygon fill="#000000" stroke="#000000" points="591.5213,-517.1531 581.9696,-522.5396 586.5418,-517.6056 581.5623,-518.0581 581.5623,-518.0581 581.5623,-518.0581 586.5418,-517.6056 581.1551,-513.5766 591.5213,-517.1531 591.5213,-517.1531"/>
<text text-anchor="middle" x="374" y="-524.7777" font-family="Helvetica,Arial,sans-serif" font-size="14.00" fill="#000000">Virt::into_mut_slice&lt;T&gt;()</text>
</g>
<!-- VirtAddr -->
<g id="node7" class="node">
<title>VirtAddr</title>
<ellipse fill="none" stroke="#000000" cx="634.6932" cy="-586.9777" rx="76.8869" ry="18"/>
<text text-anchor="middle" x="634.6932" y="-583.2777" font-family="Helvetica,Arial,sans-serif" font-size="14.00" fill="#000000">x86_64::VirtAddr</text>
</g>
<!-- Virt&#45;&gt;VirtAddr -->
<g id="edge8" class="edge">
<title>Virt&#45;&gt;VirtAddr</title>
<path fill="none" stroke="#000000" d="M47.4256,-351.9732C56.4892,-385.4658 80.1034,-457.9539 124,-501.9777 185.0529,-563.2075 214.7333,-567.5956 299,-586.9777 385.7081,-606.9213 488.3809,-603.0786 557.1424,-596.7266"/>
<polygon fill="#000000" stroke="#000000" points="567.4571,-595.7314 557.9355,-601.171 562.4802,-596.2116 557.5033,-596.6918 557.5033,-596.6918 557.5033,-596.6918 562.4802,-596.2116 557.0711,-592.2126 567.4571,-595.7314 567.4571,-595.7314"/>
<text text-anchor="middle" x="374" y="-604.7777" font-family="Helvetica,Arial,sans-serif" font-size="14.00" fill="#000000">Virt::into()</text>
</g>
<!-- Phys -->
<g id="node8" class="node">
<title>Phys</title>
<ellipse fill="none" stroke="#000000" cx="374" cy="-224.9777" rx="30.5947" ry="18"/>
<text text-anchor="middle" x="374" y="-221.2777" font-family="Helvetica,Arial,sans-serif" font-size="14.00" fill="#000000">Phys</text>
</g>
<!-- Virt&#45;&gt;Phys -->
<g id="edge19" class="edge">
<title>Virt&#45;&gt;Phys</title>
<path fill="none" stroke="#000000" d="M62.2252,-321.0844C78.1859,-310.8741 101.7878,-296.8926 124,-287.9777 195.55,-259.2609 283.9958,-240.6666 334.2088,-231.5738"/>
<polygon fill="#000000" stroke="#000000" points="344.3236,-229.7775 335.2646,-235.9568 339.4006,-230.6518 334.4777,-231.5261 334.4777,-231.5261 334.4777,-231.5261 339.4006,-230.6518 333.6908,-227.0954 344.3236,-229.7775 344.3236,-229.7775"/>
<text text-anchor="middle" x="184.5" y="-291.7777" font-family="Helvetica,Arial,sans-serif" font-size="14.00" fill="#000000">Mapping::translate()</text>
</g>
<!-- usize -->
<g id="node9" class="node">
<title>usize</title>
<ellipse fill="none" stroke="#000000" cx="374" cy="-80.9777" rx="31.3957" ry="18"/>
<text text-anchor="middle" x="374" y="-77.2777" font-family="Helvetica,Arial,sans-serif" font-size="14.00" fill="#000000">usize</text>
</g>
<!-- Virt&#45;&gt;usize -->
<g id="edge13" class="edge">
<title>Virt&#45;&gt;usize</title>
<path fill="none" stroke="#000000" d="M45.586,-315.7965C53.9256,-260.0283 82.0308,-93.2701 124,-61.9777 187.9269,-14.3135 288.3822,-44.5957 340.3508,-65.6756"/>
<polygon fill="#000000" stroke="#000000" points="349.7718,-69.6133 338.8099,-69.9088 345.1585,-67.6851 340.5453,-65.7569 340.5453,-65.7569 340.5453,-65.7569 345.1585,-67.6851 342.2807,-61.6049 349.7718,-69.6133 349.7718,-69.6133"/>
<text text-anchor="middle" x="184.5" y="-65.7777" font-family="Helvetica,Arial,sans-serif" font-size="14.00" fill="#000000">Virt::into_usize()</text>
</g>
<!-- u64 -->
<g id="node10" class="node">
<title>u64</title>
<ellipse fill="none" stroke="#000000" cx="374" cy="-152.9777" rx="27" ry="18"/>
<text text-anchor="middle" x="374" y="-149.2777" font-family="Helvetica,Arial,sans-serif" font-size="14.00" fill="#000000">u64</text>
</g>
<!-- Virt&#45;&gt;u64 -->
<g id="edge14" class="edge">
<title>Virt&#45;&gt;u64</title>
<path fill="none" stroke="#000000" d="M44.0529,-315.9468C47.5069,-275.4293 62.1745,-177.4843 124,-135.9777 190.5369,-91.308 290.7709,-119.7305 341.7501,-139.1815"/>
<polygon fill="#000000" stroke="#000000" points="351.2646,-142.9278 340.3112,-143.4512 346.6122,-141.0959 341.9599,-139.264 341.9599,-139.264 341.9599,-139.264 346.6122,-141.0959 343.6085,-135.0769 351.2646,-142.9278 351.2646,-142.9278"/>
<text text-anchor="middle" x="184.5" y="-139.7777" font-family="Helvetica,Arial,sans-serif" font-size="14.00" fill="#000000">Virt::into_u64()</text>
</g>
<!-- const_ptr&#45;&gt;Virt -->
<g id="edge1" class="edge">
<title>const_ptr&#45;&gt;Virt</title>
<path fill="none" stroke="#000000" d="M595.8692,-444.8424C507.3055,-460.8175 285.5398,-489.5749 124,-414.9777 97.3827,-402.6861 74.56,-377.6897 59.9884,-358.6972"/>
<polygon fill="#000000" stroke="#000000" points="53.89,-350.4606 63.4572,-355.8198 56.8653,-354.4791 59.8406,-358.4975 59.8406,-358.4975 59.8406,-358.4975 56.8653,-354.4791 56.224,-361.1753 53.89,-350.4606 53.89,-350.4606"/>
<text text-anchor="middle" x="374" y="-466.7777" font-family="Helvetica,Arial,sans-serif" font-size="14.00" fill="#000000">Virt::from_ptr&lt;T&gt;()</text>
</g>
<!-- const_ref -->
<g id="node4" class="node">
<title>const_ref</title>
<ellipse fill="none" stroke="#000000" cx="634.6932" cy="-661.9777" rx="27" ry="18"/>
<text text-anchor="middle" x="634.6932" y="-658.2777" font-family="Helvetica,Arial,sans-serif" font-size="14.00" fill="#000000">&amp;T</text>
</g>
<!-- const_ref&#45;&gt;Virt -->
<g id="edge2" class="edge">
<title>const_ref&#45;&gt;Virt</title>
<path fill="none" stroke="#000000" d="M607.9362,-664.8175C523.1266,-672.1996 258.0049,-682.5642 124,-541.9777 74.8448,-490.4082 54.5167,-405.6377 46.9623,-361.9466"/>
<polygon fill="#000000" stroke="#000000" points="45.3452,-352.0188 51.3944,-361.1653 46.1491,-356.9538 46.9529,-361.8887 46.9529,-361.8887 46.9529,-361.8887 46.1491,-356.9538 42.5115,-362.6122 45.3452,-352.0188 45.3452,-352.0188"/>
<text text-anchor="middle" x="374" y="-668.7777" font-family="Helvetica,Arial,sans-serif" font-size="14.00" fill="#000000">Virt::from_ref&lt;T&gt;()</text>
</g>
<!-- VirtAddr&#45;&gt;Virt -->
<g id="edge3" class="edge">
<title>VirtAddr&#45;&gt;Virt</title>
<path fill="none" stroke="#000000" d="M560.9684,-581.9039C492.2502,-575.947 387.3803,-563.7031 299,-539.9777 217.9348,-518.216 187.7681,-523.5557 124,-468.9777 89.4857,-439.4374 65.6442,-391.3479 53.1659,-361.2482"/>
<polygon fill="#000000" stroke="#000000" points="49.3707,-351.7829 57.2691,-359.3899 51.2315,-356.4237 53.0923,-361.0646 53.0923,-361.0646 53.0923,-361.0646 51.2315,-356.4237 48.9155,-362.7393 49.3707,-351.7829 49.3707,-351.7829"/>
<text text-anchor="middle" x="374" y="-571.7777" font-family="Helvetica,Arial,sans-serif" font-size="14.00" fill="#000000">Virt::from()</text>
</g>
<!-- Phys&#45;&gt;Virt -->
<g id="edge20" class="edge">
<title>Phys&#45;&gt;Virt</title>
<path fill="none" stroke="#000000" d="M345.5153,-218.2084C297.0643,-208.2553 196.7896,-194.5329 124,-230.9777 91.8553,-247.0721 68.5314,-282.5435 55.3867,-307.3373"/>
<polygon fill="#000000" stroke="#000000" points="50.6934,-316.5762 51.2105,-305.6225 52.9579,-312.1184 55.2225,-307.6606 55.2225,-307.6606 55.2225,-307.6606 52.9579,-312.1184 59.2345,-309.6987 50.6934,-316.5762 50.6934,-316.5762"/>
<text text-anchor="middle" x="184.5" y="-234.7777" font-family="Helvetica,Arial,sans-serif" font-size="14.00" fill="#000000">phys2virt_map()</text>
</g>
<!-- Phys&#45;&gt;usize -->
<g id="edge17" class="edge">
<title>Phys&#45;&gt;usize</title>
<path fill="none" stroke="#000000" d="M344.7299,-230.4307C297.7708,-237.281 206.3378,-242.4274 161.5,-189.4777 109.6004,-128.1885 258.1974,-97.5008 333.3683,-86.2167"/>
<polygon fill="#000000" stroke="#000000" points="343.4594,-84.752 334.2095,-90.6418 338.5113,-85.4702 333.5631,-86.1885 333.5631,-86.1885 333.5631,-86.1885 338.5113,-85.4702 332.9167,-81.7351 343.4594,-84.752 343.4594,-84.752"/>
<text text-anchor="middle" x="184.5" y="-178.2777" font-family="Helvetica,Arial,sans-serif" font-size="14.00" fill="#000000">Phys::into_usize()</text>
</g>
<!-- Phys&#45;&gt;u64 -->
<g id="edge18" class="edge">
<title>Phys&#45;&gt;u64</title>
<path fill="none" stroke="#000000" d="M374,-206.5644C374,-198.9184 374,-189.8693 374,-181.4051"/>
<polygon fill="#000000" stroke="#000000" points="374,-171.1463 378.5001,-181.1463 374,-176.1463 374.0001,-181.1463 374.0001,-181.1463 374.0001,-181.1463 374,-176.1463 369.5001,-181.1463 374,-171.1463 374,-171.1463"/>
<text text-anchor="middle" x="363.5" y="-185.2777" font-family="Helvetica,Arial,sans-serif" font-size="14.00" fill="#000000">Phys::into_u64()</text>
</g>
<!-- usize&#45;&gt;Virt -->
<g id="edge11" class="edge">
<title>usize&#45;&gt;Virt</title>
<path fill="none" stroke="#000000" d="M354.8386,-66.7274C309.7327,-35.0499 195.2955,34.2162 124,-20.9777 78.6044,-56.121 54.0386,-234.946 45.9987,-305.3969"/>
<polygon fill="#000000" stroke="#000000" points="44.8495,-315.7347 41.4819,-305.2987 45.402,-310.7653 45.9544,-305.7959 45.9544,-305.7959 45.9544,-305.7959 45.402,-310.7653 50.4269,-306.2931 44.8495,-315.7347 44.8495,-315.7347"/>
<text text-anchor="middle" x="184.5" y="-24.7777" font-family="Helvetica,Arial,sans-serif" font-size="14.00" fill="#000000">Virt::new()</text>
</g>
<!-- usize&#45;&gt;Phys -->
<g id="edge15" class="edge">
<title>usize&#45;&gt;Phys</title>
<path fill="none" stroke="#000000" d="M342.7529,-83.4215C277.2271,-89.7574 135.0322,-110.5462 179.5,-169.4777 215.0167,-216.5466 287.6243,-225.7461 333.383,-226.5045"/>
<polygon fill="#000000" stroke="#000000" points="343.5571,-226.542 333.5405,-231.005 338.5571,-226.5235 333.5572,-226.505 333.5572,-226.505 333.5572,-226.505 338.5571,-226.5235 333.5738,-222.005 343.5571,-226.542 343.5571,-226.542"/>
<text text-anchor="middle" x="184.5" y="-158.2777" font-family="Helvetica,Arial,sans-serif" font-size="14.00" fill="#000000">Phys::new()</text>
</g>
<!-- usize&#45;&gt;u64 -->
<g id="edge9" class="edge">
<title>usize&#45;&gt;u64</title>
<path fill="none" stroke="#000000" d="M374,-99.1463C374,-106.8467 374,-116.0033 374,-124.561"/>
<polygon fill="#000000" stroke="#000000" points="374,-134.5644 369.5001,-124.5643 374,-129.5644 374.0001,-124.5644 374.0001,-124.5644 374.0001,-124.5644 374,-129.5644 378.5001,-124.5644 374,-134.5644 374,-134.5644"/>
<text text-anchor="middle" x="384.5" y="-113.2777" font-family="Helvetica,Arial,sans-serif" font-size="14.00" fill="#000000">ku::memory::size::into_u64()</text>
</g>
<!-- u64&#45;&gt;Virt -->
<g id="edge12" class="edge">
<title>u64&#45;&gt;Virt</title>
<path fill="none" stroke="#000000" d="M353.428,-140.8779C328.6779,-127.0858 285.3993,-105.3683 245,-96.9777 192.3459,-86.0418 167.7456,-65.6987 124,-96.9777 89.1923,-121.8659 60.029,-248.5689 48.4049,-305.8235"/>
<polygon fill="#000000" stroke="#000000" points="46.3792,-315.9823 43.9217,-305.2953 47.357,-311.0788 48.3349,-306.1753 48.3349,-306.1753 48.3349,-306.1753 47.357,-311.0788 52.748,-307.0554 46.3792,-315.9823 46.3792,-315.9823"/>
<text text-anchor="middle" x="184.5" y="-100.7777" font-family="Helvetica,Arial,sans-serif" font-size="14.00" fill="#000000">Virt::new_u64()</text>
</g>
<!-- u64&#45;&gt;Phys -->
<g id="edge16" class="edge">
<title>u64&#45;&gt;Phys</title>
<path fill="none" stroke="#000000" d="M374,-171.1463C374,-178.8467 374,-188.0033 374,-196.561"/>
<polygon fill="#000000" stroke="#000000" points="374,-206.5644 369.5001,-196.5643 374,-201.5644 374.0001,-196.5644 374.0001,-196.5644 374.0001,-196.5644 374,-201.5644 378.5001,-196.5644 374,-206.5644 374,-206.5644"/>
<text text-anchor="middle" x="363.5" y="-185.2777" font-family="Helvetica,Arial,sans-serif" font-size="14.00" fill="#000000">Phys::new_u64()</text>
</g>
<!-- u64&#45;&gt;usize -->
<g id="edge10" class="edge">
<title>u64&#45;&gt;usize</title>
<path fill="none" stroke="#000000" d="M374,-134.5644C374,-126.9184 374,-117.8693 374,-109.4051"/>
<polygon fill="#000000" stroke="#000000" points="374,-99.1463 378.5001,-109.1463 374,-104.1463 374.0001,-109.1463 374.0001,-109.1463 374.0001,-109.1463 374,-104.1463 369.5001,-109.1463 374,-99.1463 374,-99.1463"/>
<text text-anchor="middle" x="363.5" y="-113.2777" font-family="Helvetica,Arial,sans-serif" font-size="14.00" fill="#000000">ku::memory::size::into_usize()</text>
</g>
</g>
</svg>
