<?xml version="1.0" encoding="UTF-8" standalone="no"?>
<!DOCTYPE svg PUBLIC "-//W3C//DTD SVG 1.1//EN"
 "http://www.w3.org/Graphics/SVG/1.1/DTD/svg11.dtd">
<!-- Generated by graphviz version 2.43.0 (0)
 -->
<!-- Title: diagram Pages: 1 -->
<svg width="934pt" height="150pt"
 viewBox="0.00 0.00 934.00 149.66" xmlns="http://www.w3.org/2000/svg" xmlns:xlink="http://www.w3.org/1999/xlink">
<g id="graph0" class="graph" transform="scale(1 1) rotate(0) translate(4 145.66)">
<title>diagram</title>
<polygon fill="white" stroke="transparent" points="-4,4 -4,-145.66 930,-145.66 930,4 -4,4"/>
<!-- Virt -->
<g id="node1" class="node">
<title>Virt</title>
<ellipse fill="#cccccc" stroke="black" cx="433" cy="-105.66" rx="72" ry="36"/>
<text text-anchor="middle" x="433" y="-101.96" font-family="Helvetica,Arial,sans-serif" font-size="14.00">Virt</text>
</g>
<!-- VirtAddr -->
<g id="node2" class="node">
<title>VirtAddr</title>
<ellipse fill="#cccccc" stroke="black" cx="72" cy="-105.66" rx="72" ry="36"/>
<text text-anchor="middle" x="72" y="-101.96" font-family="Helvetica,Arial,sans-serif" font-size="14.00">x86_64::VirtAddr</text>
</g>
<!-- Virt&#45;&gt;VirtAddr -->
<g id="edge4" class="edge">
<title>Virt&#45;&gt;VirtAddr</title>
<path fill="none" stroke="black" d="M371.17,-87C332.14,-77.14 280.29,-67.96 234,-72.66 205.18,-75.58 173.89,-81.38 146.63,-87.31"/>
<polygon fill="black" stroke="black" points="136.78,-89.49 145.57,-82.93 141.67,-88.41 146.55,-87.33 146.55,-87.33 146.55,-87.33 141.67,-88.41 147.52,-91.72 136.78,-89.49 136.78,-89.49"/>
<text text-anchor="middle" x="252.5" y="-76.46" font-family="Helvetica,Arial,sans-serif" font-size="14.00">into()</text>
</g>
<!-- Page -->
<g id="node3" class="node">
<title>Page</title>
<ellipse fill="#cccccc" stroke="black" cx="854" cy="-105.66" rx="72" ry="36"/>
<text text-anchor="middle" x="854" y="-101.96" font-family="Helvetica,Arial,sans-serif" font-size="14.00">Page</text>
</g>
<!-- Virt&#45;&gt;Page -->
<g id="edge3" class="edge">
<title>Virt&#45;&gt;Page</title>
<path fill="none" stroke="black" d="M505.08,-105.66C578.93,-105.66 694.31,-105.66 771.73,-105.66"/>
<polygon fill="black" stroke="black" points="781.92,-105.66 771.92,-110.16 776.92,-105.66 771.92,-105.66 771.92,-105.66 771.92,-105.66 776.92,-105.66 771.92,-101.16 781.92,-105.66 781.92,-105.66"/>
<text text-anchor="middle" x="643.5" y="-109.46" font-family="Helvetica,Arial,sans-serif" font-size="14.00">Page::new()</text>
</g>
<!-- VirtAddr&#45;&gt;Virt -->
<g id="edge2" class="edge">
<title>VirtAddr&#45;&gt;Virt</title>
<path fill="none" stroke="black" d="M144.36,-105.66C203.82,-105.66 288.53,-105.66 350.63,-105.66"/>
<polygon fill="black" stroke="black" points="360.78,-105.66 350.78,-110.16 355.78,-105.66 350.78,-105.66 350.78,-105.66 350.78,-105.66 355.78,-105.66 350.78,-101.16 360.78,-105.66 360.78,-105.66"/>
<text text-anchor="middle" x="252.5" y="-109.46" font-family="Helvetica,Arial,sans-serif" font-size="14.00">from()</text>
</g>
<!-- Page&#45;&gt;Virt -->
<g id="edge1" class="edge">
<title>Page&#45;&gt;Virt</title>
<path fill="none" stroke="black" d="M815.74,-75.1C784.76,-51.79 738.37,-21.55 692,-8.66 650.46,2.89 636.54,2.89 595,-8.66 552.61,-20.44 510.21,-46.72 479.58,-68.95"/>
<polygon fill="black" stroke="black" points="471.26,-75.1 476.62,-65.54 475.28,-72.13 479.3,-69.16 479.3,-69.16 479.3,-69.16 475.28,-72.13 481.97,-72.78 471.26,-75.1 471.26,-75.1"/>
<text text-anchor="middle" x="643.5" y="-12.46" font-family="Helvetica,Arial,sans-serif" font-size="14.00">Page::address()</text>
</g>
</g>
</svg>
