<?xml version="1.0" encoding="UTF-8" standalone="no"?>
<!DOCTYPE svg PUBLIC "-//W3C//DTD SVG 1.1//EN"
 "http://www.w3.org/Graphics/SVG/1.1/DTD/svg11.dtd">
<!-- Generated by graphviz version 2.40.1 (20161225.0304)
 -->
<!-- Title: diagram Pages: 1 -->
<svg width="1290pt" height="255pt"
 viewBox="0.00 0.00 1290.00 255.04" xmlns="http://www.w3.org/2000/svg" xmlns:xlink="http://www.w3.org/1999/xlink">
<g id="graph0" class="graph" transform="scale(1 1) rotate(0) translate(4 251.0396)">
<title>diagram</title>
<polygon fill="#ffffff" stroke="transparent" points="-4,4 -4,-251.0396 1286,-251.0396 1286,4 -4,4"/>
<!-- usize -->
<g id="node1" class="node">
<title>usize</title>
<ellipse fill="#cccccc" stroke="#000000" cx="72" cy="-119.0396" rx="72" ry="36"/>
<text text-anchor="middle" x="72" y="-115.3396" font-family="Helvetica,Arial,sans-serif" font-size="14.00" fill="#000000">usize</text>
</g>
<!-- u64 -->
<g id="node2" class="node">
<title>u64</title>
<ellipse fill="#cccccc" stroke="#000000" cx="506" cy="-211.0396" rx="72" ry="36"/>
<text text-anchor="middle" x="506" y="-207.3396" font-family="Helvetica,Arial,sans-serif" font-size="14.00" fill="#000000">u64</text>
</g>
<!-- usize&#45;&gt;u64 -->
<g id="edge1" class="edge">
<title>usize&#45;&gt;u64</title>
<path fill="none" stroke="#000000" d="M138.3877,-133.1126C216.881,-149.7517 347.2538,-177.3883 429.7972,-194.886"/>
<polygon fill="#000000" stroke="#000000" points="439.6197,-196.9682 428.9039,-199.2966 434.7284,-195.9313 429.8371,-194.8944 429.8371,-194.8944 429.8371,-194.8944 434.7284,-195.9313 430.7703,-190.4922 439.6197,-196.9682 439.6197,-196.9682"/>
<text text-anchor="middle" x="289" y="-186.8396" font-family="Helvetica,Arial,sans-serif" font-size="14.00" fill="#000000">ku::memory::size::into_u64()</text>
</g>
<!-- Addr -->
<g id="node3" class="node">
<title>Addr</title>
<ellipse fill="#cccccc" stroke="#000000" cx="858" cy="-62.0396" rx="72" ry="36"/>
<text text-anchor="middle" x="858" y="-58.3396" font-family="Helvetica,Arial,sans-serif" font-size="14.00" fill="#000000">Addr</text>
</g>
<!-- usize&#45;&gt;Addr -->
<g id="edge3" class="edge">
<title>usize&#45;&gt;Addr</title>
<path fill="none" stroke="#000000" d="M128.1699,-96.4466C149.6579,-88.8371 174.621,-81.2214 198,-77.0396 403.4831,-40.2847 650.6479,-48.2357 776.1799,-55.8846"/>
<polygon fill="#000000" stroke="#000000" points="786.4749,-56.528 776.2137,-60.3954 781.4847,-56.2161 776.4944,-55.9042 776.4944,-55.9042 776.4944,-55.9042 781.4847,-56.2161 776.7751,-51.4129 786.4749,-56.528 786.4749,-56.528"/>
<text text-anchor="middle" x="506" y="-55.8396" font-family="Helvetica,Arial,sans-serif" font-size="14.00" fill="#000000">Addr::new()</text>
</g>
<!-- u64&#45;&gt;usize -->
<g id="edge2" class="edge">
<title>u64&#45;&gt;usize</title>
<path fill="none" stroke="#000000" d="M475.3722,-177.9787C451.8191,-155.133 417.1107,-126.6697 380,-114.0396 304.431,-88.3207 212.2761,-94.2932 148.5674,-103.7444"/>
<polygon fill="#000000" stroke="#000000" points="138.5937,-105.2868 147.7885,-99.3112 143.535,-104.5226 148.4763,-103.7584 148.4763,-103.7584 148.4763,-103.7584 143.535,-104.5226 149.164,-108.2055 138.5937,-105.2868 138.5937,-105.2868"/>
<text text-anchor="middle" x="289" y="-117.8396" font-family="Helvetica,Arial,sans-serif" font-size="14.00" fill="#000000">ku::memory::size::into_usize()</text>
</g>
<!-- u64&#45;&gt;Addr -->
<g id="edge4" class="edge">
<title>u64&#45;&gt;Addr</title>
<path fill="none" stroke="#000000" d="M569.1603,-193.5154C615.213,-179.8513 678.6307,-159.1779 732,-135.0396 756.809,-123.8187 783.0452,-109.1184 805.1163,-95.8523"/>
<polygon fill="#000000" stroke="#000000" points="813.6725,-90.6567 807.4607,-99.6935 809.3987,-93.2519 805.125,-95.8471 805.125,-95.8471 805.125,-95.8471 809.3987,-93.2519 802.7893,-92.0007 813.6725,-90.6567 813.6725,-90.6567"/>
<text text-anchor="middle" x="682" y="-175.8396" font-family="Helvetica,Arial,sans-serif" font-size="14.00" fill="#000000">Addr::new_u64()</text>
</g>
<!-- Addr&#45;&gt;usize -->
<g id="edge5" class="edge">
<title>Addr&#45;&gt;usize</title>
<path fill="none" stroke="#000000" d="M794.3594,-44.7612C673.9835,-15.2666 406.346,34.9861 198,-37.0396 168.8909,-47.1027 139.8446,-65.3125 116.9887,-82.0201"/>
<polygon fill="#000000" stroke="#000000" points="108.8595,-88.0896 114.1801,-78.501 112.8659,-85.0982 116.8724,-82.1068 116.8724,-82.1068 116.8724,-82.1068 112.8659,-85.0982 119.5646,-85.7127 108.8595,-88.0896 108.8595,-88.0896"/>
<text text-anchor="middle" x="506" y="-9.8396" font-family="Helvetica,Arial,sans-serif" font-size="14.00" fill="#000000">Addr::into_usize()</text>
</g>
<!-- Addr&#45;&gt;u64 -->
<g id="edge6" class="edge">
<title>Addr&#45;&gt;u64</title>
<path fill="none" stroke="#000000" d="M787.7104,-70.2754C741.7565,-77.5445 681.3319,-90.7478 632,-114.0396 600.8246,-128.7589 570.0809,-152.2006 546.7666,-172.352"/>
<polygon fill="#000000" stroke="#000000" points="539.155,-179.0424 543.6951,-169.0605 542.9105,-175.7414 546.666,-172.4404 546.666,-172.4404 546.666,-172.4404 542.9105,-175.7414 549.6368,-175.8204 539.155,-179.0424 539.155,-179.0424"/>
<text text-anchor="middle" x="682" y="-117.8396" font-family="Helvetica,Arial,sans-serif" font-size="14.00" fill="#000000">Addr::into_u64()</text>
</g>
<!-- Frage -->
<g id="node4" class="node">
<title>Frage</title>
<ellipse fill="#cccccc" stroke="#000000" cx="1210" cy="-62.0396" rx="72" ry="36"/>
<text text-anchor="middle" x="1210" y="-58.3396" font-family="Helvetica,Arial,sans-serif" font-size="14.00" fill="#000000">Frage</text>
</g>
<!-- Addr&#45;&gt;Frage -->
<g id="edge7" class="edge">
<title>Addr&#45;&gt;Frage</title>
<path fill="none" stroke="#000000" d="M930.0819,-62.0396C987.4083,-62.0396 1067.6511,-62.0396 1127.5329,-62.0396"/>
<polygon fill="#000000" stroke="#000000" points="1137.7128,-62.0396 1127.7128,-66.5397 1132.7128,-62.0396 1127.7128,-62.0397 1127.7128,-62.0397 1127.7128,-62.0397 1132.7128,-62.0396 1127.7127,-57.5397 1137.7128,-62.0396 1137.7128,-62.0396"/>
<text text-anchor="middle" x="1034" y="-65.8396" font-family="Helvetica,Arial,sans-serif" font-size="14.00" fill="#000000">Frage::new()</text>
</g>
<!-- Frage&#45;&gt;Addr -->
<g id="edge8" class="edge">
<title>Frage&#45;&gt;Addr</title>
<path fill="none" stroke="#000000" d="M1149.0982,-42.7303C1128.6319,-37.1461 1105.5305,-31.8123 1084,-29.0396 1039.9196,-23.3629 1028.0804,-23.3629 984,-29.0396 965.8336,-31.3791 946.549,-35.5418 928.6723,-40.1398"/>
<polygon fill="#000000" stroke="#000000" points="918.9018,-42.7303 927.4146,-35.8178 923.7348,-41.4489 928.5678,-40.1675 928.5678,-40.1675 928.5678,-40.1675 923.7348,-41.4489 929.7211,-44.5172 918.9018,-42.7303 918.9018,-42.7303"/>
<text text-anchor="middle" x="1034" y="-32.8396" font-family="Helvetica,Arial,sans-serif" font-size="14.00" fill="#000000">Frage::address()</text>
</g>
</g>
</svg>
