<?xml version="1.0" encoding="UTF-8" standalone="no"?>
<!DOCTYPE svg PUBLIC "-//W3C//DTD SVG 1.1//EN"
 "http://www.w3.org/Graphics/SVG/1.1/DTD/svg11.dtd">
<!-- Generated by graphviz version 2.40.1 (20161225.0304)
 -->
<!-- Title: diagram Pages: 1 -->
<svg width="557pt" height="135pt"
 viewBox="0.00 0.00 557.00 135.00" xmlns="http://www.w3.org/2000/svg" xmlns:xlink="http://www.w3.org/1999/xlink">
<g id="graph0" class="graph" transform="scale(1 1) rotate(0) translate(4 131)">
<title>diagram</title>
<polygon fill="#ffffff" stroke="transparent" points="-4,4 -4,-131 553,-131 553,4 -4,4"/>
<g id="clust1" class="cluster">
<title>cluster_phys_memory</title>
<polygon fill="none" stroke="#000000" points="8,-8 8,-119 168,-119 168,-8 8,-8"/>
<text text-anchor="middle" x="88" y="-103.8" font-family="Helvetica,Arial,sans-serif" font-size="14.00" fill="#000000">Физическое</text>
</g>
<g id="clust2" class="cluster">
<title>cluster_virt_memory</title>
<polygon fill="none" stroke="#000000" points="381,-8 381,-119 541,-119 541,-8 381,-8"/>
<text text-anchor="middle" x="461" y="-103.8" font-family="Helvetica,Arial,sans-serif" font-size="14.00" fill="#000000">Виртуальное</text>
</g>
<!-- Phys -->
<g id="node1" class="node">
<title>Phys</title>
<ellipse fill="#cccccc" stroke="#000000" cx="88" cy="-52" rx="72" ry="36"/>
<text text-anchor="middle" x="88" y="-48.3" font-family="Helvetica,Arial,sans-serif" font-size="14.00" fill="#000000">Phys</text>
</g>
<!-- Virt -->
<g id="node2" class="node">
<title>Virt</title>
<ellipse fill="#cccccc" stroke="#000000" cx="461" cy="-52" rx="72" ry="36"/>
<text text-anchor="middle" x="461" y="-48.3" font-family="Helvetica,Arial,sans-serif" font-size="14.00" fill="#000000">Virt</text>
</g>
<!-- Phys&#45;&gt;Virt -->
<g id="edge1" class="edge">
<title>Phys&#45;&gt;Virt</title>
<path fill="none" stroke="#000000" d="M160.3604,-52C222.9019,-52 313.2682,-52 378.5817,-52"/>
<polygon fill="#000000" stroke="#000000" points="388.841,-52 378.841,-56.5001 383.841,-52 378.841,-52.0001 378.841,-52.0001 378.841,-52.0001 383.841,-52 378.8409,-47.5001 388.841,-52 388.841,-52"/>
<text text-anchor="middle" x="274.5" y="-55.8" font-family="Helvetica,Arial,sans-serif" font-size="14.00" fill="#000000">phys2virt_map()</text>
</g>
<!-- Virt&#45;&gt;Phys -->
<g id="edge2" class="edge">
<title>Virt&#45;&gt;Phys</title>
<path fill="none" stroke="#000000" d="M393.2037,-39.8738C374.4167,-37.0333 353.9719,-34.4224 335,-33 281.3727,-28.9794 267.6273,-28.9794 214,-33 198.4371,-34.1668 181.8831,-36.1334 166.0661,-38.3704"/>
<polygon fill="#000000" stroke="#000000" points="155.7963,-39.8738 165.039,-33.9727 160.7436,-39.1495 165.6908,-38.4252 165.6908,-38.4252 165.6908,-38.4252 160.7436,-39.1495 166.3427,-42.8778 155.7963,-39.8738 155.7963,-39.8738"/>
<text text-anchor="middle" x="274.5" y="-36.8" font-family="Helvetica,Arial,sans-serif" font-size="14.00" fill="#000000">Mapping::translate()</text>
</g>
</g>
</svg>
