<?xml version="1.0" encoding="UTF-8" standalone="no"?>
<?xml-stylesheet href="lab.css" type="text/css"?>
<!DOCTYPE svg PUBLIC "-//W3C//DTD SVG 1.1//EN"
 "http://www.w3.org/Graphics/SVG/1.1/DTD/svg11.dtd">
<!-- Generated by graphviz version 2.40.1 (20161225.0304)
 -->
<!-- Title: translate Pages: 1 -->
<svg width="1192pt" height="1063pt"
 viewBox="0.00 0.00 1191.71 1063.00" xmlns="http://www.w3.org/2000/svg" xmlns:xlink="http://www.w3.org/1999/xlink">
<g id="graph0" class="graph" transform="scale(1 1) rotate(0) translate(4 1059)">
<title>translate</title>
<polygon fill="#ffffff" stroke="transparent" points="-4,4 -4,-1059 1187.7088,-1059 1187.7088,4 -4,4"/>
<g id="clust6" class="cluster">
<title>cluster_phys_memory</title>
<polygon fill="none" stroke="#000000" points="311.7088,-8 311.7088,-239 1175.7088,-239 1175.7088,-8 311.7088,-8"/>
<text text-anchor="middle" x="743.7088" y="-223.8" font-family="Helvetica,Arial,sans-serif" font-size="14.00" fill="#000000">Физическая память</text>
</g>
<!-- virt -->
<g id="node1" class="node">
<title>virt</title>
<text text-anchor="start" x="349.2088" y="-1032.8" font-family="Helvetica,Arial,sans-serif" font-size="14.00" fill="#000000">Битовое представление виртуального адреса (Virt)</text>
<polygon fill="none" stroke="#000000" points="29.7088,-994 29.7088,-1021 234.7088,-1021 234.7088,-994 29.7088,-994"/>
<text text-anchor="start" x="35.7088" y="-1003.8" font-family="Helvetica,Arial,sans-serif" font-size="14.00" fill="#000000"> 16 бит знаковое расширение </text>
<polygon fill="#e8dff5" stroke="transparent" points="234.7088,-994 234.7088,-1021 365.7088,-1021 365.7088,-994 234.7088,-994"/>
<polygon fill="none" stroke="#000000" points="234.7088,-994 234.7088,-1021 365.7088,-1021 365.7088,-994 234.7088,-994"/>
<text text-anchor="start" x="240.7088" y="-1003.8" font-family="Helvetica,Arial,sans-serif" font-size="14.00" fill="#000000"> 9 бит индекс в L3 </text>
<polygon fill="#fce1e4" stroke="transparent" points="365.7088,-994 365.7088,-1021 496.7088,-1021 496.7088,-994 365.7088,-994"/>
<polygon fill="none" stroke="#000000" points="365.7088,-994 365.7088,-1021 496.7088,-1021 496.7088,-994 365.7088,-994"/>
<text text-anchor="start" x="371.7088" y="-1003.8" font-family="Helvetica,Arial,sans-serif" font-size="14.00" fill="#000000"> 9 бит индекс в L2 </text>
<polygon fill="#fcf4dd" stroke="transparent" points="496.7088,-994 496.7088,-1021 627.7088,-1021 627.7088,-994 496.7088,-994"/>
<polygon fill="none" stroke="#000000" points="496.7088,-994 496.7088,-1021 627.7088,-1021 627.7088,-994 496.7088,-994"/>
<text text-anchor="start" x="502.7088" y="-1003.8" font-family="Helvetica,Arial,sans-serif" font-size="14.00" fill="#000000"> 9 бит индекс в L1 </text>
<polygon fill="#ddfdea" stroke="transparent" points="627.7088,-994 627.7088,-1021 758.7088,-1021 758.7088,-994 627.7088,-994"/>
<polygon fill="none" stroke="#000000" points="627.7088,-994 627.7088,-1021 758.7088,-1021 758.7088,-994 627.7088,-994"/>
<text text-anchor="start" x="633.7088" y="-1003.8" font-family="Helvetica,Arial,sans-serif" font-size="14.00" fill="#000000"> 9 бит индекс в L0 </text>
<polygon fill="#cadaf6" stroke="transparent" points="758.7088,-994 758.7088,-1021 991.7088,-1021 991.7088,-994 758.7088,-994"/>
<polygon fill="none" stroke="#000000" points="758.7088,-994 758.7088,-1021 991.7088,-1021 991.7088,-994 758.7088,-994"/>
<text text-anchor="start" x="764.7088" y="-1003.8" font-family="Helvetica,Arial,sans-serif" font-size="14.00" fill="#000000"> 12 бит смещение внутри фрейма </text>
<polygon fill="none" stroke="#000000" points="22.7088,-987 22.7088,-1051 1002.7088,-1051 1002.7088,-987 22.7088,-987"/>
</g>
<!-- l3 -->
<g id="node2" class="node">
<title>l3</title>
<text text-anchor="start" x="37.7088" y="-707.8" font-family="Helvetica,Arial,sans-serif" font-size="14.00" fill="#000000">Root L3 PageTable</text>
<text text-anchor="start" x="36.7088" y="-678.8" font-family="Helvetica,Arial,sans-serif" font-size="14.00" fill="#000000">0</text>
<text text-anchor="start" x="40.7088" y="-597.3" font-family="Helvetica,Arial,sans-serif" font-size="14.00" fill="#000000"> </text>
<text text-anchor="start" x="21.7088" y="-516.3" font-family="Helvetica,Arial,sans-serif" font-size="14.00" fill="#000000">511</text>
<polygon fill="none" stroke="#000000" points="54.7088,-669 54.7088,-696 171.7088,-696 171.7088,-669 54.7088,-669"/>
<text text-anchor="start" x="60.7088" y="-678.8" font-family="Helvetica,Arial,sans-serif" font-size="14.00" fill="#000000"> PageTableEntry </text>
<polygon fill="none" stroke="#000000" points="54.7088,-642 54.7088,-669 171.7088,-669 171.7088,-642 54.7088,-642"/>
<text text-anchor="start" x="107.2088" y="-651.8" font-family="Helvetica,Arial,sans-serif" font-size="14.00" fill="#000000">...</text>
<polygon fill="none" stroke="#000000" points="54.7088,-615 54.7088,-642 171.7088,-642 171.7088,-615 54.7088,-615"/>
<text text-anchor="start" x="107.2088" y="-624.8" font-family="Helvetica,Arial,sans-serif" font-size="14.00" fill="#000000">...</text>
<polygon fill="#e8dff5" stroke="transparent" points="54.7088,-588 54.7088,-615 171.7088,-615 171.7088,-588 54.7088,-588"/>
<polygon fill="none" stroke="#000000" points="54.7088,-588 54.7088,-615 171.7088,-615 171.7088,-588 54.7088,-588"/>
<text text-anchor="start" x="60.7088" y="-597.8" font-family="Helvetica,Arial,sans-serif" font-size="14.00" fill="#000000"> PageTableEntry </text>
<polygon fill="none" stroke="#000000" points="54.7088,-561 54.7088,-588 171.7088,-588 171.7088,-561 54.7088,-561"/>
<text text-anchor="start" x="107.2088" y="-570.8" font-family="Helvetica,Arial,sans-serif" font-size="14.00" fill="#000000">...</text>
<polygon fill="none" stroke="#000000" points="54.7088,-534 54.7088,-561 171.7088,-561 171.7088,-534 54.7088,-534"/>
<text text-anchor="start" x="107.2088" y="-543.8" font-family="Helvetica,Arial,sans-serif" font-size="14.00" fill="#000000">...</text>
<polygon fill="none" stroke="#000000" points="54.7088,-507 54.7088,-534 171.7088,-534 171.7088,-507 54.7088,-507"/>
<text text-anchor="start" x="60.7088" y="-516.8" font-family="Helvetica,Arial,sans-serif" font-size="14.00" fill="#000000"> PageTableEntry </text>
<polygon fill="none" stroke="#000000" points="12.7088,-500 12.7088,-726 178.7088,-726 178.7088,-500 12.7088,-500"/>
</g>
<!-- virt&#45;&gt;l3 -->
<g id="edge10" class="edge">
<title>virt:s&#45;&gt;l3:w</title>
<path fill="none" stroke="#000000" stroke-dasharray="1,5" d="M299.7088,-994C299.7088,-898.4682 175.4537,-953.2899 120.7088,-875 48.9275,-772.3466 -70.552,-601 54.7088,-601"/>
</g>
<!-- l2 -->
<g id="node3" class="node">
<title>l2</title>
<text text-anchor="start" x="307.7088" y="-707.8" font-family="Helvetica,Arial,sans-serif" font-size="14.00" fill="#000000">L2 PageTable</text>
<text text-anchor="start" x="290.7088" y="-678.8" font-family="Helvetica,Arial,sans-serif" font-size="14.00" fill="#000000">0</text>
<text text-anchor="start" x="294.7088" y="-597.3" font-family="Helvetica,Arial,sans-serif" font-size="14.00" fill="#000000"> </text>
<text text-anchor="start" x="275.7088" y="-516.3" font-family="Helvetica,Arial,sans-serif" font-size="14.00" fill="#000000">511</text>
<polygon fill="none" stroke="#000000" points="308.7088,-669 308.7088,-696 425.7088,-696 425.7088,-669 308.7088,-669"/>
<text text-anchor="start" x="314.7088" y="-678.8" font-family="Helvetica,Arial,sans-serif" font-size="14.00" fill="#000000"> PageTableEntry </text>
<polygon fill="none" stroke="#000000" points="308.7088,-642 308.7088,-669 425.7088,-669 425.7088,-642 308.7088,-642"/>
<text text-anchor="start" x="361.2088" y="-651.8" font-family="Helvetica,Arial,sans-serif" font-size="14.00" fill="#000000">...</text>
<polygon fill="#fce1e4" stroke="transparent" points="308.7088,-615 308.7088,-642 425.7088,-642 425.7088,-615 308.7088,-615"/>
<polygon fill="none" stroke="#000000" points="308.7088,-615 308.7088,-642 425.7088,-642 425.7088,-615 308.7088,-615"/>
<text text-anchor="start" x="314.7088" y="-624.8" font-family="Helvetica,Arial,sans-serif" font-size="14.00" fill="#000000"> PageTableEntry </text>
<polygon fill="none" stroke="#000000" points="308.7088,-588 308.7088,-615 425.7088,-615 425.7088,-588 308.7088,-588"/>
<text text-anchor="start" x="361.2088" y="-597.8" font-family="Helvetica,Arial,sans-serif" font-size="14.00" fill="#000000">...</text>
<polygon fill="none" stroke="#000000" points="308.7088,-561 308.7088,-588 425.7088,-588 425.7088,-561 308.7088,-561"/>
<text text-anchor="start" x="361.2088" y="-570.8" font-family="Helvetica,Arial,sans-serif" font-size="14.00" fill="#000000">...</text>
<polygon fill="none" stroke="#000000" points="308.7088,-534 308.7088,-561 425.7088,-561 425.7088,-534 308.7088,-534"/>
<text text-anchor="start" x="361.2088" y="-543.8" font-family="Helvetica,Arial,sans-serif" font-size="14.00" fill="#000000">...</text>
<polygon fill="none" stroke="#000000" points="308.7088,-507 308.7088,-534 425.7088,-534 425.7088,-507 308.7088,-507"/>
<text text-anchor="start" x="314.7088" y="-516.8" font-family="Helvetica,Arial,sans-serif" font-size="14.00" fill="#000000"> PageTableEntry </text>
<polygon fill="none" stroke="#000000" points="266.7088,-500 266.7088,-726 432.7088,-726 432.7088,-500 266.7088,-500"/>
</g>
<!-- virt&#45;&gt;l2 -->
<g id="edge11" class="edge">
<title>virt:s&#45;&gt;l2:w</title>
<path fill="none" stroke="#000000" stroke-dasharray="1,5" d="M430.7088,-994C430.7088,-822.9559 137.6647,-629 308.7088,-629"/>
</g>
<!-- l1 -->
<g id="node4" class="node">
<title>l1</title>
<text text-anchor="start" x="561.7088" y="-707.8" font-family="Helvetica,Arial,sans-serif" font-size="14.00" fill="#000000">L1 PageTable</text>
<text text-anchor="start" x="544.7088" y="-678.8" font-family="Helvetica,Arial,sans-serif" font-size="14.00" fill="#000000">0</text>
<text text-anchor="start" x="548.7088" y="-597.3" font-family="Helvetica,Arial,sans-serif" font-size="14.00" fill="#000000"> </text>
<text text-anchor="start" x="529.7088" y="-516.3" font-family="Helvetica,Arial,sans-serif" font-size="14.00" fill="#000000">511</text>
<polygon fill="none" stroke="#000000" points="562.7088,-669 562.7088,-696 679.7088,-696 679.7088,-669 562.7088,-669"/>
<text text-anchor="start" x="568.7088" y="-678.8" font-family="Helvetica,Arial,sans-serif" font-size="14.00" fill="#000000"> PageTableEntry </text>
<polygon fill="none" stroke="#000000" points="562.7088,-642 562.7088,-669 679.7088,-669 679.7088,-642 562.7088,-642"/>
<text text-anchor="start" x="615.2088" y="-651.8" font-family="Helvetica,Arial,sans-serif" font-size="14.00" fill="#000000">...</text>
<polygon fill="none" stroke="#000000" points="562.7088,-615 562.7088,-642 679.7088,-642 679.7088,-615 562.7088,-615"/>
<text text-anchor="start" x="615.2088" y="-624.8" font-family="Helvetica,Arial,sans-serif" font-size="14.00" fill="#000000">...</text>
<polygon fill="none" stroke="#000000" points="562.7088,-588 562.7088,-615 679.7088,-615 679.7088,-588 562.7088,-588"/>
<text text-anchor="start" x="615.2088" y="-597.8" font-family="Helvetica,Arial,sans-serif" font-size="14.00" fill="#000000">...</text>
<polygon fill="#fcf4dd" stroke="transparent" points="562.7088,-561 562.7088,-588 679.7088,-588 679.7088,-561 562.7088,-561"/>
<polygon fill="none" stroke="#000000" points="562.7088,-561 562.7088,-588 679.7088,-588 679.7088,-561 562.7088,-561"/>
<text text-anchor="start" x="568.7088" y="-570.8" font-family="Helvetica,Arial,sans-serif" font-size="14.00" fill="#000000"> PageTableEntry </text>
<polygon fill="none" stroke="#000000" points="562.7088,-534 562.7088,-561 679.7088,-561 679.7088,-534 562.7088,-534"/>
<text text-anchor="start" x="615.2088" y="-543.8" font-family="Helvetica,Arial,sans-serif" font-size="14.00" fill="#000000">...</text>
<polygon fill="none" stroke="#000000" points="562.7088,-507 562.7088,-534 679.7088,-534 679.7088,-507 562.7088,-507"/>
<text text-anchor="start" x="568.7088" y="-516.8" font-family="Helvetica,Arial,sans-serif" font-size="14.00" fill="#000000"> PageTableEntry </text>
<polygon fill="none" stroke="#000000" points="520.7088,-500 520.7088,-726 686.7088,-726 686.7088,-500 520.7088,-500"/>
</g>
<!-- virt&#45;&gt;l1 -->
<g id="edge12" class="edge">
<title>virt:s&#45;&gt;l1:w</title>
<path fill="none" stroke="#000000" stroke-dasharray="1,5" d="M562.7088,-994C562.7088,-807.3333 376.0421,-574 562.7088,-574"/>
</g>
<!-- l0 -->
<g id="node5" class="node">
<title>l0</title>
<text text-anchor="start" x="800.7088" y="-707.8" font-family="Helvetica,Arial,sans-serif" font-size="14.00" fill="#000000">Leaf L0 PageTable</text>
<text text-anchor="start" x="798.7088" y="-678.8" font-family="Helvetica,Arial,sans-serif" font-size="14.00" fill="#000000">0</text>
<text text-anchor="start" x="802.7088" y="-597.3" font-family="Helvetica,Arial,sans-serif" font-size="14.00" fill="#000000"> </text>
<text text-anchor="start" x="783.7088" y="-516.3" font-family="Helvetica,Arial,sans-serif" font-size="14.00" fill="#000000">511</text>
<polygon fill="none" stroke="#000000" points="816.7088,-669 816.7088,-696 933.7088,-696 933.7088,-669 816.7088,-669"/>
<text text-anchor="start" x="822.7088" y="-678.8" font-family="Helvetica,Arial,sans-serif" font-size="14.00" fill="#000000"> PageTableEntry </text>
<polygon fill="none" stroke="#000000" points="816.7088,-642 816.7088,-669 933.7088,-669 933.7088,-642 816.7088,-642"/>
<text text-anchor="start" x="869.2088" y="-651.8" font-family="Helvetica,Arial,sans-serif" font-size="14.00" fill="#000000">...</text>
<polygon fill="none" stroke="#000000" points="816.7088,-615 816.7088,-642 933.7088,-642 933.7088,-615 816.7088,-615"/>
<text text-anchor="start" x="869.2088" y="-624.8" font-family="Helvetica,Arial,sans-serif" font-size="14.00" fill="#000000">...</text>
<polygon fill="#ddfdea" stroke="transparent" points="816.7088,-588 816.7088,-615 933.7088,-615 933.7088,-588 816.7088,-588"/>
<polygon fill="none" stroke="#000000" points="816.7088,-588 816.7088,-615 933.7088,-615 933.7088,-588 816.7088,-588"/>
<text text-anchor="start" x="822.7088" y="-597.8" font-family="Helvetica,Arial,sans-serif" font-size="14.00" fill="#000000"> PageTableEntry </text>
<polygon fill="none" stroke="#000000" points="816.7088,-561 816.7088,-588 933.7088,-588 933.7088,-561 816.7088,-561"/>
<text text-anchor="start" x="869.2088" y="-570.8" font-family="Helvetica,Arial,sans-serif" font-size="14.00" fill="#000000">...</text>
<polygon fill="none" stroke="#000000" points="816.7088,-534 816.7088,-561 933.7088,-561 933.7088,-534 816.7088,-534"/>
<text text-anchor="start" x="869.2088" y="-543.8" font-family="Helvetica,Arial,sans-serif" font-size="14.00" fill="#000000">...</text>
<polygon fill="none" stroke="#000000" points="816.7088,-507 816.7088,-534 933.7088,-534 933.7088,-507 816.7088,-507"/>
<text text-anchor="start" x="822.7088" y="-516.8" font-family="Helvetica,Arial,sans-serif" font-size="14.00" fill="#000000"> PageTableEntry </text>
<polygon fill="none" stroke="#000000" points="774.7088,-500 774.7088,-726 940.7088,-726 940.7088,-500 774.7088,-500"/>
</g>
<!-- virt&#45;&gt;l0 -->
<g id="edge13" class="edge">
<title>virt:s&#45;&gt;l0:w</title>
<path fill="none" stroke="#000000" stroke-dasharray="1,5" d="M693.7088,-994C693.7088,-948.2446 770.9534,-601 816.7088,-601"/>
</g>
<!-- frame -->
<g id="node7" class="node">
<title>frame</title>
<text text-anchor="start" x="837.7088" y="-185.8" font-family="Helvetica,Arial,sans-serif" font-size="14.00" fill="#000000">Фрейм</text>
<text text-anchor="start" x="857.7088" y="-159.8" font-family="Helvetica,Arial,sans-serif" font-size="14.00" fill="#000000">0</text>
<text text-anchor="start" x="861.7088" y="-138.8" font-family="Helvetica,Arial,sans-serif" font-size="14.00" fill="#000000"> </text>
<text text-anchor="start" x="861.7088" y="-117.8" font-family="Helvetica,Arial,sans-serif" font-size="14.00" fill="#000000"> </text>
<text text-anchor="start" x="861.7088" y="-96.8" font-family="Helvetica,Arial,sans-serif" font-size="14.00" fill="#000000"> </text>
<text text-anchor="start" x="861.7088" y="-75.8" font-family="Helvetica,Arial,sans-serif" font-size="14.00" fill="#000000"> </text>
<text text-anchor="start" x="861.7088" y="-54.8" font-family="Helvetica,Arial,sans-serif" font-size="14.00" fill="#000000"> </text>
<text text-anchor="start" x="834.7088" y="-33.8" font-family="Helvetica,Arial,sans-serif" font-size="14.00" fill="#000000">4095</text>
<polygon fill="none" stroke="#000000" points="875.7088,-153 875.7088,-174 885.7088,-174 885.7088,-153 875.7088,-153"/>
<text text-anchor="start" x="878.7088" y="-159.8" font-family="Helvetica,Arial,sans-serif" font-size="14.00" fill="#000000"> </text>
<polygon fill="none" stroke="#000000" points="875.7088,-132 875.7088,-153 885.7088,-153 885.7088,-132 875.7088,-132"/>
<text text-anchor="start" x="878.7088" y="-138.8" font-family="Helvetica,Arial,sans-serif" font-size="14.00" fill="#000000"> </text>
<polygon fill="none" stroke="#000000" points="875.7088,-111 875.7088,-132 885.7088,-132 885.7088,-111 875.7088,-111"/>
<text text-anchor="start" x="878.7088" y="-117.8" font-family="Helvetica,Arial,sans-serif" font-size="14.00" fill="#000000"> </text>
<polygon fill="none" stroke="#000000" points="875.7088,-90 875.7088,-111 885.7088,-111 885.7088,-90 875.7088,-90"/>
<text text-anchor="start" x="878.7088" y="-96.8" font-family="Helvetica,Arial,sans-serif" font-size="14.00" fill="#000000"> </text>
<polygon fill="#cadaf6" stroke="transparent" points="875.7088,-69 875.7088,-90 885.7088,-90 885.7088,-69 875.7088,-69"/>
<polygon fill="none" stroke="#000000" points="875.7088,-69 875.7088,-90 885.7088,-90 885.7088,-69 875.7088,-69"/>
<text text-anchor="start" x="878.7088" y="-75.8" font-family="Helvetica,Arial,sans-serif" font-size="14.00" fill="#000000"> </text>
<polygon fill="none" stroke="#000000" points="875.7088,-48 875.7088,-69 885.7088,-69 885.7088,-48 875.7088,-48"/>
<text text-anchor="start" x="878.7088" y="-54.8" font-family="Helvetica,Arial,sans-serif" font-size="14.00" fill="#000000"> </text>
<polygon fill="none" stroke="#000000" points="875.7088,-27 875.7088,-48 885.7088,-48 885.7088,-27 875.7088,-27"/>
<text text-anchor="start" x="878.7088" y="-33.8" font-family="Helvetica,Arial,sans-serif" font-size="14.00" fill="#000000"> </text>
<polygon fill="none" stroke="#000000" points="825.2088,-20 825.2088,-204 892.2088,-204 892.2088,-20 825.2088,-20"/>
</g>
<!-- virt&#45;&gt;frame -->
<g id="edge14" class="edge">
<title>virt:s&#45;&gt;frame:e</title>
<path fill="none" stroke="#000000" stroke-dasharray="1,5" d="M875.7088,-994C875.7088,-844.4187 1135.3101,-533.805 1168.7088,-388 1175.8538,-356.8079 1186.7076,-342.4584 1168.7088,-316 1116.2994,-238.9576 1043.6371,-300.5817 973.7088,-239 912.8024,-185.3634 966.8659,-79 885.7088,-79"/>
</g>
<!-- CR3 -->
<g id="node11" class="node">
<title>CR3</title>
<polygon fill="none" stroke="#000000" points="156.7088,-838.5 156.7088,-874.5 314.7088,-874.5 314.7088,-838.5 156.7088,-838.5"/>
<text text-anchor="middle" x="235.7088" y="-852.8" font-family="Helvetica,Arial,sans-serif" font-size="14.00" fill="#000000">CR3</text>
</g>
<!-- virt&#45;&gt;CR3 -->
<!-- l3&#45;&gt;l2 -->
<g id="edge3" class="edge">
<title>l3:l3pte&#45;&gt;l2:n</title>
<path fill="none" stroke="#000000" d="M171.7088,-601C240.8624,-601 197.6508,-697.5325 258.7088,-730 290.9313,-747.1343 339.0967,-766.2774 348.1967,-740.1379"/>
<polygon fill="#000000" stroke="#000000" points="349.7088,-730 352.6842,-740.5545 348.9711,-734.9453 348.2335,-739.8906 348.2335,-739.8906 348.2335,-739.8906 348.9711,-734.9453 343.7827,-739.2267 349.7088,-730 349.7088,-730"/>
</g>
<!-- l2&#45;&gt;l1 -->
<g id="edge4" class="edge">
<title>l2:l2pte&#45;&gt;l1:n</title>
<path fill="none" stroke="#000000" d="M425.7088,-629C484.9551,-629 458.8526,-705.3092 512.7088,-730 545.8834,-745.2091 593.2826,-765.9014 602.2239,-740.0828"/>
<polygon fill="#000000" stroke="#000000" points="603.7088,-730 606.7037,-740.549 602.9803,-734.9466 602.2517,-739.8933 602.2517,-739.8933 602.2517,-739.8933 602.9803,-734.9466 597.7998,-739.2376 603.7088,-730 603.7088,-730"/>
</g>
<!-- l1&#45;&gt;l0 -->
<g id="edge5" class="edge">
<title>l1:l1pte&#45;&gt;l0:n</title>
<path fill="none" stroke="#000000" d="M679.7088,-574C759.0953,-574 698.255,-689.7967 766.7088,-730 798.1777,-748.4819 846.9495,-766.5406 856.1751,-740.1765"/>
<polygon fill="#000000" stroke="#000000" points="857.7088,-730 860.6682,-740.559 856.9636,-734.9442 856.2184,-739.8883 856.2184,-739.8883 856.2184,-739.8883 856.9636,-734.9442 851.7687,-739.2177 857.7088,-730 857.7088,-730"/>
</g>
<!-- phys -->
<g id="node10" class="node">
<title>phys</title>
<text text-anchor="start" x="679.2088" y="-365.8" font-family="Helvetica,Arial,sans-serif" font-size="14.00" fill="#000000">Битовое представление целевого физического адреса (Phys)</text>
<polygon fill="none" stroke="#000000" points="633.7088,-327 633.7088,-354 752.7088,-354 752.7088,-327 633.7088,-327"/>
<text text-anchor="start" x="639.7088" y="-336.8" font-family="Helvetica,Arial,sans-serif" font-size="14.00" fill="#000000"> 12 нулевых бит </text>
<polygon fill="none" stroke="#000000" points="752.7088,-327 752.7088,-354 880.7088,-354 880.7088,-327 752.7088,-327"/>
<text text-anchor="start" x="758.7088" y="-336.8" font-family="Helvetica,Arial,sans-serif" font-size="14.00" fill="#000000"> 40 значимых бит </text>
<polygon fill="#cadaf6" stroke="transparent" points="880.7088,-327 880.7088,-354 1113.7088,-354 1113.7088,-327 880.7088,-327"/>
<polygon fill="none" stroke="#000000" points="880.7088,-327 880.7088,-354 1113.7088,-354 1113.7088,-327 880.7088,-327"/>
<text text-anchor="start" x="886.7088" y="-336.8" font-family="Helvetica,Arial,sans-serif" font-size="14.00" fill="#000000"> 12 бит смещение внутри фрейма </text>
<polygon fill="none" stroke="#000000" points="626.7088,-320 626.7088,-384 1124.7088,-384 1124.7088,-320 626.7088,-320"/>
</g>
<!-- l0&#45;&gt;phys -->
<g id="edge6" class="edge">
<title>l0:l0pte&#45;&gt;phys:n</title>
<path fill="none" stroke="#000000" d="M933.7088,-601C980.3755,-601 949.4731,-539.9234 933.7088,-496 906.0849,-419.0329 816.7088,-435.7742 816.7088,-354"/>
</g>
<!-- l0&#45;&gt;phys -->
<!-- frame1 -->
<g id="node6" class="node">
<title>frame1</title>
<text text-anchor="start" x="1067.7088" y="-185.8" font-family="Helvetica,Arial,sans-serif" font-size="14.00" fill="#000000">Фрейм</text>
<text text-anchor="start" x="1087.7088" y="-159.8" font-family="Helvetica,Arial,sans-serif" font-size="14.00" fill="#000000">0</text>
<text text-anchor="start" x="1091.7088" y="-138.8" font-family="Helvetica,Arial,sans-serif" font-size="14.00" fill="#000000"> </text>
<text text-anchor="start" x="1091.7088" y="-117.8" font-family="Helvetica,Arial,sans-serif" font-size="14.00" fill="#000000"> </text>
<text text-anchor="start" x="1091.7088" y="-96.8" font-family="Helvetica,Arial,sans-serif" font-size="14.00" fill="#000000"> </text>
<text text-anchor="start" x="1091.7088" y="-75.8" font-family="Helvetica,Arial,sans-serif" font-size="14.00" fill="#000000"> </text>
<text text-anchor="start" x="1091.7088" y="-54.8" font-family="Helvetica,Arial,sans-serif" font-size="14.00" fill="#000000"> </text>
<text text-anchor="start" x="1064.7088" y="-33.8" font-family="Helvetica,Arial,sans-serif" font-size="14.00" fill="#000000">4095</text>
<polygon fill="none" stroke="#000000" points="1105.7088,-153 1105.7088,-174 1115.7088,-174 1115.7088,-153 1105.7088,-153"/>
<text text-anchor="start" x="1108.7088" y="-159.8" font-family="Helvetica,Arial,sans-serif" font-size="14.00" fill="#000000"> </text>
<polygon fill="none" stroke="#000000" points="1105.7088,-132 1105.7088,-153 1115.7088,-153 1115.7088,-132 1105.7088,-132"/>
<text text-anchor="start" x="1108.7088" y="-138.8" font-family="Helvetica,Arial,sans-serif" font-size="14.00" fill="#000000"> </text>
<polygon fill="none" stroke="#000000" points="1105.7088,-111 1105.7088,-132 1115.7088,-132 1115.7088,-111 1105.7088,-111"/>
<text text-anchor="start" x="1108.7088" y="-117.8" font-family="Helvetica,Arial,sans-serif" font-size="14.00" fill="#000000"> </text>
<polygon fill="none" stroke="#000000" points="1105.7088,-90 1105.7088,-111 1115.7088,-111 1115.7088,-90 1105.7088,-90"/>
<text text-anchor="start" x="1108.7088" y="-96.8" font-family="Helvetica,Arial,sans-serif" font-size="14.00" fill="#000000"> </text>
<polygon fill="none" stroke="#000000" points="1105.7088,-69 1105.7088,-90 1115.7088,-90 1115.7088,-69 1105.7088,-69"/>
<text text-anchor="start" x="1108.7088" y="-75.8" font-family="Helvetica,Arial,sans-serif" font-size="14.00" fill="#000000"> </text>
<polygon fill="none" stroke="#000000" points="1105.7088,-48 1105.7088,-69 1115.7088,-69 1115.7088,-48 1105.7088,-48"/>
<text text-anchor="start" x="1108.7088" y="-54.8" font-family="Helvetica,Arial,sans-serif" font-size="14.00" fill="#000000"> </text>
<polygon fill="none" stroke="#000000" points="1105.7088,-27 1105.7088,-48 1115.7088,-48 1115.7088,-27 1105.7088,-27"/>
<text text-anchor="start" x="1108.7088" y="-33.8" font-family="Helvetica,Arial,sans-serif" font-size="14.00" fill="#000000"> </text>
<polygon fill="none" stroke="#000000" points="1055.2088,-20 1055.2088,-204 1122.2088,-204 1122.2088,-20 1055.2088,-20"/>
</g>
<!-- frame2 -->
<g id="node8" class="node">
<title>frame2</title>
<text text-anchor="start" x="607.7088" y="-185.8" font-family="Helvetica,Arial,sans-serif" font-size="14.00" fill="#000000">Фрейм</text>
<text text-anchor="start" x="627.7088" y="-159.8" font-family="Helvetica,Arial,sans-serif" font-size="14.00" fill="#000000">0</text>
<text text-anchor="start" x="631.7088" y="-138.8" font-family="Helvetica,Arial,sans-serif" font-size="14.00" fill="#000000"> </text>
<text text-anchor="start" x="631.7088" y="-117.8" font-family="Helvetica,Arial,sans-serif" font-size="14.00" fill="#000000"> </text>
<text text-anchor="start" x="631.7088" y="-96.8" font-family="Helvetica,Arial,sans-serif" font-size="14.00" fill="#000000"> </text>
<text text-anchor="start" x="631.7088" y="-75.8" font-family="Helvetica,Arial,sans-serif" font-size="14.00" fill="#000000"> </text>
<text text-anchor="start" x="631.7088" y="-54.8" font-family="Helvetica,Arial,sans-serif" font-size="14.00" fill="#000000"> </text>
<text text-anchor="start" x="604.7088" y="-33.8" font-family="Helvetica,Arial,sans-serif" font-size="14.00" fill="#000000">4095</text>
<polygon fill="none" stroke="#000000" points="645.7088,-153 645.7088,-174 655.7088,-174 655.7088,-153 645.7088,-153"/>
<text text-anchor="start" x="648.7088" y="-159.8" font-family="Helvetica,Arial,sans-serif" font-size="14.00" fill="#000000"> </text>
<polygon fill="none" stroke="#000000" points="645.7088,-132 645.7088,-153 655.7088,-153 655.7088,-132 645.7088,-132"/>
<text text-anchor="start" x="648.7088" y="-138.8" font-family="Helvetica,Arial,sans-serif" font-size="14.00" fill="#000000"> </text>
<polygon fill="none" stroke="#000000" points="645.7088,-111 645.7088,-132 655.7088,-132 655.7088,-111 645.7088,-111"/>
<text text-anchor="start" x="648.7088" y="-117.8" font-family="Helvetica,Arial,sans-serif" font-size="14.00" fill="#000000"> </text>
<polygon fill="none" stroke="#000000" points="645.7088,-90 645.7088,-111 655.7088,-111 655.7088,-90 645.7088,-90"/>
<text text-anchor="start" x="648.7088" y="-96.8" font-family="Helvetica,Arial,sans-serif" font-size="14.00" fill="#000000"> </text>
<polygon fill="none" stroke="#000000" points="645.7088,-69 645.7088,-90 655.7088,-90 655.7088,-69 645.7088,-69"/>
<text text-anchor="start" x="648.7088" y="-75.8" font-family="Helvetica,Arial,sans-serif" font-size="14.00" fill="#000000"> </text>
<polygon fill="none" stroke="#000000" points="645.7088,-48 645.7088,-69 655.7088,-69 655.7088,-48 645.7088,-48"/>
<text text-anchor="start" x="648.7088" y="-54.8" font-family="Helvetica,Arial,sans-serif" font-size="14.00" fill="#000000"> </text>
<polygon fill="none" stroke="#000000" points="645.7088,-27 645.7088,-48 655.7088,-48 655.7088,-27 645.7088,-27"/>
<text text-anchor="start" x="648.7088" y="-33.8" font-family="Helvetica,Arial,sans-serif" font-size="14.00" fill="#000000"> </text>
<polygon fill="none" stroke="#000000" points="595.2088,-20 595.2088,-204 662.2088,-204 662.2088,-20 595.2088,-20"/>
</g>
<!-- frame3 -->
<g id="node9" class="node">
<title>frame3</title>
<text text-anchor="start" x="377.7088" y="-185.8" font-family="Helvetica,Arial,sans-serif" font-size="14.00" fill="#000000">Фрейм</text>
<text text-anchor="start" x="397.7088" y="-159.8" font-family="Helvetica,Arial,sans-serif" font-size="14.00" fill="#000000">0</text>
<text text-anchor="start" x="401.7088" y="-138.8" font-family="Helvetica,Arial,sans-serif" font-size="14.00" fill="#000000"> </text>
<text text-anchor="start" x="401.7088" y="-117.8" font-family="Helvetica,Arial,sans-serif" font-size="14.00" fill="#000000"> </text>
<text text-anchor="start" x="401.7088" y="-96.8" font-family="Helvetica,Arial,sans-serif" font-size="14.00" fill="#000000"> </text>
<text text-anchor="start" x="401.7088" y="-75.8" font-family="Helvetica,Arial,sans-serif" font-size="14.00" fill="#000000"> </text>
<text text-anchor="start" x="401.7088" y="-54.8" font-family="Helvetica,Arial,sans-serif" font-size="14.00" fill="#000000"> </text>
<text text-anchor="start" x="374.7088" y="-33.8" font-family="Helvetica,Arial,sans-serif" font-size="14.00" fill="#000000">4095</text>
<polygon fill="none" stroke="#000000" points="415.7088,-153 415.7088,-174 425.7088,-174 425.7088,-153 415.7088,-153"/>
<text text-anchor="start" x="418.7088" y="-159.8" font-family="Helvetica,Arial,sans-serif" font-size="14.00" fill="#000000"> </text>
<polygon fill="none" stroke="#000000" points="415.7088,-132 415.7088,-153 425.7088,-153 425.7088,-132 415.7088,-132"/>
<text text-anchor="start" x="418.7088" y="-138.8" font-family="Helvetica,Arial,sans-serif" font-size="14.00" fill="#000000"> </text>
<polygon fill="none" stroke="#000000" points="415.7088,-111 415.7088,-132 425.7088,-132 425.7088,-111 415.7088,-111"/>
<text text-anchor="start" x="418.7088" y="-117.8" font-family="Helvetica,Arial,sans-serif" font-size="14.00" fill="#000000"> </text>
<polygon fill="none" stroke="#000000" points="415.7088,-90 415.7088,-111 425.7088,-111 425.7088,-90 415.7088,-90"/>
<text text-anchor="start" x="418.7088" y="-96.8" font-family="Helvetica,Arial,sans-serif" font-size="14.00" fill="#000000"> </text>
<polygon fill="none" stroke="#000000" points="415.7088,-69 415.7088,-90 425.7088,-90 425.7088,-69 415.7088,-69"/>
<text text-anchor="start" x="418.7088" y="-75.8" font-family="Helvetica,Arial,sans-serif" font-size="14.00" fill="#000000"> </text>
<polygon fill="none" stroke="#000000" points="415.7088,-48 415.7088,-69 425.7088,-69 425.7088,-48 415.7088,-48"/>
<text text-anchor="start" x="418.7088" y="-54.8" font-family="Helvetica,Arial,sans-serif" font-size="14.00" fill="#000000"> </text>
<polygon fill="none" stroke="#000000" points="415.7088,-27 415.7088,-48 425.7088,-48 425.7088,-27 415.7088,-27"/>
<text text-anchor="start" x="418.7088" y="-33.8" font-family="Helvetica,Arial,sans-serif" font-size="14.00" fill="#000000"> </text>
<polygon fill="none" stroke="#000000" points="365.2088,-20 365.2088,-204 432.2088,-204 432.2088,-20 365.2088,-20"/>
</g>
<!-- phys&#45;&gt;frame -->
<g id="edge7" class="edge">
<title>phys:s&#45;&gt;frame:n</title>
<path fill="none" stroke="#000000" d="M816.7088,-327C816.7088,-274.5286 853.4692,-265.1711 858.2079,-218.2573"/>
<polygon fill="#000000" stroke="#000000" points="858.7088,-208 862.7156,-218.2076 858.4649,-212.994 858.2209,-217.9881 858.2209,-217.9881 858.2209,-217.9881 858.4649,-212.994 853.7263,-217.7685 858.7088,-208 858.7088,-208"/>
</g>
<!-- phys&#45;&gt;frame -->
<g id="edge9" class="edge">
<title>phys:s&#45;&gt;frame:w</title>
<path fill="none" stroke="#000000" d="M875.7088,-316C875.7088,-214.2669 777.4529,-87.9699 865.6337,-79.4552"/>
<polygon fill="#000000" stroke="#000000" points="875.7088,-79 865.9221,-83.9468 870.7139,-79.2257 865.719,-79.4514 865.719,-79.4514 865.719,-79.4514 870.7139,-79.2257 865.5159,-74.956 875.7088,-79 875.7088,-79"/>
</g>
<!-- CR3&#45;&gt;l3 -->
<g id="edge2" class="edge">
<title>CR3&#45;&gt;l3:n</title>
<path fill="none" stroke="#000000" d="M191.027,-838.3995C152.7758,-819.8181 102.8677,-786.9909 96.4079,-740.1972"/>
<polygon fill="#000000" stroke="#000000" points="95.7088,-730 100.8824,-739.6687 96.0508,-734.9883 96.3929,-739.9766 96.3929,-739.9766 96.3929,-739.9766 96.0508,-734.9883 91.9034,-740.2844 95.7088,-730 95.7088,-730"/>
</g>
</g>
</svg>
