<?xml version="1.0" encoding="UTF-8" standalone="no"?>
<!DOCTYPE svg PUBLIC "-//W3C//DTD SVG 1.1//EN"
 "http://www.w3.org/Graphics/SVG/1.1/DTD/svg11.dtd">
<!-- Generated by graphviz version 2.43.0 (0)
 -->
<!-- Title: diagram Pages: 1 -->
<svg width="1290pt" height="255pt"
 viewBox="0.00 0.00 1290.00 255.18" xmlns="http://www.w3.org/2000/svg" xmlns:xlink="http://www.w3.org/1999/xlink">
<g id="graph0" class="graph" transform="scale(1 1) rotate(0) translate(4 251.18)">
<title>diagram</title>
<polygon fill="white" stroke="transparent" points="-4,4 -4,-251.18 1286,-251.18 1286,4 -4,4"/>
<!-- usize -->
<g id="node1" class="node">
<title>usize</title>
<ellipse fill="#cccccc" stroke="black" cx="72" cy="-119.18" rx="72" ry="36"/>
<text text-anchor="middle" x="72" y="-115.48" font-family="Helvetica,Arial,sans-serif" font-size="14.00">usize</text>
</g>
<!-- u64 -->
<g id="node2" class="node">
<title>u64</title>
<ellipse fill="#cccccc" stroke="black" cx="506" cy="-211.18" rx="72" ry="36"/>
<text text-anchor="middle" x="506" y="-207.48" font-family="Helvetica,Arial,sans-serif" font-size="14.00">u64</text>
</g>
<!-- usize&#45;&gt;u64 -->
<g id="edge1" class="edge">
<title>usize&#45;&gt;u64</title>
<path fill="none" stroke="black" d="M138.61,-133.16C216.86,-149.82 347.39,-177.62 429.69,-195.15"/>
<polygon fill="black" stroke="black" points="439.48,-197.23 428.76,-199.55 434.59,-196.19 429.7,-195.15 429.7,-195.15 429.7,-195.15 434.59,-196.19 430.64,-190.75 439.48,-197.23 439.48,-197.23"/>
<text text-anchor="middle" x="289" y="-186.98" font-family="Helvetica,Arial,sans-serif" font-size="14.00">ku::memory::size::into_u64()</text>
</g>
<!-- Addr -->
<g id="node3" class="node">
<title>Addr</title>
<ellipse fill="#cccccc" stroke="black" cx="858" cy="-62.18" rx="72" ry="36"/>
<text text-anchor="middle" x="858" y="-58.48" font-family="Helvetica,Arial,sans-serif" font-size="14.00">Addr</text>
</g>
<!-- usize&#45;&gt;Addr -->
<g id="edge3" class="edge">
<title>usize&#45;&gt;Addr</title>
<path fill="none" stroke="black" d="M128.4,-96.7C149.78,-89.05 174.68,-81.38 198,-77.18 403.68,-40.14 651.26,-48.31 776.29,-56.04"/>
<polygon fill="black" stroke="black" points="786.55,-56.69 776.28,-60.55 781.56,-56.38 776.57,-56.06 776.57,-56.06 776.57,-56.06 781.56,-56.38 776.85,-51.57 786.55,-56.69 786.55,-56.69"/>
<text text-anchor="middle" x="506" y="-55.98" font-family="Helvetica,Arial,sans-serif" font-size="14.00">Addr::new()</text>
</g>
<!-- u64&#45;&gt;usize -->
<g id="edge2" class="edge">
<title>u64&#45;&gt;usize</title>
<path fill="none" stroke="black" d="M475.16,-178.61C451.81,-155.69 417.16,-126.91 380,-114.18 304.49,-88.32 212.28,-94.43 148.74,-103.95"/>
<polygon fill="black" stroke="black" points="138.8,-105.5 147.98,-99.51 143.74,-104.73 148.68,-103.96 148.68,-103.96 148.68,-103.96 143.74,-104.73 149.37,-108.4 138.8,-105.5 138.8,-105.5"/>
<text text-anchor="middle" x="289" y="-117.98" font-family="Helvetica,Arial,sans-serif" font-size="14.00">ku::memory::size::into_usize()</text>
</g>
<!-- u64&#45;&gt;Addr -->
<g id="edge4" class="edge">
<title>u64&#45;&gt;Addr</title>
<path fill="none" stroke="black" d="M569.42,-193.82C615.31,-180.17 678.71,-159.44 732,-135.18 756.63,-123.98 782.65,-109.28 804.54,-96.02"/>
<polygon fill="black" stroke="black" points="813.33,-90.63 807.16,-99.69 809.07,-93.24 804.81,-95.85 804.81,-95.85 804.81,-95.85 809.07,-93.24 802.46,-92.02 813.33,-90.63 813.33,-90.63"/>
<text text-anchor="middle" x="682" y="-175.98" font-family="Helvetica,Arial,sans-serif" font-size="14.00">Addr::new_u64()</text>
</g>
<!-- Addr&#45;&gt;usize -->
<g id="edge5" class="edge">
<title>Addr&#45;&gt;usize</title>
<path fill="none" stroke="black" d="M794.37,-45.09C674.59,-15.54 406.44,35.3 198,-37.18 169.07,-47.24 140.25,-65.45 117.59,-82.16"/>
<polygon fill="black" stroke="black" points="109.53,-88.23 114.81,-78.62 113.52,-85.22 117.52,-82.22 117.52,-82.22 117.52,-82.22 113.52,-85.22 120.22,-85.81 109.53,-88.23 109.53,-88.23"/>
<text text-anchor="middle" x="506" y="-9.98" font-family="Helvetica,Arial,sans-serif" font-size="14.00">Addr::into_usize()</text>
</g>
<!-- Addr&#45;&gt;u64 -->
<g id="edge6" class="edge">
<title>Addr&#45;&gt;u64</title>
<path fill="none" stroke="black" d="M787.75,-70.29C741.89,-77.52 681.34,-90.74 632,-114.18 601.02,-128.91 570.51,-152.35 547.4,-172.5"/>
<polygon fill="black" stroke="black" points="539.85,-179.19 544.35,-169.19 543.59,-175.87 547.33,-172.55 547.33,-172.55 547.33,-172.55 543.59,-175.87 550.32,-175.92 539.85,-179.19 539.85,-179.19"/>
<text text-anchor="middle" x="682" y="-117.98" font-family="Helvetica,Arial,sans-serif" font-size="14.00">Addr::into_u64()</text>
</g>
<!-- Frage -->
<g id="node4" class="node">
<title>Frage</title>
<ellipse fill="#cccccc" stroke="black" cx="1210" cy="-62.18" rx="72" ry="36"/>
<text text-anchor="middle" x="1210" y="-58.48" font-family="Helvetica,Arial,sans-serif" font-size="14.00">Frage</text>
</g>
<!-- Addr&#45;&gt;Frage -->
<g id="edge7" class="edge">
<title>Addr&#45;&gt;Frage</title>
<path fill="none" stroke="black" d="M930.25,-62.18C987.5,-62.18 1067.93,-62.18 1127.69,-62.18"/>
<polygon fill="black" stroke="black" points="1137.85,-62.18 1127.85,-66.68 1132.85,-62.18 1127.85,-62.18 1127.85,-62.18 1127.85,-62.18 1132.85,-62.18 1127.85,-57.68 1137.85,-62.18 1137.85,-62.18"/>
<text text-anchor="middle" x="1034" y="-65.98" font-family="Helvetica,Arial,sans-serif" font-size="14.00">Frage::new()</text>
</g>
<!-- Frage&#45;&gt;Addr -->
<g id="edge8" class="edge">
<title>Frage&#45;&gt;Addr</title>
<path fill="none" stroke="black" d="M1148.91,-42.96C1128.53,-37.35 1105.48,-31.97 1084,-29.18 1039.93,-23.46 1028.07,-23.46 984,-29.18 965.88,-31.54 946.64,-35.73 928.82,-40.36"/>
<polygon fill="black" stroke="black" points="919.09,-42.96 927.59,-36.03 923.92,-41.67 928.75,-40.38 928.75,-40.38 928.75,-40.38 923.92,-41.67 929.92,-44.72 919.09,-42.96 919.09,-42.96"/>
<text text-anchor="middle" x="1034" y="-32.98" font-family="Helvetica,Arial,sans-serif" font-size="14.00">Frage::address()</text>
</g>
</g>
</svg>
