<?xml version="1.0" encoding="UTF-8" standalone="no"?>
<!DOCTYPE svg PUBLIC "-//W3C//DTD SVG 1.1//EN"
 "http://www.w3.org/Graphics/SVG/1.1/DTD/svg11.dtd">
<!-- Generated by graphviz version 2.43.0 (0)
 -->
<!-- Title: process_tree Pages: 1 -->
<svg width="638pt" height="188pt"
 viewBox="0.00 0.00 638.00 188.00" xmlns="http://www.w3.org/2000/svg" xmlns:xlink="http://www.w3.org/1999/xlink">
<g id="graph0" class="graph" transform="scale(1 1) rotate(0) translate(4 184)">
<title>process_tree</title>
<polygon fill="white" stroke="transparent" points="-4,4 -4,-184 634,-184 634,4 -4,4"/>
<!-- 0:1 -->
<g id="node1" class="node">
<title>0:1</title>
<ellipse fill="#cccccc" stroke="black" cx="135" cy="-90" rx="27" ry="18"/>
<text text-anchor="middle" x="135" y="-86.3" font-family="Times,serif" font-size="14.00">0:1</text>
</g>
<!-- 1:2 -->
<g id="node2" class="node">
<title>1:2</title>
<ellipse fill="#cccccc" stroke="black" cx="27" cy="-18" rx="27" ry="18"/>
<text text-anchor="middle" x="27" y="-14.3" font-family="Times,serif" font-size="14.00">1:2</text>
</g>
<!-- 0:1&#45;&gt;1:2 -->
<g id="edge1" class="edge">
<title>0:1&#45;&gt;1:2</title>
<path fill="none" stroke="black" d="M116.19,-76.81C99,-65.67 73.38,-49.06 54.01,-36.5"/>
<polygon fill="black" stroke="black" points="55.89,-33.56 45.6,-31.05 52.08,-39.43 55.89,-33.56"/>
</g>
<!-- 2:2 -->
<g id="node3" class="node">
<title>2:2</title>
<ellipse fill="#cccccc" stroke="black" cx="99" cy="-18" rx="27" ry="18"/>
<text text-anchor="middle" x="99" y="-14.3" font-family="Times,serif" font-size="14.00">2:2</text>
</g>
<!-- 0:1&#45;&gt;2:2 -->
<g id="edge2" class="edge">
<title>0:1&#45;&gt;2:2</title>
<path fill="none" stroke="black" d="M126.65,-72.76C122.29,-64.28 116.85,-53.71 111.96,-44.2"/>
<polygon fill="black" stroke="black" points="114.99,-42.44 107.3,-35.15 108.77,-45.64 114.99,-42.44"/>
</g>
<!-- 2:3 -->
<g id="node4" class="node">
<title>2:3</title>
<ellipse fill="#cccccc" stroke="black" cx="171" cy="-18" rx="27" ry="18"/>
<text text-anchor="middle" x="171" y="-14.3" font-family="Times,serif" font-size="14.00">2:3</text>
</g>
<!-- 0:1&#45;&gt;2:3 -->
<g id="edge3" class="edge">
<title>0:1&#45;&gt;2:3</title>
<path fill="none" stroke="black" d="M143.35,-72.76C147.71,-64.28 153.15,-53.71 158.04,-44.2"/>
<polygon fill="black" stroke="black" points="161.23,-45.64 162.7,-35.15 155.01,-42.44 161.23,-45.64"/>
</g>
<!-- 1:1 -->
<g id="node5" class="node">
<title>1:1</title>
<ellipse fill="#cccccc" stroke="black" cx="315" cy="-90" rx="27" ry="18"/>
<text text-anchor="middle" x="315" y="-86.3" font-family="Times,serif" font-size="14.00">1:1</text>
</g>
<!-- 5:0 -->
<g id="node6" class="node">
<title>5:0</title>
<ellipse fill="#cccccc" stroke="black" cx="243" cy="-18" rx="27" ry="18"/>
<text text-anchor="middle" x="243" y="-14.3" font-family="Times,serif" font-size="14.00">5:0</text>
</g>
<!-- 1:1&#45;&gt;5:0 -->
<g id="edge4" class="edge">
<title>1:1&#45;&gt;5:0</title>
<path fill="none" stroke="black" d="M300.43,-74.83C290.25,-64.94 276.48,-51.55 264.97,-40.36"/>
<polygon fill="black" stroke="black" points="267.41,-37.85 257.8,-33.38 262.53,-42.87 267.41,-37.85"/>
</g>
<!-- 6:0 -->
<g id="node7" class="node">
<title>6:0</title>
<ellipse fill="#cccccc" stroke="black" cx="315" cy="-18" rx="27" ry="18"/>
<text text-anchor="middle" x="315" y="-14.3" font-family="Times,serif" font-size="14.00">6:0</text>
</g>
<!-- 1:1&#45;&gt;6:0 -->
<g id="edge5" class="edge">
<title>1:1&#45;&gt;6:0</title>
<path fill="none" stroke="black" d="M315,-71.7C315,-63.98 315,-54.71 315,-46.11"/>
<polygon fill="black" stroke="black" points="318.5,-46.1 315,-36.1 311.5,-46.1 318.5,-46.1"/>
</g>
<!-- 7:0 -->
<g id="node8" class="node">
<title>7:0</title>
<ellipse fill="#cccccc" stroke="black" cx="387" cy="-18" rx="27" ry="18"/>
<text text-anchor="middle" x="387" y="-14.3" font-family="Times,serif" font-size="14.00">7:0</text>
</g>
<!-- 1:1&#45;&gt;7:0 -->
<g id="edge6" class="edge">
<title>1:1&#45;&gt;7:0</title>
<path fill="none" stroke="black" d="M329.57,-74.83C339.75,-64.94 353.52,-51.55 365.03,-40.36"/>
<polygon fill="black" stroke="black" points="367.47,-42.87 372.2,-33.38 362.59,-37.85 367.47,-42.87"/>
</g>
<!-- 2:1 -->
<g id="node9" class="node">
<title>2:1</title>
<ellipse fill="#cccccc" stroke="black" cx="315" cy="-162" rx="27" ry="18"/>
<text text-anchor="middle" x="315" y="-158.3" font-family="Times,serif" font-size="14.00">2:1</text>
</g>
<!-- 2:1&#45;&gt;0:1 -->
<g id="edge7" class="edge">
<title>2:1&#45;&gt;0:1</title>
<path fill="none" stroke="black" d="M292.2,-152.13C260.64,-139.86 203.46,-117.62 167.45,-103.62"/>
<polygon fill="black" stroke="black" points="168.48,-100.27 157.9,-99.9 165.95,-106.79 168.48,-100.27"/>
</g>
<!-- 2:1&#45;&gt;1:1 -->
<g id="edge8" class="edge">
<title>2:1&#45;&gt;1:1</title>
<path fill="none" stroke="black" d="M315,-143.7C315,-135.98 315,-126.71 315,-118.11"/>
<polygon fill="black" stroke="black" points="318.5,-118.1 315,-108.1 311.5,-118.1 318.5,-118.1"/>
</g>
<!-- 3:0 -->
<g id="node10" class="node">
<title>3:0</title>
<ellipse fill="#cccccc" stroke="black" cx="495" cy="-90" rx="27" ry="18"/>
<text text-anchor="middle" x="495" y="-86.3" font-family="Times,serif" font-size="14.00">3:0</text>
</g>
<!-- 2:1&#45;&gt;3:0 -->
<g id="edge9" class="edge">
<title>2:1&#45;&gt;3:0</title>
<path fill="none" stroke="black" d="M337.8,-152.13C369.36,-139.86 426.54,-117.62 462.55,-103.62"/>
<polygon fill="black" stroke="black" points="464.05,-106.79 472.1,-99.9 461.52,-100.27 464.05,-106.79"/>
</g>
<!-- 4:0 -->
<g id="node11" class="node">
<title>4:0</title>
<ellipse fill="#cccccc" stroke="black" cx="459" cy="-18" rx="27" ry="18"/>
<text text-anchor="middle" x="459" y="-14.3" font-family="Times,serif" font-size="14.00">4:0</text>
</g>
<!-- 3:0&#45;&gt;4:0 -->
<g id="edge10" class="edge">
<title>3:0&#45;&gt;4:0</title>
<path fill="none" stroke="black" d="M486.65,-72.76C482.29,-64.28 476.85,-53.71 471.96,-44.2"/>
<polygon fill="black" stroke="black" points="474.99,-42.44 467.3,-35.15 468.77,-45.64 474.99,-42.44"/>
</g>
<!-- 8:0 -->
<g id="node12" class="node">
<title>8:0</title>
<ellipse fill="#cccccc" stroke="black" cx="531" cy="-18" rx="27" ry="18"/>
<text text-anchor="middle" x="531" y="-14.3" font-family="Times,serif" font-size="14.00">8:0</text>
</g>
<!-- 3:0&#45;&gt;8:0 -->
<g id="edge11" class="edge">
<title>3:0&#45;&gt;8:0</title>
<path fill="none" stroke="black" d="M503.35,-72.76C507.71,-64.28 513.15,-53.71 518.04,-44.2"/>
<polygon fill="black" stroke="black" points="521.23,-45.64 522.7,-35.15 515.01,-42.44 521.23,-45.64"/>
</g>
<!-- 9:0 -->
<g id="node13" class="node">
<title>9:0</title>
<ellipse fill="#cccccc" stroke="black" cx="603" cy="-18" rx="27" ry="18"/>
<text text-anchor="middle" x="603" y="-14.3" font-family="Times,serif" font-size="14.00">9:0</text>
</g>
<!-- 3:0&#45;&gt;9:0 -->
<g id="edge12" class="edge">
<title>3:0&#45;&gt;9:0</title>
<path fill="none" stroke="black" d="M513.81,-76.81C531,-65.67 556.62,-49.06 575.99,-36.5"/>
<polygon fill="black" stroke="black" points="577.92,-39.43 584.4,-31.05 574.11,-33.56 577.92,-39.43"/>
</g>
</g>
</svg>
