<?xml version="1.0" encoding="UTF-8" standalone="no"?>
<!DOCTYPE svg PUBLIC "-//W3C//DTD SVG 1.1//EN"
 "http://www.w3.org/Graphics/SVG/1.1/DTD/svg11.dtd">
<!-- Generated by graphviz version 2.43.0 (0)
 -->
<!-- Title: block_cache Pages: 1 -->
<svg width="681pt" height="341pt"
 viewBox="0.00 0.00 681.00 341.00" xmlns="http://www.w3.org/2000/svg" xmlns:xlink="http://www.w3.org/1999/xlink">
<g id="graph0" class="graph" transform="scale(1 1) rotate(0) translate(4 337)">
<title>block_cache</title>
<polygon fill="white" stroke="transparent" points="-4,4 -4,-337 677,-337 677,4 -4,4"/>
<g id="clust1" class="cluster">
<title>cluster_memory</title>
<polygon fill="none" stroke="black" points="8,-170 8,-325 305,-325 305,-170 8,-170"/>
<text text-anchor="middle" x="156.5" y="-309.8" font-family="Helvetica,Arial,sans-serif" font-size="14.00">Блочный кеш в памяти</text>
</g>
<g id="clust2" class="cluster">
<title>cluster_disk</title>
<polygon fill="none" stroke="black" points="469,-8 469,-325 665,-325 665,-8 469,-8"/>
<text text-anchor="middle" x="567" y="-309.8" font-family="Helvetica,Arial,sans-serif" font-size="14.00">Диск</text>
</g>
<!-- memory -->
<g id="node1" class="node">
<title>memory</title>
<polygon fill="none" stroke="black" points="16,-178.5 16,-293.5 297,-293.5 297,-178.5 16,-178.5"/>
<text text-anchor="start" x="24" y="-278.3" font-family="Times,serif" font-size="14.00">страница_0</text>
<polyline fill="none" stroke="black" points="16,-270.5 119,-270.5 "/>
<text text-anchor="start" x="24" y="-255.3" font-family="Times,serif" font-size="14.00">страница_1</text>
<polyline fill="none" stroke="black" points="16,-247.5 119,-247.5 "/>
<text text-anchor="start" x="24" y="-232.3" font-family="Times,serif" font-size="14.00">страница_2</text>
<polyline fill="none" stroke="black" points="16,-224.5 119,-224.5 "/>
<text text-anchor="start" x="24" y="-209.3" font-family="Times,serif" font-size="14.00">...</text>
<polyline fill="none" stroke="black" points="16,-201.5 119,-201.5 "/>
<text text-anchor="start" x="24" y="-186.3" font-family="Times,serif" font-size="14.00">страница_N</text>
<polyline fill="none" stroke="black" points="119,-178.5 119,-293.5 "/>
<text text-anchor="start" x="127" y="-278.3" font-family="Times,serif" font-size="14.00">Present = 0</text>
<polyline fill="none" stroke="black" points="119,-270.5 297,-270.5 "/>
<text text-anchor="start" x="127" y="-255.3" font-family="Times,serif" font-size="14.00">Present = 1, Dirty = 0</text>
<polyline fill="none" stroke="black" points="119,-247.5 297,-247.5 "/>
<text text-anchor="start" x="127" y="-232.3" font-family="Times,serif" font-size="14.00">Present = 1, Dirty = 1</text>
<polyline fill="none" stroke="black" points="119,-224.5 297,-224.5 "/>
<text text-anchor="middle" x="208" y="-209.3" font-family="Times,serif" font-size="14.00"> </text>
<polyline fill="none" stroke="black" points="119,-201.5 297,-201.5 "/>
<text text-anchor="middle" x="208" y="-186.3" font-family="Times,serif" font-size="14.00"> </text>
</g>
<!-- disk -->
<g id="node2" class="node">
<title>disk</title>
<polygon fill="none" stroke="black" points="477,-17 477,-293 657,-293 657,-17 477,-17"/>
<text text-anchor="middle" x="567" y="-277.8" font-family="Times,serif" font-size="14.00">блок_0</text>
<polyline fill="none" stroke="black" points="477,-270 657,-270 "/>
<text text-anchor="middle" x="567" y="-254.8" font-family="Times,serif" font-size="14.00">блок_1</text>
<polyline fill="none" stroke="black" points="477,-247 657,-247 "/>
<text text-anchor="middle" x="567" y="-231.8" font-family="Times,serif" font-size="14.00">блок_2</text>
<polyline fill="none" stroke="black" points="477,-224 657,-224 "/>
<text text-anchor="middle" x="567" y="-208.8" font-family="Times,serif" font-size="14.00">блок_3</text>
<polyline fill="none" stroke="black" points="477,-201 657,-201 "/>
<text text-anchor="middle" x="567" y="-185.8" font-family="Times,serif" font-size="14.00">...</text>
<polyline fill="none" stroke="black" points="477,-178 657,-178 "/>
<text text-anchor="middle" x="567" y="-162.8" font-family="Times,serif" font-size="14.00">...</text>
<polyline fill="none" stroke="black" points="477,-155 657,-155 "/>
<text text-anchor="middle" x="567" y="-139.8" font-family="Times,serif" font-size="14.00">...</text>
<polyline fill="none" stroke="black" points="477,-132 657,-132 "/>
<text text-anchor="middle" x="567" y="-116.8" font-family="Times,serif" font-size="14.00">...</text>
<polyline fill="none" stroke="black" points="477,-109 657,-109 "/>
<text text-anchor="middle" x="567" y="-93.8" font-family="Times,serif" font-size="14.00">...</text>
<polyline fill="none" stroke="black" points="477,-86 657,-86 "/>
<text text-anchor="middle" x="567" y="-70.8" font-family="Times,serif" font-size="14.00">...</text>
<polyline fill="none" stroke="black" points="477,-63 657,-63 "/>
<text text-anchor="middle" x="567" y="-47.8" font-family="Times,serif" font-size="14.00">...</text>
<polyline fill="none" stroke="black" points="477,-40 657,-40 "/>
<text text-anchor="middle" x="567" y="-24.8" font-family="Times,serif" font-size="14.00">блок_M</text>
</g>
<!-- memory&#45;&gt;disk -->
<g id="edge1" class="edge">
<title>memory:m1&#45;&gt;disk:d4</title>
<path fill="none" stroke="black" d="M308.71,-258.47C413.09,-247.34 361.41,-62.7 465.76,-51.53"/>
<polygon fill="black" stroke="black" points="298.5,-259 308.26,-253.99 303.49,-258.74 308.49,-258.49 308.49,-258.49 308.49,-258.49 303.49,-258.74 308.72,-262.98 298.5,-259 298.5,-259"/>
<polygon fill="black" stroke="black" points="476,-51 466.25,-56.01 471.01,-51.26 466.01,-51.52 466.01,-51.52 466.01,-51.52 471.01,-51.26 465.78,-47.02 476,-51 476,-51"/>
<text text-anchor="middle" x="433.5" y="-39.8" font-family="Times,serif" font-size="14.00"> &#160;&#160;&#160;запись &#160;&#160;&#160;</text>
</g>
<!-- memory&#45;&gt;disk -->
<g id="edge2" class="edge">
<title>memory:m2&#45;&gt;disk:d1</title>
<path fill="none" stroke="black" d="M308.86,-236.14C376.5,-237.93 398.02,-257.08 465.67,-258.87"/>
<polygon fill="black" stroke="black" points="298.5,-236 308.56,-231.63 303.5,-236.07 308.5,-236.13 308.5,-236.13 308.5,-236.13 303.5,-236.07 308.44,-240.63 298.5,-236 298.5,-236"/>
<polygon fill="black" stroke="black" points="476,-259 465.94,-263.37 471,-258.93 466,-258.87 466,-258.87 466,-258.87 471,-258.93 466.06,-254.37 476,-259 476,-259"/>
<text text-anchor="middle" x="342.5" y="-224.8" font-family="Times,serif" font-size="14.00"> &#160;&#160;&#160;чтение &#160;&#160;&#160;</text>
</g>
<!-- memory&#45;&gt;disk -->
</g>
</svg>
