<?xml version="1.0" encoding="UTF-8" standalone="no"?>
<!DOCTYPE svg PUBLIC "-//W3C//DTD SVG 1.1//EN"
 "http://www.w3.org/Graphics/SVG/1.1/DTD/svg11.dtd">
<!-- Generated by graphviz version 2.43.0 (0)
 -->
<!-- Title: diagram Pages: 1 -->
<svg width="505pt" height="646pt"
 viewBox="0.00 0.00 505.39 646.17" xmlns="http://www.w3.org/2000/svg" xmlns:xlink="http://www.w3.org/1999/xlink">
<g id="graph0" class="graph" transform="scale(1 1) rotate(0) translate(4 642.17)">
<title>diagram</title>
<polygon fill="white" stroke="transparent" points="-4,4 -4,-642.17 501.39,-642.17 501.39,4 -4,4"/>
<g id="clust1" class="cluster">
<title>cluster_virt_memory</title>
<polygon fill="none" stroke="black" points="8,-285.17 8,-630.17 489.39,-630.17 489.39,-285.17 8,-285.17"/>
<text text-anchor="middle" x="248.69" y="-614.97" font-family="Helvetica,Arial,sans-serif" font-size="14.00">Виртуальные</text>
</g>
<g id="clust3" class="cluster">
<title>cluster_phys_memory</title>
<polygon fill="none" stroke="black" points="359.15,-202.17 359.15,-277.17 450.24,-277.17 450.24,-202.17 359.15,-202.17"/>
<text text-anchor="middle" x="404.69" y="-261.97" font-family="Helvetica,Arial,sans-serif" font-size="14.00">Физические</text>
</g>
<!-- Virt -->
<g id="node1" class="node">
<title>Virt</title>
<ellipse fill="none" stroke="black" cx="43" cy="-330.17" rx="27" ry="18"/>
<text text-anchor="middle" x="43" y="-326.47" font-family="Helvetica,Arial,sans-serif" font-size="14.00">Virt</text>
</g>
<!-- const_ptr -->
<g id="node2" class="node">
<title>const_ptr</title>
<ellipse fill="none" stroke="black" cx="404.69" cy="-419.17" rx="42.79" ry="18"/>
<text text-anchor="middle" x="404.69" y="-415.47" font-family="Helvetica,Arial,sans-serif" font-size="14.00">*const T</text>
</g>
<!-- Virt&#45;&gt;const_ptr -->
<g id="edge4" class="edge">
<title>Virt&#45;&gt;const_ptr</title>
<path fill="none" stroke="black" d="M64.79,-341.23C80.59,-349.16 103.1,-359.4 124,-365.17 188.78,-383.04 208.07,-371.16 274,-384.17 302.86,-389.86 334.76,-398.44 359.7,-405.68"/>
<polygon fill="black" stroke="black" points="369.59,-408.58 358.73,-410.08 364.79,-407.17 360,-405.76 360,-405.76 360,-405.76 364.79,-407.17 361.26,-401.45 369.59,-408.58 369.59,-408.58"/>
<text text-anchor="middle" x="199" y="-387.97" font-family="Helvetica,Arial,sans-serif" font-size="14.00">Virt::into_ptr&lt;T&gt;()</text>
</g>
<!-- mut_ptr -->
<g id="node3" class="node">
<title>mut_ptr</title>
<ellipse fill="none" stroke="black" cx="404.69" cy="-311.17" rx="37.09" ry="18"/>
<text text-anchor="middle" x="404.69" y="-307.47" font-family="Helvetica,Arial,sans-serif" font-size="14.00">*mut T</text>
</g>
<!-- Virt&#45;&gt;mut_ptr -->
<g id="edge5" class="edge">
<title>Virt&#45;&gt;mut_ptr</title>
<path fill="none" stroke="black" d="M68.27,-323.26C84.01,-319.14 105.04,-314.31 124,-312.17 205.82,-302.93 301.96,-305.49 357.56,-308.27"/>
<polygon fill="black" stroke="black" points="367.79,-308.81 357.56,-312.78 362.79,-308.55 357.8,-308.29 357.8,-308.29 357.8,-308.29 362.79,-308.55 358.04,-303.79 367.79,-308.81 367.79,-308.81"/>
<text text-anchor="middle" x="199" y="-315.97" font-family="Helvetica,Arial,sans-serif" font-size="14.00">Virt::into_mut_ptr&lt;T&gt;()</text>
</g>
<!-- mut_ref -->
<g id="node5" class="node">
<title>mut_ref</title>
<ellipse fill="none" stroke="black" cx="404.69" cy="-365.17" rx="39.79" ry="18"/>
<text text-anchor="middle" x="404.69" y="-361.47" font-family="Helvetica,Arial,sans-serif" font-size="14.00">&amp;mut T</text>
</g>
<!-- Virt&#45;&gt;mut_ref -->
<g id="edge6" class="edge">
<title>Virt&#45;&gt;mut_ref</title>
<path fill="none" stroke="black" d="M69.89,-332.18C112.49,-335.54 200.03,-342.67 274,-350.17 301.23,-352.92 331.63,-356.42 356.14,-359.34"/>
<polygon fill="black" stroke="black" points="366.27,-360.55 355.8,-363.83 361.3,-359.96 356.34,-359.36 356.34,-359.36 356.34,-359.36 361.3,-359.96 356.87,-354.89 366.27,-360.55 366.27,-360.55"/>
<text text-anchor="middle" x="199" y="-353.97" font-family="Helvetica,Arial,sans-serif" font-size="14.00">Virt::into_mut_ref&lt;T&gt;()</text>
</g>
<!-- mut_slice -->
<g id="node6" class="node">
<title>mut_slice</title>
<ellipse fill="none" stroke="black" cx="404.69" cy="-473.17" rx="44.69" ry="18"/>
<text text-anchor="middle" x="404.69" y="-469.47" font-family="Helvetica,Arial,sans-serif" font-size="14.00">&amp;mut [T]</text>
</g>
<!-- Virt&#45;&gt;mut_slice -->
<g id="edge7" class="edge">
<title>Virt&#45;&gt;mut_slice</title>
<path fill="none" stroke="black" d="M51.38,-347.47C62.92,-372.19 87.74,-416.97 124,-438.17 143.09,-449.32 274.65,-462.17 350.35,-468.76"/>
<polygon fill="black" stroke="black" points="360.64,-469.65 350.29,-473.28 355.66,-469.22 350.68,-468.79 350.68,-468.79 350.68,-468.79 355.66,-469.22 351.06,-464.31 360.64,-469.65 360.64,-469.65"/>
<text text-anchor="middle" x="199" y="-464.97" font-family="Helvetica,Arial,sans-serif" font-size="14.00">Virt::into_mut_slice&lt;T&gt;()</text>
</g>
<!-- VirtAddr -->
<g id="node7" class="node">
<title>VirtAddr</title>
<ellipse fill="none" stroke="black" cx="404.69" cy="-527.17" rx="76.89" ry="18"/>
<text text-anchor="middle" x="404.69" y="-523.47" font-family="Helvetica,Arial,sans-serif" font-size="14.00">x86_64::VirtAddr</text>
</g>
<!-- Virt&#45;&gt;VirtAddr -->
<g id="edge8" class="edge">
<title>Virt&#45;&gt;VirtAddr</title>
<path fill="none" stroke="black" d="M47.91,-347.96C56,-380.1 77.78,-447.41 124,-479.17 151.69,-498.19 240.9,-492.38 274,-498.17 296.07,-502.02 320.06,-507.13 341.34,-511.98"/>
<polygon fill="black" stroke="black" points="351.23,-514.26 340.47,-516.4 346.36,-513.13 341.48,-512.01 341.48,-512.01 341.48,-512.01 346.36,-513.13 342.49,-507.63 351.23,-514.26 351.23,-514.26"/>
<text text-anchor="middle" x="199" y="-501.97" font-family="Helvetica,Arial,sans-serif" font-size="14.00">Virt::into()</text>
</g>
<!-- Phys -->
<g id="node8" class="node">
<title>Phys</title>
<ellipse fill="none" stroke="black" cx="404.69" cy="-228.17" rx="30.59" ry="18"/>
<text text-anchor="middle" x="404.69" y="-224.47" font-family="Helvetica,Arial,sans-serif" font-size="14.00">Phys</text>
</g>
<!-- Virt&#45;&gt;Phys -->
<g id="edge19" class="edge">
<title>Virt&#45;&gt;Phys</title>
<path fill="none" stroke="black" d="M62.95,-317.62C78.69,-307.73 101.99,-294.29 124,-286.17 167.94,-269.95 299.31,-246.08 365.17,-234.69"/>
<polygon fill="black" stroke="black" points="375.15,-232.97 366.06,-239.1 370.23,-233.82 365.3,-234.67 365.3,-234.67 365.3,-234.67 370.23,-233.82 364.54,-230.23 375.15,-232.97 375.15,-232.97"/>
<text text-anchor="middle" x="199" y="-289.97" font-family="Helvetica,Arial,sans-serif" font-size="14.00">Mapping::translate()</text>
</g>
<!-- usize -->
<g id="node9" class="node">
<title>usize</title>
<ellipse fill="none" stroke="black" cx="404.69" cy="-84.17" rx="31.4" ry="18"/>
<text text-anchor="middle" x="404.69" y="-80.47" font-family="Helvetica,Arial,sans-serif" font-size="14.00">usize</text>
</g>
<!-- Virt&#45;&gt;usize -->
<g id="edge13" class="edge">
<title>Virt&#45;&gt;usize</title>
<path fill="none" stroke="black" d="M46.53,-312.05C54.69,-256.5 82.25,-90.37 124,-59.17 161.33,-31.27 298.9,-58.98 366.16,-74.81"/>
<polygon fill="black" stroke="black" points="375.94,-77.14 365.17,-79.2 371.08,-75.98 366.22,-74.82 366.22,-74.82 366.22,-74.82 371.08,-75.98 367.26,-70.44 375.94,-77.14 375.94,-77.14"/>
<text text-anchor="middle" x="199" y="-62.97" font-family="Helvetica,Arial,sans-serif" font-size="14.00">Virt::into_usize()</text>
</g>
<!-- u64 -->
<g id="node10" class="node">
<title>u64</title>
<ellipse fill="none" stroke="black" cx="404.69" cy="-156.17" rx="27" ry="18"/>
<text text-anchor="middle" x="404.69" y="-152.47" font-family="Helvetica,Arial,sans-serif" font-size="14.00">u64</text>
</g>
<!-- Virt&#45;&gt;u64 -->
<g id="edge14" class="edge">
<title>Virt&#45;&gt;u64</title>
<path fill="none" stroke="black" d="M45.24,-312.17C49.06,-272.7 64.29,-178.9 124,-139.17 163.12,-113.14 302.45,-136.07 368.49,-148.89"/>
<polygon fill="black" stroke="black" points="378.43,-150.86 367.75,-153.33 373.52,-149.89 368.62,-148.92 368.62,-148.92 368.62,-148.92 373.52,-149.89 369.49,-144.5 378.43,-150.86 378.43,-150.86"/>
<text text-anchor="middle" x="199" y="-142.97" font-family="Helvetica,Arial,sans-serif" font-size="14.00">Virt::into_u64()</text>
</g>
<!-- const_ptr&#45;&gt;Virt -->
<g id="edge1" class="edge">
<title>const_ptr&#45;&gt;Virt</title>
<path fill="none" stroke="black" d="M361.74,-420.17C294.45,-421.21 165.69,-420.71 124,-403.17 99.13,-392.7 77,-371.02 62.36,-354"/>
<polygon fill="black" stroke="black" points="55.79,-346.08 65.64,-350.91 58.98,-349.93 62.18,-353.78 62.18,-353.78 62.18,-353.78 58.98,-349.93 58.71,-356.65 55.79,-346.08 55.79,-346.08"/>
<text text-anchor="middle" x="199" y="-422.97" font-family="Helvetica,Arial,sans-serif" font-size="14.00">Virt::from_ptr&lt;T&gt;()</text>
</g>
<!-- const_ref -->
<g id="node4" class="node">
<title>const_ref</title>
<ellipse fill="none" stroke="black" cx="404.69" cy="-581.17" rx="27" ry="18"/>
<text text-anchor="middle" x="404.69" y="-577.47" font-family="Helvetica,Arial,sans-serif" font-size="14.00">&amp;T</text>
</g>
<!-- const_ref&#45;&gt;Virt -->
<g id="edge2" class="edge">
<title>const_ref&#45;&gt;Virt</title>
<path fill="none" stroke="black" d="M378.86,-586.78C325.84,-597.22 200.19,-613.54 124,-554.17 62.53,-506.26 48.21,-407.25 44.94,-358.52"/>
<polygon fill="black" stroke="black" points="44.36,-348.37 49.42,-358.1 44.65,-353.36 44.93,-358.35 44.93,-358.35 44.93,-358.35 44.65,-353.36 40.43,-358.61 44.36,-348.37 44.36,-348.37"/>
<text text-anchor="middle" x="199" y="-599.97" font-family="Helvetica,Arial,sans-serif" font-size="14.00">Virt::from_ref&lt;T&gt;()</text>
</g>
<!-- VirtAddr&#45;&gt;Virt -->
<g id="edge3" class="edge">
<title>VirtAddr&#45;&gt;Virt</title>
<path fill="none" stroke="black" d="M332.05,-533.07C260.48,-537.51 156.56,-539.5 124,-517.17 70.71,-480.62 52.73,-400.77 46.81,-358.2"/>
<polygon fill="black" stroke="black" points="45.55,-348.23 51.26,-357.59 46.17,-353.19 46.8,-358.15 46.8,-358.15 46.8,-358.15 46.17,-353.19 42.34,-358.72 45.55,-348.23 45.55,-348.23"/>
<text text-anchor="middle" x="199" y="-538.97" font-family="Helvetica,Arial,sans-serif" font-size="14.00">Virt::from()</text>
</g>
<!-- Phys&#45;&gt;Virt -->
<g id="edge20" class="edge">
<title>Phys&#45;&gt;Virt</title>
<path fill="none" stroke="black" d="M376.14,-221.27C323.9,-209.72 208.17,-191.48 124,-232.17 92.93,-247.19 69.86,-280.69 56.67,-304.33"/>
<polygon fill="black" stroke="black" points="51.95,-313.16 52.7,-302.22 54.31,-308.75 56.67,-304.34 56.67,-304.34 56.67,-304.34 54.31,-308.75 60.64,-306.46 51.95,-313.16 51.95,-313.16"/>
<text text-anchor="middle" x="199" y="-235.97" font-family="Helvetica,Arial,sans-serif" font-size="14.00">phys2virt_map()</text>
</g>
<!-- Phys&#45;&gt;usize -->
<g id="edge17" class="edge">
<title>Phys&#45;&gt;usize</title>
<path fill="none" stroke="black" d="M375.78,-234.01C326.32,-242.12 226.05,-249.95 177,-192.67 121.2,-127.49 284.23,-98.52 363.78,-88.52"/>
<polygon fill="black" stroke="black" points="373.96,-87.28 364.57,-92.95 369,-87.88 364.03,-88.49 364.03,-88.49 364.03,-88.49 369,-87.88 363.49,-84.02 373.96,-87.28 373.96,-87.28"/>
<text text-anchor="middle" x="199" y="-181.47" font-family="Helvetica,Arial,sans-serif" font-size="14.00">Phys::into_usize()</text>
</g>
<!-- Phys&#45;&gt;u64 -->
<g id="edge18" class="edge">
<title>Phys&#45;&gt;u64</title>
<path fill="none" stroke="black" d="M404.69,-209.75C404.69,-202.11 404.69,-193.06 404.69,-184.59"/>
<polygon fill="black" stroke="black" points="404.69,-174.34 409.19,-184.34 404.69,-179.34 404.69,-184.34 404.69,-184.34 404.69,-184.34 404.69,-179.34 400.19,-184.34 404.69,-174.34 404.69,-174.34"/>
<text text-anchor="middle" x="394.19" y="-188.47" font-family="Helvetica,Arial,sans-serif" font-size="14.00">Phys::into_u64()</text>
</g>
<!-- usize&#45;&gt;Virt -->
<g id="edge11" class="edge">
<title>usize&#45;&gt;Virt</title>
<path fill="none" stroke="black" d="M384.05,-70.32C334.82,-37.48 204.38,37.9 124,-24.17 79.65,-58.41 55.17,-232.53 47.06,-301.74"/>
<polygon fill="black" stroke="black" points="45.9,-311.91 42.57,-301.46 46.47,-306.94 47.04,-301.97 47.04,-301.97 47.04,-301.97 46.47,-306.94 51.51,-302.49 45.9,-311.91 45.9,-311.91"/>
<text text-anchor="middle" x="199" y="-27.97" font-family="Helvetica,Arial,sans-serif" font-size="14.00">Virt::new()</text>
</g>
<!-- usize&#45;&gt;Phys -->
<g id="edge15" class="edge">
<title>usize&#45;&gt;Phys</title>
<path fill="none" stroke="black" d="M373.62,-85.91C304.23,-90.97 146.43,-109.57 195,-172.67 234.38,-223.82 315.04,-231.35 364.05,-230.75"/>
<polygon fill="black" stroke="black" points="374.29,-230.5 364.41,-235.24 369.29,-230.62 364.3,-230.74 364.3,-230.74 364.3,-230.74 369.29,-230.62 364.18,-226.24 374.29,-230.5 374.29,-230.5"/>
<text text-anchor="middle" x="199" y="-161.47" font-family="Helvetica,Arial,sans-serif" font-size="14.00">Phys::new()</text>
</g>
<!-- usize&#45;&gt;u64 -->
<g id="edge9" class="edge">
<title>usize&#45;&gt;u64</title>
<path fill="none" stroke="black" d="M404.69,-102.34C404.69,-110.04 404.69,-119.19 404.69,-127.75"/>
<polygon fill="black" stroke="black" points="404.69,-137.75 400.19,-127.75 404.69,-132.75 404.69,-127.75 404.69,-127.75 404.69,-127.75 404.69,-132.75 409.19,-127.75 404.69,-137.75 404.69,-137.75"/>
<text text-anchor="middle" x="415.19" y="-116.47" font-family="Helvetica,Arial,sans-serif" font-size="14.00">ku::memory::size::into_u64()</text>
</g>
<!-- u64&#45;&gt;Virt -->
<g id="edge12" class="edge">
<title>u64&#45;&gt;Virt</title>
<path fill="none" stroke="black" d="M385.02,-143.61C336.95,-112.99 206.94,-41.2 124,-100.17 58.35,-146.84 46.11,-251.43 44.14,-301.88"/>
<polygon fill="black" stroke="black" points="43.86,-312.07 39.64,-301.95 43.99,-307.07 44.13,-302.07 44.13,-302.07 44.13,-302.07 43.99,-307.07 48.63,-302.2 43.86,-312.07 43.86,-312.07"/>
<text text-anchor="middle" x="199" y="-103.97" font-family="Helvetica,Arial,sans-serif" font-size="14.00">Virt::new_u64()</text>
</g>
<!-- u64&#45;&gt;Phys -->
<g id="edge16" class="edge">
<title>u64&#45;&gt;Phys</title>
<path fill="none" stroke="black" d="M404.69,-174.34C404.69,-182.04 404.69,-191.19 404.69,-199.75"/>
<polygon fill="black" stroke="black" points="404.69,-209.75 400.19,-199.75 404.69,-204.75 404.69,-199.75 404.69,-199.75 404.69,-199.75 404.69,-204.75 409.19,-199.75 404.69,-209.75 404.69,-209.75"/>
<text text-anchor="middle" x="394.19" y="-188.47" font-family="Helvetica,Arial,sans-serif" font-size="14.00">Phys::new_u64()</text>
</g>
<!-- u64&#45;&gt;usize -->
<g id="edge10" class="edge">
<title>u64&#45;&gt;usize</title>
<path fill="none" stroke="black" d="M404.69,-137.75C404.69,-130.11 404.69,-121.06 404.69,-112.59"/>
<polygon fill="black" stroke="black" points="404.69,-102.34 409.19,-112.34 404.69,-107.34 404.69,-112.34 404.69,-112.34 404.69,-112.34 404.69,-107.34 400.19,-112.34 404.69,-102.34 404.69,-102.34"/>
<text text-anchor="middle" x="394.19" y="-116.47" font-family="Helvetica,Arial,sans-serif" font-size="14.00">ku::memory::size::into_usize()</text>
</g>
</g>
</svg>
