<?xml version="1.0" encoding="UTF-8" standalone="no"?>
<?xml-stylesheet href="lab.css" type="text/css"?>
<!DOCTYPE svg PUBLIC "-//W3C//DTD SVG 1.1//EN"
 "http://www.w3.org/Graphics/SVG/1.1/DTD/svg11.dtd">
<!-- Generated by graphviz version 2.43.0 (0)
 -->
<!-- Title: translate Pages: 1 -->
<svg width="1192pt" height="1063pt"
 viewBox="0.00 0.00 1191.51 1063.00" xmlns="http://www.w3.org/2000/svg" xmlns:xlink="http://www.w3.org/1999/xlink">
<g id="graph0" class="graph" transform="scale(1 1) rotate(0) translate(4 1059)">
<title>translate</title>
<polygon fill="white" stroke="transparent" points="-4,4 -4,-1059 1187.51,-1059 1187.51,4 -4,4"/>
<g id="clust6" class="cluster">
<title>cluster_phys_memory</title>
<polygon fill="none" stroke="black" points="311.51,-8 311.51,-239 1175.51,-239 1175.51,-8 311.51,-8"/>
<text text-anchor="middle" x="743.51" y="-223.8" font-family="Helvetica,Arial,sans-serif" font-size="14.00">Физическая память</text>
</g>
<!-- virt -->
<g id="node1" class="node">
<title>virt</title>
<text text-anchor="start" x="349.01" y="-1032.8" font-family="Helvetica,Arial,sans-serif" font-size="14.00">Битовое представление виртуального адреса (Virt)</text>
<polygon fill="none" stroke="black" points="29.51,-994 29.51,-1021 234.51,-1021 234.51,-994 29.51,-994"/>
<text text-anchor="start" x="35.51" y="-1003.8" font-family="Helvetica,Arial,sans-serif" font-size="14.00"> 16 бит знаковое расширение </text>
<polygon fill="#e8dff5" stroke="transparent" points="234.51,-994 234.51,-1021 365.51,-1021 365.51,-994 234.51,-994"/>
<polygon fill="none" stroke="black" points="234.51,-994 234.51,-1021 365.51,-1021 365.51,-994 234.51,-994"/>
<text text-anchor="start" x="240.51" y="-1003.8" font-family="Helvetica,Arial,sans-serif" font-size="14.00"> 9 бит индекс в L3 </text>
<polygon fill="#fce1e4" stroke="transparent" points="365.51,-994 365.51,-1021 496.51,-1021 496.51,-994 365.51,-994"/>
<polygon fill="none" stroke="black" points="365.51,-994 365.51,-1021 496.51,-1021 496.51,-994 365.51,-994"/>
<text text-anchor="start" x="371.51" y="-1003.8" font-family="Helvetica,Arial,sans-serif" font-size="14.00"> 9 бит индекс в L2 </text>
<polygon fill="#fcf4dd" stroke="transparent" points="496.51,-994 496.51,-1021 627.51,-1021 627.51,-994 496.51,-994"/>
<polygon fill="none" stroke="black" points="496.51,-994 496.51,-1021 627.51,-1021 627.51,-994 496.51,-994"/>
<text text-anchor="start" x="502.51" y="-1003.8" font-family="Helvetica,Arial,sans-serif" font-size="14.00"> 9 бит индекс в L1 </text>
<polygon fill="#ddfdea" stroke="transparent" points="627.51,-994 627.51,-1021 758.51,-1021 758.51,-994 627.51,-994"/>
<polygon fill="none" stroke="black" points="627.51,-994 627.51,-1021 758.51,-1021 758.51,-994 627.51,-994"/>
<text text-anchor="start" x="633.51" y="-1003.8" font-family="Helvetica,Arial,sans-serif" font-size="14.00"> 9 бит индекс в L0 </text>
<polygon fill="#cadaf6" stroke="transparent" points="758.51,-994 758.51,-1021 991.51,-1021 991.51,-994 758.51,-994"/>
<polygon fill="none" stroke="black" points="758.51,-994 758.51,-1021 991.51,-1021 991.51,-994 758.51,-994"/>
<text text-anchor="start" x="764.51" y="-1003.8" font-family="Helvetica,Arial,sans-serif" font-size="14.00"> 12 бит смещение внутри фрейма </text>
<polygon fill="none" stroke="black" points="22.51,-987 22.51,-1051 1002.51,-1051 1002.51,-987 22.51,-987"/>
</g>
<!-- l3 -->
<g id="node2" class="node">
<title>l3</title>
<text text-anchor="start" x="37.51" y="-707.8" font-family="Helvetica,Arial,sans-serif" font-size="14.00">Root L3 PageTable</text>
<text text-anchor="start" x="36.51" y="-678.8" font-family="Helvetica,Arial,sans-serif" font-size="14.00">0</text>
<text text-anchor="start" x="40.51" y="-597.3" font-family="Helvetica,Arial,sans-serif" font-size="14.00"> </text>
<text text-anchor="start" x="21.51" y="-516.3" font-family="Helvetica,Arial,sans-serif" font-size="14.00">511</text>
<polygon fill="none" stroke="black" points="54.51,-669 54.51,-696 171.51,-696 171.51,-669 54.51,-669"/>
<text text-anchor="start" x="60.51" y="-678.8" font-family="Helvetica,Arial,sans-serif" font-size="14.00"> PageTableEntry </text>
<polygon fill="none" stroke="black" points="54.51,-642 54.51,-669 171.51,-669 171.51,-642 54.51,-642"/>
<text text-anchor="start" x="107.01" y="-651.8" font-family="Helvetica,Arial,sans-serif" font-size="14.00">...</text>
<polygon fill="none" stroke="black" points="54.51,-615 54.51,-642 171.51,-642 171.51,-615 54.51,-615"/>
<text text-anchor="start" x="107.01" y="-624.8" font-family="Helvetica,Arial,sans-serif" font-size="14.00">...</text>
<polygon fill="#e8dff5" stroke="transparent" points="54.51,-588 54.51,-615 171.51,-615 171.51,-588 54.51,-588"/>
<polygon fill="none" stroke="black" points="54.51,-588 54.51,-615 171.51,-615 171.51,-588 54.51,-588"/>
<text text-anchor="start" x="60.51" y="-597.8" font-family="Helvetica,Arial,sans-serif" font-size="14.00"> PageTableEntry </text>
<polygon fill="none" stroke="black" points="54.51,-561 54.51,-588 171.51,-588 171.51,-561 54.51,-561"/>
<text text-anchor="start" x="107.01" y="-570.8" font-family="Helvetica,Arial,sans-serif" font-size="14.00">...</text>
<polygon fill="none" stroke="black" points="54.51,-534 54.51,-561 171.51,-561 171.51,-534 54.51,-534"/>
<text text-anchor="start" x="107.01" y="-543.8" font-family="Helvetica,Arial,sans-serif" font-size="14.00">...</text>
<polygon fill="none" stroke="black" points="54.51,-507 54.51,-534 171.51,-534 171.51,-507 54.51,-507"/>
<text text-anchor="start" x="60.51" y="-516.8" font-family="Helvetica,Arial,sans-serif" font-size="14.00"> PageTableEntry </text>
<polygon fill="none" stroke="black" points="12.51,-500 12.51,-726 178.51,-726 178.51,-500 12.51,-500"/>
</g>
<!-- virt&#45;&gt;l3 -->
<g id="edge10" class="edge">
<title>virt:s&#45;&gt;l3:w</title>
<path fill="none" stroke="black" stroke-dasharray="1,5" d="M299.51,-993C299.51,-897.71 175.3,-952.96 120.51,-875 48.74,-772.87 -70.31,-602 54.51,-602"/>
</g>
<!-- l2 -->
<g id="node3" class="node">
<title>l2</title>
<text text-anchor="start" x="307.51" y="-707.8" font-family="Helvetica,Arial,sans-serif" font-size="14.00">L2 PageTable</text>
<text text-anchor="start" x="290.51" y="-678.8" font-family="Helvetica,Arial,sans-serif" font-size="14.00">0</text>
<text text-anchor="start" x="294.51" y="-597.3" font-family="Helvetica,Arial,sans-serif" font-size="14.00"> </text>
<text text-anchor="start" x="275.51" y="-516.3" font-family="Helvetica,Arial,sans-serif" font-size="14.00">511</text>
<polygon fill="none" stroke="black" points="308.51,-669 308.51,-696 425.51,-696 425.51,-669 308.51,-669"/>
<text text-anchor="start" x="314.51" y="-678.8" font-family="Helvetica,Arial,sans-serif" font-size="14.00"> PageTableEntry </text>
<polygon fill="none" stroke="black" points="308.51,-642 308.51,-669 425.51,-669 425.51,-642 308.51,-642"/>
<text text-anchor="start" x="361.01" y="-651.8" font-family="Helvetica,Arial,sans-serif" font-size="14.00">...</text>
<polygon fill="#fce1e4" stroke="transparent" points="308.51,-615 308.51,-642 425.51,-642 425.51,-615 308.51,-615"/>
<polygon fill="none" stroke="black" points="308.51,-615 308.51,-642 425.51,-642 425.51,-615 308.51,-615"/>
<text text-anchor="start" x="314.51" y="-624.8" font-family="Helvetica,Arial,sans-serif" font-size="14.00"> PageTableEntry </text>
<polygon fill="none" stroke="black" points="308.51,-588 308.51,-615 425.51,-615 425.51,-588 308.51,-588"/>
<text text-anchor="start" x="361.01" y="-597.8" font-family="Helvetica,Arial,sans-serif" font-size="14.00">...</text>
<polygon fill="none" stroke="black" points="308.51,-561 308.51,-588 425.51,-588 425.51,-561 308.51,-561"/>
<text text-anchor="start" x="361.01" y="-570.8" font-family="Helvetica,Arial,sans-serif" font-size="14.00">...</text>
<polygon fill="none" stroke="black" points="308.51,-534 308.51,-561 425.51,-561 425.51,-534 308.51,-534"/>
<text text-anchor="start" x="361.01" y="-543.8" font-family="Helvetica,Arial,sans-serif" font-size="14.00">...</text>
<polygon fill="none" stroke="black" points="308.51,-507 308.51,-534 425.51,-534 425.51,-507 308.51,-507"/>
<text text-anchor="start" x="314.51" y="-516.8" font-family="Helvetica,Arial,sans-serif" font-size="14.00"> PageTableEntry </text>
<polygon fill="none" stroke="black" points="266.51,-500 266.51,-726 432.51,-726 432.51,-500 266.51,-500"/>
</g>
<!-- virt&#45;&gt;l2 -->
<g id="edge11" class="edge">
<title>virt:s&#45;&gt;l2:w</title>
<path fill="none" stroke="black" stroke-dasharray="1,5" d="M430.51,-993C430.51,-822.8 138.31,-630 308.51,-630"/>
</g>
<!-- l1 -->
<g id="node4" class="node">
<title>l1</title>
<text text-anchor="start" x="561.51" y="-707.8" font-family="Helvetica,Arial,sans-serif" font-size="14.00">L1 PageTable</text>
<text text-anchor="start" x="544.51" y="-678.8" font-family="Helvetica,Arial,sans-serif" font-size="14.00">0</text>
<text text-anchor="start" x="548.51" y="-597.3" font-family="Helvetica,Arial,sans-serif" font-size="14.00"> </text>
<text text-anchor="start" x="529.51" y="-516.3" font-family="Helvetica,Arial,sans-serif" font-size="14.00">511</text>
<polygon fill="none" stroke="black" points="562.51,-669 562.51,-696 679.51,-696 679.51,-669 562.51,-669"/>
<text text-anchor="start" x="568.51" y="-678.8" font-family="Helvetica,Arial,sans-serif" font-size="14.00"> PageTableEntry </text>
<polygon fill="none" stroke="black" points="562.51,-642 562.51,-669 679.51,-669 679.51,-642 562.51,-642"/>
<text text-anchor="start" x="615.01" y="-651.8" font-family="Helvetica,Arial,sans-serif" font-size="14.00">...</text>
<polygon fill="none" stroke="black" points="562.51,-615 562.51,-642 679.51,-642 679.51,-615 562.51,-615"/>
<text text-anchor="start" x="615.01" y="-624.8" font-family="Helvetica,Arial,sans-serif" font-size="14.00">...</text>
<polygon fill="none" stroke="black" points="562.51,-588 562.51,-615 679.51,-615 679.51,-588 562.51,-588"/>
<text text-anchor="start" x="615.01" y="-597.8" font-family="Helvetica,Arial,sans-serif" font-size="14.00">...</text>
<polygon fill="#fcf4dd" stroke="transparent" points="562.51,-561 562.51,-588 679.51,-588 679.51,-561 562.51,-561"/>
<polygon fill="none" stroke="black" points="562.51,-561 562.51,-588 679.51,-588 679.51,-561 562.51,-561"/>
<text text-anchor="start" x="568.51" y="-570.8" font-family="Helvetica,Arial,sans-serif" font-size="14.00"> PageTableEntry </text>
<polygon fill="none" stroke="black" points="562.51,-534 562.51,-561 679.51,-561 679.51,-534 562.51,-534"/>
<text text-anchor="start" x="615.01" y="-543.8" font-family="Helvetica,Arial,sans-serif" font-size="14.00">...</text>
<polygon fill="none" stroke="black" points="562.51,-507 562.51,-534 679.51,-534 679.51,-507 562.51,-507"/>
<text text-anchor="start" x="568.51" y="-516.8" font-family="Helvetica,Arial,sans-serif" font-size="14.00"> PageTableEntry </text>
<polygon fill="none" stroke="black" points="520.51,-500 520.51,-726 686.51,-726 686.51,-500 520.51,-500"/>
</g>
<!-- virt&#45;&gt;l1 -->
<g id="edge12" class="edge">
<title>virt:s&#45;&gt;l1:w</title>
<path fill="none" stroke="black" stroke-dasharray="1,5" d="M562.51,-993C562.51,-807.22 376.74,-575 562.51,-575"/>
</g>
<!-- l0 -->
<g id="node5" class="node">
<title>l0</title>
<text text-anchor="start" x="800.51" y="-707.8" font-family="Helvetica,Arial,sans-serif" font-size="14.00">Leaf L0 PageTable</text>
<text text-anchor="start" x="798.51" y="-678.8" font-family="Helvetica,Arial,sans-serif" font-size="14.00">0</text>
<text text-anchor="start" x="802.51" y="-597.3" font-family="Helvetica,Arial,sans-serif" font-size="14.00"> </text>
<text text-anchor="start" x="783.51" y="-516.3" font-family="Helvetica,Arial,sans-serif" font-size="14.00">511</text>
<polygon fill="none" stroke="black" points="816.51,-669 816.51,-696 933.51,-696 933.51,-669 816.51,-669"/>
<text text-anchor="start" x="822.51" y="-678.8" font-family="Helvetica,Arial,sans-serif" font-size="14.00"> PageTableEntry </text>
<polygon fill="none" stroke="black" points="816.51,-642 816.51,-669 933.51,-669 933.51,-642 816.51,-642"/>
<text text-anchor="start" x="869.01" y="-651.8" font-family="Helvetica,Arial,sans-serif" font-size="14.00">...</text>
<polygon fill="none" stroke="black" points="816.51,-615 816.51,-642 933.51,-642 933.51,-615 816.51,-615"/>
<text text-anchor="start" x="869.01" y="-624.8" font-family="Helvetica,Arial,sans-serif" font-size="14.00">...</text>
<polygon fill="#ddfdea" stroke="transparent" points="816.51,-588 816.51,-615 933.51,-615 933.51,-588 816.51,-588"/>
<polygon fill="none" stroke="black" points="816.51,-588 816.51,-615 933.51,-615 933.51,-588 816.51,-588"/>
<text text-anchor="start" x="822.51" y="-597.8" font-family="Helvetica,Arial,sans-serif" font-size="14.00"> PageTableEntry </text>
<polygon fill="none" stroke="black" points="816.51,-561 816.51,-588 933.51,-588 933.51,-561 816.51,-561"/>
<text text-anchor="start" x="869.01" y="-570.8" font-family="Helvetica,Arial,sans-serif" font-size="14.00">...</text>
<polygon fill="none" stroke="black" points="816.51,-534 816.51,-561 933.51,-561 933.51,-534 816.51,-534"/>
<text text-anchor="start" x="869.01" y="-543.8" font-family="Helvetica,Arial,sans-serif" font-size="14.00">...</text>
<polygon fill="none" stroke="black" points="816.51,-507 816.51,-534 933.51,-534 933.51,-507 816.51,-507"/>
<text text-anchor="start" x="822.51" y="-516.8" font-family="Helvetica,Arial,sans-serif" font-size="14.00"> PageTableEntry </text>
<polygon fill="none" stroke="black" points="774.51,-500 774.51,-726 940.51,-726 940.51,-500 774.51,-500"/>
</g>
<!-- virt&#45;&gt;l0 -->
<g id="edge13" class="edge">
<title>virt:s&#45;&gt;l0:w</title>
<path fill="none" stroke="black" stroke-dasharray="1,5" d="M693.51,-993C693.51,-947.46 770.97,-602 816.51,-602"/>
</g>
<!-- frame -->
<g id="node7" class="node">
<title>frame</title>
<text text-anchor="start" x="837.51" y="-185.8" font-family="Helvetica,Arial,sans-serif" font-size="14.00">Фрейм</text>
<text text-anchor="start" x="857.51" y="-159.8" font-family="Helvetica,Arial,sans-serif" font-size="14.00">0</text>
<text text-anchor="start" x="861.51" y="-138.8" font-family="Helvetica,Arial,sans-serif" font-size="14.00"> </text>
<text text-anchor="start" x="861.51" y="-117.8" font-family="Helvetica,Arial,sans-serif" font-size="14.00"> </text>
<text text-anchor="start" x="861.51" y="-96.8" font-family="Helvetica,Arial,sans-serif" font-size="14.00"> </text>
<text text-anchor="start" x="861.51" y="-75.8" font-family="Helvetica,Arial,sans-serif" font-size="14.00"> </text>
<text text-anchor="start" x="861.51" y="-54.8" font-family="Helvetica,Arial,sans-serif" font-size="14.00"> </text>
<text text-anchor="start" x="834.51" y="-33.8" font-family="Helvetica,Arial,sans-serif" font-size="14.00">4095</text>
<polygon fill="none" stroke="black" points="875.51,-153 875.51,-174 885.51,-174 885.51,-153 875.51,-153"/>
<text text-anchor="start" x="878.51" y="-159.8" font-family="Helvetica,Arial,sans-serif" font-size="14.00"> </text>
<polygon fill="none" stroke="black" points="875.51,-132 875.51,-153 885.51,-153 885.51,-132 875.51,-132"/>
<text text-anchor="start" x="878.51" y="-138.8" font-family="Helvetica,Arial,sans-serif" font-size="14.00"> </text>
<polygon fill="none" stroke="black" points="875.51,-111 875.51,-132 885.51,-132 885.51,-111 875.51,-111"/>
<text text-anchor="start" x="878.51" y="-117.8" font-family="Helvetica,Arial,sans-serif" font-size="14.00"> </text>
<polygon fill="none" stroke="black" points="875.51,-90 875.51,-111 885.51,-111 885.51,-90 875.51,-90"/>
<text text-anchor="start" x="878.51" y="-96.8" font-family="Helvetica,Arial,sans-serif" font-size="14.00"> </text>
<polygon fill="#cadaf6" stroke="transparent" points="875.51,-69 875.51,-90 885.51,-90 885.51,-69 875.51,-69"/>
<polygon fill="none" stroke="black" points="875.51,-69 875.51,-90 885.51,-90 885.51,-69 875.51,-69"/>
<text text-anchor="start" x="878.51" y="-75.8" font-family="Helvetica,Arial,sans-serif" font-size="14.00"> </text>
<polygon fill="none" stroke="black" points="875.51,-48 875.51,-69 885.51,-69 885.51,-48 875.51,-48"/>
<text text-anchor="start" x="878.51" y="-54.8" font-family="Helvetica,Arial,sans-serif" font-size="14.00"> </text>
<polygon fill="none" stroke="black" points="875.51,-27 875.51,-48 885.51,-48 885.51,-27 875.51,-27"/>
<text text-anchor="start" x="878.51" y="-33.8" font-family="Helvetica,Arial,sans-serif" font-size="14.00"> </text>
<polygon fill="none" stroke="black" points="825.01,-20 825.01,-204 892.01,-204 892.01,-20 825.01,-20"/>
</g>
<!-- virt&#45;&gt;frame -->
<g id="edge14" class="edge">
<title>virt:s&#45;&gt;frame:e</title>
<path fill="none" stroke="black" stroke-dasharray="1,5" d="M875.51,-993C875.51,-843.62 1135.11,-533.6 1168.51,-388 1175.67,-356.81 1186.51,-342.46 1168.51,-316 1116.11,-238.96 1043.29,-300.75 973.51,-239 912.9,-185.36 967.46,-79 886.51,-79"/>
</g>
<!-- CR3 -->
<g id="node11" class="node">
<title>CR3</title>
<polygon fill="none" stroke="black" points="156.51,-838.5 156.51,-874.5 314.51,-874.5 314.51,-838.5 156.51,-838.5"/>
<text text-anchor="middle" x="235.51" y="-852.8" font-family="Helvetica,Arial,sans-serif" font-size="14.00">CR3</text>
</g>
<!-- virt&#45;&gt;CR3 -->
<!-- l3&#45;&gt;l2 -->
<g id="edge3" class="edge">
<title>l3:l3pte&#45;&gt;l2:n</title>
<path fill="none" stroke="black" d="M172.51,-601C241.42,-601 197.94,-697.15 258.51,-730 290.6,-747.4 338.88,-767.15 348,-741.12"/>
<polygon fill="black" stroke="black" points="349.51,-731 352.48,-741.56 348.77,-735.94 348.03,-740.89 348.03,-740.89 348.03,-740.89 348.77,-735.94 343.58,-740.22 349.51,-731 349.51,-731"/>
</g>
<!-- l2&#45;&gt;l1 -->
<g id="edge4" class="edge">
<title>l2:l2pte&#45;&gt;l1:n</title>
<path fill="none" stroke="black" d="M426.51,-629C485.47,-629 459.13,-704.98 512.51,-730 545.56,-745.49 593.06,-766.77 602.03,-741.06"/>
<polygon fill="black" stroke="black" points="603.51,-731 606.5,-741.55 602.78,-735.95 602.05,-740.89 602.05,-740.89 602.05,-740.89 602.78,-735.95 597.6,-740.23 603.51,-731 603.51,-731"/>
</g>
<!-- l1&#45;&gt;l0 -->
<g id="edge5" class="edge">
<title>l1:l1pte&#45;&gt;l0:n</title>
<path fill="none" stroke="black" d="M680.51,-574C759.69,-574 698.57,-689.36 766.51,-730 797.84,-748.73 846.73,-767.41 855.98,-741.16"/>
<polygon fill="black" stroke="black" points="857.51,-731 860.47,-741.56 856.77,-735.94 856.02,-740.89 856.02,-740.89 856.02,-740.89 856.77,-735.94 851.57,-740.21 857.51,-731 857.51,-731"/>
</g>
<!-- phys -->
<g id="node10" class="node">
<title>phys</title>
<text text-anchor="start" x="679.01" y="-365.8" font-family="Helvetica,Arial,sans-serif" font-size="14.00">Битовое представление целевого физического адреса (Phys)</text>
<polygon fill="none" stroke="black" points="633.51,-327 633.51,-354 752.51,-354 752.51,-327 633.51,-327"/>
<text text-anchor="start" x="639.51" y="-336.8" font-family="Helvetica,Arial,sans-serif" font-size="14.00"> 12 нулевых бит </text>
<polygon fill="none" stroke="black" points="752.51,-327 752.51,-354 880.51,-354 880.51,-327 752.51,-327"/>
<text text-anchor="start" x="758.51" y="-336.8" font-family="Helvetica,Arial,sans-serif" font-size="14.00"> 40 значимых бит </text>
<polygon fill="#cadaf6" stroke="transparent" points="880.51,-327 880.51,-354 1113.51,-354 1113.51,-327 880.51,-327"/>
<polygon fill="none" stroke="black" points="880.51,-327 880.51,-354 1113.51,-354 1113.51,-327 880.51,-327"/>
<text text-anchor="start" x="886.51" y="-336.8" font-family="Helvetica,Arial,sans-serif" font-size="14.00"> 12 бит смещение внутри фрейма </text>
<polygon fill="none" stroke="black" points="626.51,-320 626.51,-384 1124.51,-384 1124.51,-320 626.51,-320"/>
</g>
<!-- l0&#45;&gt;phys -->
<g id="edge6" class="edge">
<title>l0:l0pte&#45;&gt;phys:n</title>
<path fill="none" stroke="black" d="M934.51,-601C981.18,-601 949.56,-539.82 933.51,-496 905.51,-419.54 816.51,-436.43 816.51,-355"/>
</g>
<!-- l0&#45;&gt;phys -->
<!-- frame1 -->
<g id="node6" class="node">
<title>frame1</title>
<text text-anchor="start" x="1067.51" y="-185.8" font-family="Helvetica,Arial,sans-serif" font-size="14.00">Фрейм</text>
<text text-anchor="start" x="1087.51" y="-159.8" font-family="Helvetica,Arial,sans-serif" font-size="14.00">0</text>
<text text-anchor="start" x="1091.51" y="-138.8" font-family="Helvetica,Arial,sans-serif" font-size="14.00"> </text>
<text text-anchor="start" x="1091.51" y="-117.8" font-family="Helvetica,Arial,sans-serif" font-size="14.00"> </text>
<text text-anchor="start" x="1091.51" y="-96.8" font-family="Helvetica,Arial,sans-serif" font-size="14.00"> </text>
<text text-anchor="start" x="1091.51" y="-75.8" font-family="Helvetica,Arial,sans-serif" font-size="14.00"> </text>
<text text-anchor="start" x="1091.51" y="-54.8" font-family="Helvetica,Arial,sans-serif" font-size="14.00"> </text>
<text text-anchor="start" x="1064.51" y="-33.8" font-family="Helvetica,Arial,sans-serif" font-size="14.00">4095</text>
<polygon fill="none" stroke="black" points="1105.51,-153 1105.51,-174 1115.51,-174 1115.51,-153 1105.51,-153"/>
<text text-anchor="start" x="1108.51" y="-159.8" font-family="Helvetica,Arial,sans-serif" font-size="14.00"> </text>
<polygon fill="none" stroke="black" points="1105.51,-132 1105.51,-153 1115.51,-153 1115.51,-132 1105.51,-132"/>
<text text-anchor="start" x="1108.51" y="-138.8" font-family="Helvetica,Arial,sans-serif" font-size="14.00"> </text>
<polygon fill="none" stroke="black" points="1105.51,-111 1105.51,-132 1115.51,-132 1115.51,-111 1105.51,-111"/>
<text text-anchor="start" x="1108.51" y="-117.8" font-family="Helvetica,Arial,sans-serif" font-size="14.00"> </text>
<polygon fill="none" stroke="black" points="1105.51,-90 1105.51,-111 1115.51,-111 1115.51,-90 1105.51,-90"/>
<text text-anchor="start" x="1108.51" y="-96.8" font-family="Helvetica,Arial,sans-serif" font-size="14.00"> </text>
<polygon fill="none" stroke="black" points="1105.51,-69 1105.51,-90 1115.51,-90 1115.51,-69 1105.51,-69"/>
<text text-anchor="start" x="1108.51" y="-75.8" font-family="Helvetica,Arial,sans-serif" font-size="14.00"> </text>
<polygon fill="none" stroke="black" points="1105.51,-48 1105.51,-69 1115.51,-69 1115.51,-48 1105.51,-48"/>
<text text-anchor="start" x="1108.51" y="-54.8" font-family="Helvetica,Arial,sans-serif" font-size="14.00"> </text>
<polygon fill="none" stroke="black" points="1105.51,-27 1105.51,-48 1115.51,-48 1115.51,-27 1105.51,-27"/>
<text text-anchor="start" x="1108.51" y="-33.8" font-family="Helvetica,Arial,sans-serif" font-size="14.00"> </text>
<polygon fill="none" stroke="black" points="1055.01,-20 1055.01,-204 1122.01,-204 1122.01,-20 1055.01,-20"/>
</g>
<!-- frame2 -->
<g id="node8" class="node">
<title>frame2</title>
<text text-anchor="start" x="607.51" y="-185.8" font-family="Helvetica,Arial,sans-serif" font-size="14.00">Фрейм</text>
<text text-anchor="start" x="627.51" y="-159.8" font-family="Helvetica,Arial,sans-serif" font-size="14.00">0</text>
<text text-anchor="start" x="631.51" y="-138.8" font-family="Helvetica,Arial,sans-serif" font-size="14.00"> </text>
<text text-anchor="start" x="631.51" y="-117.8" font-family="Helvetica,Arial,sans-serif" font-size="14.00"> </text>
<text text-anchor="start" x="631.51" y="-96.8" font-family="Helvetica,Arial,sans-serif" font-size="14.00"> </text>
<text text-anchor="start" x="631.51" y="-75.8" font-family="Helvetica,Arial,sans-serif" font-size="14.00"> </text>
<text text-anchor="start" x="631.51" y="-54.8" font-family="Helvetica,Arial,sans-serif" font-size="14.00"> </text>
<text text-anchor="start" x="604.51" y="-33.8" font-family="Helvetica,Arial,sans-serif" font-size="14.00">4095</text>
<polygon fill="none" stroke="black" points="645.51,-153 645.51,-174 655.51,-174 655.51,-153 645.51,-153"/>
<text text-anchor="start" x="648.51" y="-159.8" font-family="Helvetica,Arial,sans-serif" font-size="14.00"> </text>
<polygon fill="none" stroke="black" points="645.51,-132 645.51,-153 655.51,-153 655.51,-132 645.51,-132"/>
<text text-anchor="start" x="648.51" y="-138.8" font-family="Helvetica,Arial,sans-serif" font-size="14.00"> </text>
<polygon fill="none" stroke="black" points="645.51,-111 645.51,-132 655.51,-132 655.51,-111 645.51,-111"/>
<text text-anchor="start" x="648.51" y="-117.8" font-family="Helvetica,Arial,sans-serif" font-size="14.00"> </text>
<polygon fill="none" stroke="black" points="645.51,-90 645.51,-111 655.51,-111 655.51,-90 645.51,-90"/>
<text text-anchor="start" x="648.51" y="-96.8" font-family="Helvetica,Arial,sans-serif" font-size="14.00"> </text>
<polygon fill="none" stroke="black" points="645.51,-69 645.51,-90 655.51,-90 655.51,-69 645.51,-69"/>
<text text-anchor="start" x="648.51" y="-75.8" font-family="Helvetica,Arial,sans-serif" font-size="14.00"> </text>
<polygon fill="none" stroke="black" points="645.51,-48 645.51,-69 655.51,-69 655.51,-48 645.51,-48"/>
<text text-anchor="start" x="648.51" y="-54.8" font-family="Helvetica,Arial,sans-serif" font-size="14.00"> </text>
<polygon fill="none" stroke="black" points="645.51,-27 645.51,-48 655.51,-48 655.51,-27 645.51,-27"/>
<text text-anchor="start" x="648.51" y="-33.8" font-family="Helvetica,Arial,sans-serif" font-size="14.00"> </text>
<polygon fill="none" stroke="black" points="595.01,-20 595.01,-204 662.01,-204 662.01,-20 595.01,-20"/>
</g>
<!-- frame3 -->
<g id="node9" class="node">
<title>frame3</title>
<text text-anchor="start" x="377.51" y="-185.8" font-family="Helvetica,Arial,sans-serif" font-size="14.00">Фрейм</text>
<text text-anchor="start" x="397.51" y="-159.8" font-family="Helvetica,Arial,sans-serif" font-size="14.00">0</text>
<text text-anchor="start" x="401.51" y="-138.8" font-family="Helvetica,Arial,sans-serif" font-size="14.00"> </text>
<text text-anchor="start" x="401.51" y="-117.8" font-family="Helvetica,Arial,sans-serif" font-size="14.00"> </text>
<text text-anchor="start" x="401.51" y="-96.8" font-family="Helvetica,Arial,sans-serif" font-size="14.00"> </text>
<text text-anchor="start" x="401.51" y="-75.8" font-family="Helvetica,Arial,sans-serif" font-size="14.00"> </text>
<text text-anchor="start" x="401.51" y="-54.8" font-family="Helvetica,Arial,sans-serif" font-size="14.00"> </text>
<text text-anchor="start" x="374.51" y="-33.8" font-family="Helvetica,Arial,sans-serif" font-size="14.00">4095</text>
<polygon fill="none" stroke="black" points="415.51,-153 415.51,-174 425.51,-174 425.51,-153 415.51,-153"/>
<text text-anchor="start" x="418.51" y="-159.8" font-family="Helvetica,Arial,sans-serif" font-size="14.00"> </text>
<polygon fill="none" stroke="black" points="415.51,-132 415.51,-153 425.51,-153 425.51,-132 415.51,-132"/>
<text text-anchor="start" x="418.51" y="-138.8" font-family="Helvetica,Arial,sans-serif" font-size="14.00"> </text>
<polygon fill="none" stroke="black" points="415.51,-111 415.51,-132 425.51,-132 425.51,-111 415.51,-111"/>
<text text-anchor="start" x="418.51" y="-117.8" font-family="Helvetica,Arial,sans-serif" font-size="14.00"> </text>
<polygon fill="none" stroke="black" points="415.51,-90 415.51,-111 425.51,-111 425.51,-90 415.51,-90"/>
<text text-anchor="start" x="418.51" y="-96.8" font-family="Helvetica,Arial,sans-serif" font-size="14.00"> </text>
<polygon fill="none" stroke="black" points="415.51,-69 415.51,-90 425.51,-90 425.51,-69 415.51,-69"/>
<text text-anchor="start" x="418.51" y="-75.8" font-family="Helvetica,Arial,sans-serif" font-size="14.00"> </text>
<polygon fill="none" stroke="black" points="415.51,-48 415.51,-69 425.51,-69 425.51,-48 415.51,-48"/>
<text text-anchor="start" x="418.51" y="-54.8" font-family="Helvetica,Arial,sans-serif" font-size="14.00"> </text>
<polygon fill="none" stroke="black" points="415.51,-27 415.51,-48 425.51,-48 425.51,-27 415.51,-27"/>
<text text-anchor="start" x="418.51" y="-33.8" font-family="Helvetica,Arial,sans-serif" font-size="14.00"> </text>
<polygon fill="none" stroke="black" points="365.01,-20 365.01,-204 432.01,-204 432.01,-20 365.01,-20"/>
</g>
<!-- phys&#45;&gt;frame -->
<g id="edge7" class="edge">
<title>phys:s&#45;&gt;frame:n</title>
<path fill="none" stroke="black" d="M816.51,-326C816.51,-274.31 853.28,-265.29 858.01,-219.1"/>
<polygon fill="black" stroke="black" points="858.51,-209 862.51,-219.21 858.27,-213.99 858.02,-218.99 858.02,-218.99 858.02,-218.99 858.27,-213.99 853.52,-218.76 858.51,-209 858.51,-209"/>
</g>
<!-- phys&#45;&gt;frame -->
<g id="edge9" class="edge">
<title>phys:s&#45;&gt;frame:w</title>
<path fill="none" stroke="black" d="M875.51,-316C875.51,-214.7 777.67,-88.93 865.48,-80.45"/>
<polygon fill="black" stroke="black" points="875.51,-80 865.73,-84.95 870.52,-80.23 865.52,-80.45 865.52,-80.45 865.52,-80.45 870.52,-80.23 865.32,-75.96 875.51,-80 875.51,-80"/>
</g>
<!-- CR3&#45;&gt;l3 -->
<g id="edge2" class="edge">
<title>CR3&#45;&gt;l3:n</title>
<path fill="none" stroke="black" d="M192.37,-838.37C153.88,-820.12 102.64,-787.31 96.19,-739.99"/>
<polygon fill="black" stroke="black" points="95.51,-730 100.68,-739.67 95.85,-734.99 96.19,-739.98 96.19,-739.98 96.19,-739.98 95.85,-734.99 91.7,-740.28 95.51,-730 95.51,-730"/>
</g>
</g>
</svg>
