<?xml version="1.0" encoding="UTF-8" standalone="no"?>
<!DOCTYPE svg PUBLIC "-//W3C//DTD SVG 1.1//EN"
 "http://www.w3.org/Graphics/SVG/1.1/DTD/svg11.dtd">
<!-- Generated by graphviz version 2.40.1 (20161225.0304)
 -->
<!-- Title: virt_to_phys Pages: 1 -->
<svg width="679pt" height="332pt"
 viewBox="0.00 0.00 679.00 332.00" xmlns="http://www.w3.org/2000/svg" xmlns:xlink="http://www.w3.org/1999/xlink">
<g id="graph0" class="graph" transform="scale(1 1) rotate(0) translate(4 328)">
<title>virt_to_phys</title>
<polygon fill="#ffffff" stroke="transparent" points="-4,4 -4,-328 675,-328 675,4 -4,4"/>
<g id="clust1" class="cluster">
<title>cluster_virt_memory</title>
<polygon fill="none" stroke="#000000" points="8,-8 8,-316 325,-316 325,-8 8,-8"/>
<text text-anchor="middle" x="166.5" y="-300.8" font-family="Helvetica,Arial,sans-serif" font-size="14.00" fill="#000000">Виртуальная память</text>
<text text-anchor="middle" x="166.5" y="-285.8" font-family="Helvetica,Arial,sans-serif" font-size="14.00" fill="#000000">&amp;T, *T, Virt, Page</text>
</g>
<g id="clust2" class="cluster">
<title>cluster_phys_memory</title>
<polygon fill="none" stroke="#000000" points="489,-77 489,-316 663,-316 663,-77 489,-77"/>
<text text-anchor="middle" x="576" y="-300.8" font-family="Helvetica,Arial,sans-serif" font-size="14.00" fill="#000000">Физическая память</text>
<text text-anchor="middle" x="576" y="-285.8" font-family="Helvetica,Arial,sans-serif" font-size="14.00" fill="#000000">Phys, Frame</text>
</g>
<!-- virt -->
<g id="node1" class="node">
<title>virt</title>
<polygon fill="none" stroke="#000000" points="16,-16.5 16,-269.5 317,-269.5 317,-16.5 16,-16.5"/>
<text text-anchor="start" x="24" y="-254.3" font-family="Helvetica,Arial,sans-serif" font-size="14.00" fill="#000000">страница_0</text>
<polyline fill="none" stroke="#000000" points="16,-246.5 109,-246.5 "/>
<text text-anchor="start" x="24" y="-231.3" font-family="Helvetica,Arial,sans-serif" font-size="14.00" fill="#000000">страница_1</text>
<polyline fill="none" stroke="#000000" points="16,-223.5 109,-223.5 "/>
<text text-anchor="start" x="24" y="-208.3" font-family="Helvetica,Arial,sans-serif" font-size="14.00" fill="#000000">страница_2</text>
<polyline fill="none" stroke="#000000" points="16,-200.5 109,-200.5 "/>
<text text-anchor="start" x="24" y="-185.3" font-family="Helvetica,Arial,sans-serif" font-size="14.00" fill="#000000">...</text>
<polyline fill="none" stroke="#000000" points="16,-177.5 109,-177.5 "/>
<text text-anchor="start" x="24" y="-162.3" font-family="Helvetica,Arial,sans-serif" font-size="14.00" fill="#000000">...</text>
<polyline fill="none" stroke="#000000" points="16,-154.5 109,-154.5 "/>
<text text-anchor="start" x="24" y="-139.3" font-family="Helvetica,Arial,sans-serif" font-size="14.00" fill="#000000">...</text>
<polyline fill="none" stroke="#000000" points="16,-131.5 109,-131.5 "/>
<text text-anchor="start" x="24" y="-116.3" font-family="Helvetica,Arial,sans-serif" font-size="14.00" fill="#000000">страница_k</text>
<polyline fill="none" stroke="#000000" points="16,-108.5 109,-108.5 "/>
<text text-anchor="start" x="24" y="-93.3" font-family="Helvetica,Arial,sans-serif" font-size="14.00" fill="#000000">...</text>
<polyline fill="none" stroke="#000000" points="16,-85.5 109,-85.5 "/>
<text text-anchor="start" x="24" y="-70.3" font-family="Helvetica,Arial,sans-serif" font-size="14.00" fill="#000000">...</text>
<polyline fill="none" stroke="#000000" points="16,-62.5 109,-62.5 "/>
<text text-anchor="start" x="24" y="-47.3" font-family="Helvetica,Arial,sans-serif" font-size="14.00" fill="#000000">...</text>
<polyline fill="none" stroke="#000000" points="16,-39.5 109,-39.5 "/>
<text text-anchor="start" x="24" y="-24.3" font-family="Helvetica,Arial,sans-serif" font-size="14.00" fill="#000000">страница_N</text>
<polyline fill="none" stroke="#000000" points="109,-16.5 109,-269.5 "/>
<text text-anchor="start" x="117" y="-254.3" font-family="Helvetica,Arial,sans-serif" font-size="14.00" fill="#000000">Present = 0</text>
<polyline fill="none" stroke="#000000" points="109,-246.5 317,-246.5 "/>
<text text-anchor="start" x="117" y="-231.3" font-family="Helvetica,Arial,sans-serif" font-size="14.00" fill="#000000">Present = 1, Write = 1, User = 0</text>
<polyline fill="none" stroke="#000000" points="109,-223.5 317,-223.5 "/>
<text text-anchor="start" x="117" y="-208.3" font-family="Helvetica,Arial,sans-serif" font-size="14.00" fill="#000000">Present = 1, Write = 1, User = 0</text>
<polyline fill="none" stroke="#000000" points="109,-200.5 317,-200.5 "/>
<text text-anchor="middle" x="213" y="-185.3" font-family="Helvetica,Arial,sans-serif" font-size="14.00" fill="#000000"> </text>
<polyline fill="none" stroke="#000000" points="109,-177.5 317,-177.5 "/>
<text text-anchor="middle" x="213" y="-162.3" font-family="Helvetica,Arial,sans-serif" font-size="14.00" fill="#000000"> </text>
<polyline fill="none" stroke="#000000" points="109,-154.5 317,-154.5 "/>
<text text-anchor="middle" x="213" y="-139.3" font-family="Helvetica,Arial,sans-serif" font-size="14.00" fill="#000000"> </text>
<polyline fill="none" stroke="#000000" points="109,-131.5 317,-131.5 "/>
<text text-anchor="start" x="117" y="-116.3" font-family="Helvetica,Arial,sans-serif" font-size="14.00" fill="#000000">Present = 1, Write = 0, User = 1</text>
<polyline fill="none" stroke="#000000" points="109,-108.5 317,-108.5 "/>
<text text-anchor="middle" x="213" y="-93.3" font-family="Helvetica,Arial,sans-serif" font-size="14.00" fill="#000000"> </text>
<polyline fill="none" stroke="#000000" points="109,-85.5 317,-85.5 "/>
<text text-anchor="middle" x="213" y="-70.3" font-family="Helvetica,Arial,sans-serif" font-size="14.00" fill="#000000"> </text>
<polyline fill="none" stroke="#000000" points="109,-62.5 317,-62.5 "/>
<text text-anchor="middle" x="213" y="-47.3" font-family="Helvetica,Arial,sans-serif" font-size="14.00" fill="#000000"> </text>
<polyline fill="none" stroke="#000000" points="109,-39.5 317,-39.5 "/>
<text text-anchor="middle" x="213" y="-24.3" font-family="Helvetica,Arial,sans-serif" font-size="14.00" fill="#000000"> </text>
</g>
<!-- phys -->
<g id="node2" class="node">
<title>phys</title>
<polygon fill="none" stroke="#000000" points="497,-85 497,-269 655,-269 655,-85 497,-85"/>
<text text-anchor="middle" x="576" y="-253.8" font-family="Helvetica,Arial,sans-serif" font-size="14.00" fill="#000000">фрейм_0</text>
<polyline fill="none" stroke="#000000" points="497,-246 655,-246 "/>
<text text-anchor="middle" x="576" y="-230.8" font-family="Helvetica,Arial,sans-serif" font-size="14.00" fill="#000000">фрейм_1</text>
<polyline fill="none" stroke="#000000" points="497,-223 655,-223 "/>
<text text-anchor="middle" x="576" y="-207.8" font-family="Helvetica,Arial,sans-serif" font-size="14.00" fill="#000000">фрейм_2</text>
<polyline fill="none" stroke="#000000" points="497,-200 655,-200 "/>
<text text-anchor="middle" x="576" y="-184.8" font-family="Helvetica,Arial,sans-serif" font-size="14.00" fill="#000000">фрейм_3</text>
<polyline fill="none" stroke="#000000" points="497,-177 655,-177 "/>
<text text-anchor="middle" x="576" y="-161.8" font-family="Helvetica,Arial,sans-serif" font-size="14.00" fill="#000000">...</text>
<polyline fill="none" stroke="#000000" points="497,-154 655,-154 "/>
<text text-anchor="middle" x="576" y="-138.8" font-family="Helvetica,Arial,sans-serif" font-size="14.00" fill="#000000">...</text>
<polyline fill="none" stroke="#000000" points="497,-131 655,-131 "/>
<text text-anchor="middle" x="576" y="-115.8" font-family="Helvetica,Arial,sans-serif" font-size="14.00" fill="#000000">...</text>
<polyline fill="none" stroke="#000000" points="497,-108 655,-108 "/>
<text text-anchor="middle" x="576" y="-92.8" font-family="Helvetica,Arial,sans-serif" font-size="14.00" fill="#000000">фрейм_M</text>
</g>
<!-- virt&#45;&gt;phys -->
<g id="edge1" class="edge">
<title>virt:p1&#45;&gt;phys:fm</title>
<path fill="none" stroke="#000000" d="M317.5,-235C403.8398,-235 407.0286,-149.1237 486.8722,-142.4146"/>
<polygon fill="#000000" stroke="#000000" points="497,-142 487.1925,-146.9054 492.0042,-142.2046 487.0084,-142.4092 487.0084,-142.4092 487.0084,-142.4092 492.0042,-142.2046 486.8243,-137.9129 497,-142 497,-142"/>
</g>
<!-- virt&#45;&gt;phys -->
<g id="edge2" class="edge">
<title>virt:p2&#45;&gt;phys:f1</title>
<path fill="none" stroke="#000000" d="M317.5,-212C394.474,-212 414.854,-233.0659 486.9645,-234.8763"/>
<polygon fill="#000000" stroke="#000000" points="497,-235 486.9452,-239.3763 492.0004,-234.9383 487.0008,-234.8766 487.0008,-234.8766 487.0008,-234.8766 492.0004,-234.9383 487.0563,-230.3769 497,-235 497,-235"/>
<text text-anchor="middle" x="373.5" y="-200.8" font-family="Helvetica,Arial,sans-serif" font-size="14.00" fill="#000000"> &#160;&#160;&#160;запись, ядро &#160;&#160;&#160;</text>
</g>
<!-- virt&#45;&gt;phys -->
<g id="edge3" class="edge">
<title>virt:pk&#45;&gt;phys:f1</title>
<path fill="none" stroke="#000000" d="M317.5,-120C408.7302,-120 402.8512,-226.6232 486.8741,-234.5367"/>
<polygon fill="#000000" stroke="#000000" points="497,-235 486.8047,-239.0381 492.0052,-234.7714 487.0105,-234.5428 487.0105,-234.5428 487.0105,-234.5428 492.0052,-234.7714 487.2162,-230.0475 497,-235 497,-235"/>
<text text-anchor="middle" x="403" y="-108.8" font-family="Helvetica,Arial,sans-serif" font-size="14.00" fill="#000000"> &#160;&#160;&#160;чтение, пользователь &#160;&#160;&#160;</text>
</g>
<!-- virt&#45;&gt;phys -->
</g>
</svg>
