<?xml version="1.0" encoding="UTF-8" standalone="no"?>
<!DOCTYPE svg PUBLIC "-//W3C//DTD SVG 1.1//EN"
 "http://www.w3.org/Graphics/SVG/1.1/DTD/svg11.dtd">
<!-- Generated by graphviz version 2.40.1 (20161225.0304)
 -->
<!-- Title: diagram Pages: 1 -->
<svg width="509pt" height="80pt"
 viewBox="0.00 0.00 509.00 80.00" xmlns="http://www.w3.org/2000/svg" xmlns:xlink="http://www.w3.org/1999/xlink">
<g id="graph0" class="graph" transform="scale(1 1) rotate(0) translate(4 76)">
<title>diagram</title>
<polygon fill="#ffffff" stroke="transparent" points="-4,4 -4,-76 505,-76 505,4 -4,4"/>
<!-- Phys -->
<g id="node1" class="node">
<title>Phys</title>
<ellipse fill="#cccccc" stroke="#000000" cx="429" cy="-36" rx="72" ry="36"/>
<text text-anchor="middle" x="429" y="-32.3" font-family="Helvetica,Arial,sans-serif" font-size="14.00" fill="#000000">Phys</text>
</g>
<!-- Frame -->
<g id="node2" class="node">
<title>Frame</title>
<ellipse fill="#cccccc" stroke="#000000" cx="72" cy="-36" rx="72" ry="36"/>
<text text-anchor="middle" x="72" y="-32.3" font-family="Helvetica,Arial,sans-serif" font-size="14.00" fill="#000000">Frame</text>
</g>
<!-- Phys&#45;&gt;Frame -->
<g id="edge2" class="edge">
<title>Phys&#45;&gt;Frame</title>
<path fill="none" stroke="#000000" d="M361.2037,-23.8738C342.4167,-21.0333 321.9719,-18.4224 303,-17 256.4639,-13.5111 244.5361,-13.5111 198,-17 182.4371,-18.1668 165.8831,-20.1334 150.0661,-22.3704"/>
<polygon fill="#000000" stroke="#000000" points="139.7963,-23.8738 149.039,-17.9727 144.7436,-23.1495 149.6908,-22.4252 149.6908,-22.4252 149.6908,-22.4252 144.7436,-23.1495 150.3427,-26.8778 139.7963,-23.8738 139.7963,-23.8738"/>
<text text-anchor="middle" x="250.5" y="-20.8" font-family="Helvetica,Arial,sans-serif" font-size="14.00" fill="#000000">Frame::new()</text>
</g>
<!-- Frame&#45;&gt;Phys -->
<g id="edge1" class="edge">
<title>Frame&#45;&gt;Phys</title>
<path fill="none" stroke="#000000" d="M144.2443,-36C202.9159,-36 285.6681,-36 346.853,-36"/>
<polygon fill="#000000" stroke="#000000" points="356.8632,-36 346.8632,-40.5001 351.8632,-36 346.8632,-36.0001 346.8632,-36.0001 346.8632,-36.0001 351.8632,-36 346.8631,-31.5001 356.8632,-36 356.8632,-36"/>
<text text-anchor="middle" x="250.5" y="-39.8" font-family="Helvetica,Arial,sans-serif" font-size="14.00" fill="#000000">Frame::address()</text>
</g>
</g>
</svg>
