<?xml version="1.0" encoding="UTF-8" standalone="no"?>
<!DOCTYPE svg PUBLIC "-//W3C//DTD SVG 1.1//EN"
 "http://www.w3.org/Graphics/SVG/1.1/DTD/svg11.dtd">
<!-- Generated by graphviz version 2.40.1 (20161225.0304)
 -->
<!-- Title: diagram Pages: 1 -->
<svg width="1158pt" height="478pt"
 viewBox="0.00 0.00 1157.55 478.00" xmlns="http://www.w3.org/2000/svg" xmlns:xlink="http://www.w3.org/1999/xlink">
<g id="graph0" class="graph" transform="scale(1 1) rotate(0) translate(4 474)">
<title>diagram</title>
<polygon fill="#ffffff" stroke="transparent" points="-4,4 -4,-474 1153.5513,-474 1153.5513,4 -4,4"/>
<!-- Virt -->
<g id="node1" class="node">
<title>Virt</title>
<ellipse fill="#cccccc" stroke="#000000" cx="553.7756" cy="-250" rx="119.5517" ry="36"/>
<text text-anchor="middle" x="553.7756" y="-246.3" font-family="Helvetica,Arial,sans-serif" font-size="14.00" fill="#000000">Virt / Block::&lt;Virt&gt; / Block::&lt;Page&gt;</text>
</g>
<!-- const_ptr -->
<g id="node2" class="node">
<title>const_ptr</title>
<ellipse fill="#cccccc" stroke="#000000" cx="72" cy="-434" rx="72" ry="36"/>
<text text-anchor="middle" x="72" y="-430.3" font-family="Helvetica,Arial,sans-serif" font-size="14.00" fill="#000000">*const T</text>
</g>
<!-- Virt&#45;&gt;const_ptr -->
<g id="edge5" class="edge">
<title>Virt&#45;&gt;const_ptr</title>
<path fill="none" stroke="#000000" d="M453.4508,-269.8636C389.2223,-284.3736 304.9329,-306.7946 234,-337 194.7147,-353.7289 153.4676,-378.5459 122.4253,-398.8896"/>
<polygon fill="#000000" stroke="#000000" points="113.9505,-404.4985 119.8059,-395.2268 118.12,-401.739 122.2895,-398.9794 122.2895,-398.9794 122.2895,-398.9794 118.12,-401.739 124.7732,-402.732 113.9505,-404.4985 113.9505,-404.4985"/>
<text text-anchor="middle" x="289" y="-340.8" font-family="Helvetica,Arial,sans-serif" font-size="14.00" fill="#000000">try_into_ptr&lt;T&gt;()?</text>
</g>
<!-- const_ref -->
<g id="node3" class="node">
<title>const_ref</title>
<ellipse fill="#cccccc" stroke="#000000" cx="72" cy="-252" rx="72" ry="36"/>
<text text-anchor="middle" x="72" y="-248.3" font-family="Helvetica,Arial,sans-serif" font-size="14.00" fill="#000000">&amp;T</text>
</g>
<!-- Virt&#45;&gt;const_ref -->
<g id="edge6" class="edge">
<title>Virt&#45;&gt;const_ref</title>
<path fill="none" stroke="#000000" d="M461.7503,-226.7705C397.8432,-213.5809 310.7273,-201.4414 234,-211 203.7404,-214.7697 171.0198,-222.3554 142.9599,-229.9881"/>
<polygon fill="#000000" stroke="#000000" points="133.2409,-232.6836 141.6744,-225.6747 138.059,-231.3473 142.8771,-230.011 142.8771,-230.011 142.8771,-230.011 138.059,-231.3473 144.0798,-234.3473 133.2409,-232.6836 133.2409,-232.6836"/>
<text text-anchor="middle" x="289" y="-214.8" font-family="Helvetica,Arial,sans-serif" font-size="14.00" fill="#000000">try_into_ref&lt;T&gt;()?</text>
</g>
<!-- mut_ptr -->
<g id="node5" class="node">
<title>mut_ptr</title>
<ellipse fill="#cccccc" stroke="#000000" cx="1077.5513" cy="-394" rx="72" ry="36"/>
<text text-anchor="middle" x="1077.5513" y="-390.3" font-family="Helvetica,Arial,sans-serif" font-size="14.00" fill="#000000">*mut T</text>
</g>
<!-- Virt&#45;&gt;mut_ptr -->
<g id="edge7" class="edge">
<title>Virt&#45;&gt;mut_ptr</title>
<path fill="none" stroke="#000000" d="M642.3307,-274.3462C744.1785,-302.3469 909.507,-347.8001 1004.3775,-373.8825"/>
<polygon fill="#000000" stroke="#000000" points="1014.179,-376.5772 1003.3438,-378.2653 1009.3579,-375.2518 1004.5367,-373.9263 1004.5367,-373.9263 1004.5367,-373.9263 1009.3579,-375.2518 1005.7297,-369.5873 1014.179,-376.5772 1014.179,-376.5772"/>
<text text-anchor="middle" x="839.5513" y="-350.8" font-family="Helvetica,Arial,sans-serif" font-size="14.00" fill="#000000">try_into_mut_ptr&lt;T&gt;()?</text>
</g>
<!-- mut_ref -->
<g id="node6" class="node">
<title>mut_ref</title>
<ellipse fill="#cccccc" stroke="#000000" cx="1077.5513" cy="-250" rx="72" ry="36"/>
<text text-anchor="middle" x="1077.5513" y="-246.3" font-family="Helvetica,Arial,sans-serif" font-size="14.00" fill="#000000">&amp;mut T</text>
</g>
<!-- Virt&#45;&gt;mut_ref -->
<g id="edge8" class="edge">
<title>Virt&#45;&gt;mut_ref</title>
<path fill="none" stroke="#000000" d="M673.612,-250C772.0832,-250 908.9739,-250 995.4029,-250"/>
<polygon fill="#000000" stroke="#000000" points="1005.4263,-250 995.4263,-254.5001 1000.4263,-250 995.4263,-250.0001 995.4263,-250.0001 995.4263,-250.0001 1000.4263,-250 995.4262,-245.5001 1005.4263,-250 1005.4263,-250"/>
<text text-anchor="middle" x="839.5513" y="-253.8" font-family="Helvetica,Arial,sans-serif" font-size="14.00" fill="#000000">try_into_mut&lt;T&gt;()?</text>
</g>
<!-- mut_slice -->
<g id="node7" class="node">
<title>mut_slice</title>
<ellipse fill="#cccccc" stroke="#000000" cx="1077.5513" cy="-106" rx="72" ry="36"/>
<text text-anchor="middle" x="1077.5513" y="-102.3" font-family="Helvetica,Arial,sans-serif" font-size="14.00" fill="#000000">&amp;mut [T]</text>
</g>
<!-- Virt&#45;&gt;mut_slice -->
<g id="edge9" class="edge">
<title>Virt&#45;&gt;mut_slice</title>
<path fill="none" stroke="#000000" d="M642.3307,-225.6538C744.1785,-197.6531 909.507,-152.1999 1004.3775,-126.1175"/>
<polygon fill="#000000" stroke="#000000" points="1014.179,-123.4228 1005.7297,-130.4127 1009.3579,-124.7482 1004.5367,-126.0737 1004.5367,-126.0737 1004.5367,-126.0737 1009.3579,-124.7482 1003.3438,-121.7347 1014.179,-123.4228 1014.179,-123.4228"/>
<text text-anchor="middle" x="839.5513" y="-193.8" font-family="Helvetica,Arial,sans-serif" font-size="14.00" fill="#000000">try_into_mut_slice&lt;T&gt;()?</text>
</g>
<!-- const_ptr&#45;&gt;Virt -->
<g id="edge2" class="edge">
<title>const_ptr&#45;&gt;Virt</title>
<path fill="none" stroke="#000000" d="M138.069,-419.519C193.9198,-406.3413 275.5364,-384.8665 344,-358 394.8008,-338.0648 449.5397,-309.6294 490.3598,-286.9399"/>
<polygon fill="#000000" stroke="#000000" points="499.1135,-282.0438 492.5826,-290.8527 494.7497,-284.4845 490.3859,-286.9253 490.3859,-286.9253 490.3859,-286.9253 494.7497,-284.4845 488.1892,-282.9979 499.1135,-282.0438 499.1135,-282.0438"/>
<text text-anchor="middle" x="289" y="-395.8" font-family="Helvetica,Arial,sans-serif" font-size="14.00" fill="#000000">from_ptr&lt;T&gt;()</text>
</g>
<!-- const_ref&#45;&gt;Virt -->
<g id="edge3" class="edge">
<title>const_ref&#45;&gt;Virt</title>
<path fill="none" stroke="#000000" d="M143.7523,-248.2329C171.885,-246.9304 204.4481,-245.6382 234,-245 296.5777,-243.6486 366.0515,-244.457 424.2131,-245.7851"/>
<polygon fill="#000000" stroke="#000000" points="434.5631,-246.0295 424.4596,-250.292 429.5645,-245.9114 424.5659,-245.7933 424.5659,-245.7933 424.5659,-245.7933 429.5645,-245.9114 424.6722,-241.2946 434.5631,-246.0295 434.5631,-246.0295"/>
<text text-anchor="middle" x="289" y="-248.8" font-family="Helvetica,Arial,sans-serif" font-size="14.00" fill="#000000">from_ref&lt;T&gt;()</text>
</g>
<!-- left_blank -->
<!-- const_ref&#45;&gt;left_blank -->
<!-- left_blank&#45;&gt;Virt -->
</g>
</svg>
