<?xml version="1.0" encoding="UTF-8" standalone="no"?>
<!DOCTYPE svg PUBLIC "-//W3C//DTD SVG 1.1//EN"
 "http://www.w3.org/Graphics/SVG/1.1/DTD/svg11.dtd">
<!-- Generated by graphviz version 2.43.0 (0)
 -->
<!-- Title: diagram Pages: 1 -->
<svg width="557pt" height="135pt"
 viewBox="0.00 0.00 557.00 135.00" xmlns="http://www.w3.org/2000/svg" xmlns:xlink="http://www.w3.org/1999/xlink">
<g id="graph0" class="graph" transform="scale(1 1) rotate(0) translate(4 131)">
<title>diagram</title>
<polygon fill="white" stroke="transparent" points="-4,4 -4,-131 553,-131 553,4 -4,4"/>
<g id="clust1" class="cluster">
<title>cluster_phys_memory</title>
<polygon fill="none" stroke="black" points="8,-8 8,-119 168,-119 168,-8 8,-8"/>
<text text-anchor="middle" x="88" y="-103.8" font-family="Helvetica,Arial,sans-serif" font-size="14.00">Физическое</text>
</g>
<g id="clust2" class="cluster">
<title>cluster_virt_memory</title>
<polygon fill="none" stroke="black" points="381,-8 381,-119 541,-119 541,-8 381,-8"/>
<text text-anchor="middle" x="461" y="-103.8" font-family="Helvetica,Arial,sans-serif" font-size="14.00">Виртуальное</text>
</g>
<!-- Phys -->
<g id="node1" class="node">
<title>Phys</title>
<ellipse fill="#cccccc" stroke="black" cx="88" cy="-52" rx="72" ry="36"/>
<text text-anchor="middle" x="88" y="-48.3" font-family="Helvetica,Arial,sans-serif" font-size="14.00">Phys</text>
</g>
<!-- Virt -->
<g id="node2" class="node">
<title>Virt</title>
<ellipse fill="#cccccc" stroke="black" cx="461" cy="-52" rx="72" ry="36"/>
<text text-anchor="middle" x="461" y="-48.3" font-family="Helvetica,Arial,sans-serif" font-size="14.00">Virt</text>
</g>
<!-- Phys&#45;&gt;Virt -->
<g id="edge1" class="edge">
<title>Phys&#45;&gt;Virt</title>
<path fill="none" stroke="black" d="M160.09,-52C222.51,-52 313.26,-52 378.58,-52"/>
<polygon fill="black" stroke="black" points="388.83,-52 378.83,-56.5 383.83,-52 378.83,-52 378.83,-52 378.83,-52 383.83,-52 378.83,-47.5 388.83,-52 388.83,-52"/>
<text text-anchor="middle" x="274.5" y="-55.8" font-family="Helvetica,Arial,sans-serif" font-size="14.00">phys2virt_map()</text>
</g>
<!-- Virt&#45;&gt;Phys -->
<g id="edge2" class="edge">
<title>Virt&#45;&gt;Phys</title>
<path fill="none" stroke="black" d="M393.07,-39.92C374.34,-37.06 353.93,-34.43 335,-33 281.38,-28.95 267.62,-28.95 214,-33 198.47,-34.17 181.94,-36.16 166.17,-38.41"/>
<polygon fill="black" stroke="black" points="155.93,-39.92 165.16,-34.01 160.88,-39.19 165.82,-38.46 165.82,-38.46 165.82,-38.46 160.88,-39.19 166.48,-42.91 155.93,-39.92 155.93,-39.92"/>
<text text-anchor="middle" x="274.5" y="-36.8" font-family="Helvetica,Arial,sans-serif" font-size="14.00">Mapping::translate()</text>
</g>
</g>
</svg>
