<?xml version="1.0" encoding="UTF-8" standalone="no"?>
<!DOCTYPE svg PUBLIC "-//W3C//DTD SVG 1.1//EN"
 "http://www.w3.org/Graphics/SVG/1.1/DTD/svg11.dtd">
<!-- Generated by graphviz version 2.43.0 (0)
 -->
<!-- Title: diagram Pages: 1 -->
<svg width="509pt" height="80pt"
 viewBox="0.00 0.00 509.00 80.00" xmlns="http://www.w3.org/2000/svg" xmlns:xlink="http://www.w3.org/1999/xlink">
<g id="graph0" class="graph" transform="scale(1 1) rotate(0) translate(4 76)">
<title>diagram</title>
<polygon fill="white" stroke="transparent" points="-4,4 -4,-76 505,-76 505,4 -4,4"/>
<!-- Phys -->
<g id="node1" class="node">
<title>Phys</title>
<ellipse fill="#cccccc" stroke="black" cx="429" cy="-36" rx="72" ry="36"/>
<text text-anchor="middle" x="429" y="-32.3" font-family="Helvetica,Arial,sans-serif" font-size="14.00">Phys</text>
</g>
<!-- Frame -->
<g id="node2" class="node">
<title>Frame</title>
<ellipse fill="#cccccc" stroke="black" cx="72" cy="-36" rx="72" ry="36"/>
<text text-anchor="middle" x="72" y="-32.3" font-family="Helvetica,Arial,sans-serif" font-size="14.00">Frame</text>
</g>
<!-- Phys&#45;&gt;Frame -->
<g id="edge2" class="edge">
<title>Phys&#45;&gt;Frame</title>
<path fill="none" stroke="black" d="M361.07,-23.92C342.34,-21.06 321.93,-18.43 303,-17 256.47,-13.48 244.53,-13.48 198,-17 182.47,-18.17 165.94,-20.16 150.17,-22.41"/>
<polygon fill="black" stroke="black" points="139.93,-23.92 149.16,-18.01 144.88,-23.19 149.82,-22.46 149.82,-22.46 149.82,-22.46 144.88,-23.19 150.48,-26.91 139.93,-23.92 139.93,-23.92"/>
<text text-anchor="middle" x="250.5" y="-20.8" font-family="Helvetica,Arial,sans-serif" font-size="14.00">Frame::new()</text>
</g>
<!-- Frame&#45;&gt;Phys -->
<g id="edge1" class="edge">
<title>Frame&#45;&gt;Phys</title>
<path fill="none" stroke="black" d="M144.41,-36C202.79,-36 285.35,-36 346.34,-36"/>
<polygon fill="black" stroke="black" points="356.7,-36 346.7,-40.5 351.7,-36 346.7,-36 346.7,-36 346.7,-36 351.7,-36 346.7,-31.5 356.7,-36 356.7,-36"/>
<text text-anchor="middle" x="250.5" y="-39.8" font-family="Helvetica,Arial,sans-serif" font-size="14.00">Frame::address()</text>
</g>
</g>
</svg>
