<?xml version="1.0" encoding="UTF-8" standalone="no"?>
<!DOCTYPE svg PUBLIC "-//W3C//DTD SVG 1.1//EN"
 "http://www.w3.org/Graphics/SVG/1.1/DTD/svg11.dtd">
<!-- Generated by graphviz version 2.43.0 (0)
 -->
<!-- Title: file Pages: 1 -->
<svg width="1056pt" height="513pt"
 viewBox="0.00 0.00 1056.00 513.00" xmlns="http://www.w3.org/2000/svg" xmlns:xlink="http://www.w3.org/1999/xlink">
<g id="graph0" class="graph" transform="scale(1 1) rotate(0) translate(4 509)">
<title>file</title>
<polygon fill="white" stroke="transparent" points="-4,4 -4,-509 1052,-509 1052,4 -4,4"/>
<g id="clust1" class="cluster">
<title>cluster_inode</title>
<polygon fill="none" stroke="black" points="8,-282 8,-497 224,-497 224,-282 8,-282"/>
<text text-anchor="middle" x="116" y="-481.8" font-family="Helvetica,Arial,sans-serif" font-size="14.00">struct Inode</text>
</g>
<g id="clust2" class="cluster">
<title>cluster_indirect</title>
<polygon fill="none" stroke="black" points="552,-227 552,-366 768,-366 768,-227 552,-227"/>
<text text-anchor="middle" x="660" y="-350.8" font-family="Helvetica,Arial,sans-serif" font-size="14.00">Косвенный блок</text>
</g>
<g id="clust3" class="cluster">
<title>cluster_indirect_2</title>
<polygon fill="none" stroke="black" points="280,-117 280,-231 496,-231 496,-117 280,-117"/>
<text text-anchor="middle" x="388" y="-215.8" font-family="Helvetica,Arial,sans-serif" font-size="14.00">Косвенный блок</text>
</g>
<g id="clust4" class="cluster">
<title>cluster_indirect_2_1</title>
<polygon fill="none" stroke="black" points="552,-105 552,-219 768,-219 768,-105 552,-105"/>
<text text-anchor="middle" x="660" y="-203.8" font-family="Helvetica,Arial,sans-serif" font-size="14.00">Косвенный блок</text>
</g>
<g id="clust5" class="cluster">
<title>cluster_indirect_2_2</title>
<polygon fill="none" stroke="black" points="552,-8 552,-97 768,-97 768,-8 552,-8"/>
<text text-anchor="middle" x="660" y="-81.8" font-family="Helvetica,Arial,sans-serif" font-size="14.00">Косвенный блок</text>
</g>
<g id="clust6" class="cluster">
<title>cluster_data</title>
<polygon fill="none" stroke="black" points="824,-101 824,-390 1040,-390 1040,-101 824,-101"/>
<text text-anchor="middle" x="932" y="-374.8" font-family="Helvetica,Arial,sans-serif" font-size="14.00">Блоки данных</text>
</g>
<!-- inode -->
<g id="node1" class="node">
<title>inode</title>
<polygon fill="none" stroke="black" points="16,-440 16,-465 216,-465 216,-440 16,-440"/>
<text text-anchor="start" x="21" y="-448.8" font-family="Times,serif" font-size="14.00">kind</text>
<polygon fill="none" stroke="black" points="16,-415 16,-440 216,-440 216,-415 16,-415"/>
<text text-anchor="start" x="21" y="-423.8" font-family="Times,serif" font-size="14.00">modify_time</text>
<polygon fill="none" stroke="black" points="16,-390 16,-415 216,-415 216,-390 16,-390"/>
<text text-anchor="start" x="21" y="-398.8" font-family="Times,serif" font-size="14.00">size</text>
<polygon fill="none" stroke="black" points="16,-365 16,-390 216,-390 216,-365 16,-365"/>
<text text-anchor="start" x="21" y="-373.8" font-family="Times,serif" font-size="14.00">root_blocks[0]</text>
<polygon fill="none" stroke="black" points="16,-340 16,-365 216,-365 216,-340 16,-340"/>
<text text-anchor="start" x="21" y="-348.8" font-family="Times,serif" font-size="14.00">root_blocks[1]</text>
<polygon fill="none" stroke="black" points="16,-315 16,-340 216,-340 216,-315 16,-315"/>
<text text-anchor="start" x="21" y="-323.8" font-family="Times,serif" font-size="14.00">root_blocks[2]</text>
<polygon fill="none" stroke="black" points="16,-290 16,-315 216,-315 216,-290 16,-290"/>
<text text-anchor="start" x="21" y="-298.8" font-family="Times,serif" font-size="14.00">...</text>
</g>
<!-- dummy -->
<!-- inode&#45;&gt;dummy -->
<!-- data -->
<g id="node3" class="node">
<title>data</title>
<polygon fill="none" stroke="black" points="832,-334 832,-359 1032,-359 1032,-334 832,-334"/>
<text text-anchor="start" x="837" y="-342.8" font-family="Times,serif" font-size="14.00">блок 0</text>
<polygon fill="none" stroke="black" points="832,-309 832,-334 1032,-334 1032,-309 832,-309"/>
<text text-anchor="start" x="837" y="-317.8" font-family="Times,serif" font-size="14.00">блок 1</text>
<polygon fill="none" stroke="black" points="832,-284 832,-309 1032,-309 1032,-284 832,-284"/>
<text text-anchor="start" x="837" y="-292.8" font-family="Times,serif" font-size="14.00">блок 2</text>
<polygon fill="none" stroke="black" points="832,-259 832,-284 1032,-284 1032,-259 832,-259"/>
<text text-anchor="start" x="837" y="-267.8" font-family="Times,serif" font-size="14.00">...</text>
<polygon fill="none" stroke="black" points="832,-234 832,-259 1032,-259 1032,-234 832,-234"/>
<text text-anchor="start" x="837" y="-242.8" font-family="Times,serif" font-size="14.00">блок 512</text>
<polygon fill="none" stroke="black" points="832,-209 832,-234 1032,-234 1032,-209 832,-209"/>
<text text-anchor="start" x="837" y="-217.8" font-family="Times,serif" font-size="14.00">блок 513</text>
<polygon fill="none" stroke="black" points="832,-184 832,-209 1032,-209 1032,-184 832,-184"/>
<text text-anchor="start" x="837" y="-192.8" font-family="Times,serif" font-size="14.00">...</text>
<polygon fill="none" stroke="black" points="832,-159 832,-184 1032,-184 1032,-159 832,-159"/>
<text text-anchor="start" x="837" y="-167.8" font-family="Times,serif" font-size="14.00">блок 1024</text>
<polygon fill="none" stroke="black" points="832,-134 832,-159 1032,-159 1032,-134 832,-134"/>
<text text-anchor="start" x="837" y="-142.8" font-family="Times,serif" font-size="14.00">блок 1025</text>
<polygon fill="none" stroke="black" points="832,-109 832,-134 1032,-134 1032,-109 832,-109"/>
<text text-anchor="start" x="837" y="-117.8" font-family="Times,serif" font-size="14.00">...</text>
</g>
<!-- inode&#45;&gt;data -->
<g id="edge3" class="edge">
<title>inode:direct&#45;&gt;data:d0</title>
<path fill="none" stroke="black" d="M217,-377C461.91,-377 527.11,-414.18 768,-370 793.65,-365.3 799.83,-351.21 820.94,-347.77"/>
<polygon fill="black" stroke="black" points="831,-347 821.37,-352.25 826.01,-347.38 821.03,-347.76 821.03,-347.76 821.03,-347.76 826.01,-347.38 820.69,-343.27 831,-347 831,-347"/>
</g>
<!-- indirect -->
<g id="node4" class="node">
<title>indirect</title>
<polygon fill="none" stroke="black" points="560,-310 560,-335 760,-335 760,-310 560,-310"/>
<text text-anchor="start" x="565" y="-318.8" font-family="Times,serif" font-size="14.00">номер блока 1</text>
<polygon fill="none" stroke="black" points="560,-285 560,-310 760,-310 760,-285 560,-285"/>
<text text-anchor="start" x="565" y="-293.8" font-family="Times,serif" font-size="14.00">номер блока 2</text>
<polygon fill="none" stroke="black" points="560,-260 560,-285 760,-285 760,-260 560,-260"/>
<text text-anchor="start" x="565" y="-268.8" font-family="Times,serif" font-size="14.00">...</text>
<polygon fill="none" stroke="black" points="560,-235 560,-260 760,-260 760,-235 560,-235"/>
<text text-anchor="start" x="565" y="-243.8" font-family="Times,serif" font-size="14.00">номер блока 512</text>
</g>
<!-- inode&#45;&gt;indirect -->
<g id="edge4" class="edge">
<title>inode:indirect&#45;&gt;indirect:nw</title>
<path fill="none" stroke="black" d="M217,-352C289.82,-352 487.22,-385.71 551.21,-341.44"/>
<polygon fill="black" stroke="black" points="559,-335 554.16,-344.84 555.15,-338.19 551.29,-341.37 551.29,-341.37 551.29,-341.37 555.15,-338.19 548.43,-337.91 559,-335 559,-335"/>
</g>
<!-- indirect_2 -->
<g id="node5" class="node">
<title>indirect_2</title>
<polygon fill="none" stroke="black" points="288,-174 288,-199 488,-199 488,-174 288,-174"/>
<text text-anchor="start" x="293" y="-182.8" font-family="Times,serif" font-size="14.00">номер косвенного блока</text>
<polygon fill="none" stroke="black" points="288,-149 288,-174 488,-174 488,-149 288,-149"/>
<text text-anchor="start" x="293" y="-157.8" font-family="Times,serif" font-size="14.00">номер косвенного блока</text>
<polygon fill="none" stroke="black" points="288,-124 288,-149 488,-149 488,-124 288,-124"/>
<text text-anchor="start" x="293" y="-132.8" font-family="Times,serif" font-size="14.00">...</text>
</g>
<!-- inode&#45;&gt;indirect_2 -->
<g id="edge9" class="edge">
<title>inode:indirect_2&#45;&gt;indirect_2:nw</title>
<path fill="none" stroke="black" d="M217,-327C278.29,-327 245.29,-253.59 280.22,-206.83"/>
<polygon fill="black" stroke="black" points="287,-199 283.86,-209.51 283.73,-202.78 280.45,-206.56 280.45,-206.56 280.45,-206.56 283.73,-202.78 277.05,-203.62 287,-199 287,-199"/>
</g>
<!-- dummy&#45;&gt;data -->
<!-- indirect&#45;&gt;data -->
<g id="edge5" class="edge">
<title>indirect:id1&#45;&gt;data:d1</title>
<path fill="none" stroke="black" d="M761,-323C788.47,-323 797.74,-322.22 820.95,-322.04"/>
<polygon fill="black" stroke="black" points="831,-322 821.02,-326.54 826,-322.02 821,-322.04 821,-322.04 821,-322.04 826,-322.02 820.98,-317.54 831,-322 831,-322"/>
</g>
<!-- indirect&#45;&gt;data -->
<g id="edge6" class="edge">
<title>indirect:id2&#45;&gt;data:d2</title>
<path fill="none" stroke="black" d="M761,-298C788.47,-298 797.74,-297.22 820.95,-297.04"/>
<polygon fill="black" stroke="black" points="831,-297 821.02,-301.54 826,-297.02 821,-297.04 821,-297.04 821,-297.04 826,-297.02 820.98,-292.54 831,-297 831,-297"/>
</g>
<!-- indirect&#45;&gt;data -->
<g id="edge7" class="edge">
<title>indirect:id3&#45;&gt;data:d3</title>
<path fill="none" stroke="black" d="M761,-272C788.47,-272 797.75,-272 820.95,-272"/>
<polygon fill="black" stroke="black" points="831,-272 821,-276.5 826,-272 821,-272 821,-272 821,-272 826,-272 821,-267.5 831,-272 831,-272"/>
</g>
<!-- indirect&#45;&gt;data -->
<g id="edge8" class="edge">
<title>indirect:id512&#45;&gt;data:d512</title>
<path fill="none" stroke="black" d="M761,-247C788.47,-247 797.75,-247 820.95,-247"/>
<polygon fill="black" stroke="black" points="831,-247 821,-251.5 826,-247 821,-247 821,-247 821,-247 826,-247 821,-242.5 831,-247 831,-247"/>
</g>
<!-- indirect_2_1 -->
<g id="node6" class="node">
<title>indirect_2_1</title>
<polygon fill="none" stroke="black" points="560,-162 560,-187 760,-187 760,-162 560,-162"/>
<text text-anchor="start" x="565" y="-170.8" font-family="Times,serif" font-size="14.00">номер блока 513</text>
<polygon fill="none" stroke="black" points="560,-137 560,-162 760,-162 760,-137 560,-137"/>
<text text-anchor="start" x="565" y="-145.8" font-family="Times,serif" font-size="14.00">...</text>
<polygon fill="none" stroke="black" points="560,-112 560,-137 760,-137 760,-112 560,-112"/>
<text text-anchor="start" x="565" y="-120.8" font-family="Times,serif" font-size="14.00">номер блока 1024</text>
</g>
<!-- indirect_2&#45;&gt;indirect_2_1 -->
<g id="edge10" class="edge">
<title>indirect_2:id1&#45;&gt;indirect_2_1:nw</title>
<path fill="none" stroke="black" d="M489,-187C516.22,-187 532.56,-203.84 550.95,-193.32"/>
<polygon fill="black" stroke="black" points="559,-187 553.91,-196.71 555.07,-190.09 551.13,-193.17 551.13,-193.17 551.13,-193.17 555.07,-190.09 548.36,-189.63 559,-187 559,-187"/>
</g>
<!-- indirect_2_2 -->
<g id="node7" class="node">
<title>indirect_2_2</title>
<polygon fill="none" stroke="black" points="560,-41 560,-66 760,-66 760,-41 560,-41"/>
<text text-anchor="start" x="565" y="-49.8" font-family="Times,serif" font-size="14.00">номер блока 1025</text>
<polygon fill="none" stroke="black" points="560,-16 560,-41 760,-41 760,-16 560,-16"/>
<text text-anchor="start" x="565" y="-24.8" font-family="Times,serif" font-size="14.00">...</text>
</g>
<!-- indirect_2&#45;&gt;indirect_2_2 -->
<g id="edge11" class="edge">
<title>indirect_2:id2&#45;&gt;indirect_2_2:nw</title>
<path fill="none" stroke="black" d="M489,-161C537.96,-161 524.19,-110.52 552.32,-73.64"/>
<polygon fill="black" stroke="black" points="559,-66 555.81,-76.49 555.71,-69.77 552.42,-73.53 552.42,-73.53 552.42,-73.53 555.71,-69.77 549.03,-70.57 559,-66 559,-66"/>
</g>
<!-- indirect_2_1&#45;&gt;data -->
<g id="edge12" class="edge">
<title>indirect_2_1:id513&#45;&gt;data:d513</title>
<path fill="none" stroke="black" d="M761,-175C794.45,-175 794.25,-212.13 820.86,-219.67"/>
<polygon fill="black" stroke="black" points="831,-221 820.5,-224.16 826.04,-220.35 821.08,-219.7 821.08,-219.7 821.08,-219.7 826.04,-220.35 821.67,-215.24 831,-221 831,-221"/>
</g>
<!-- indirect_2_1&#45;&gt;data -->
<g id="edge13" class="edge">
<title>indirect_2_1:id514&#45;&gt;data:d514</title>
<path fill="none" stroke="black" d="M761,-149C794.67,-149 794.09,-186.94 820.81,-194.64"/>
<polygon fill="black" stroke="black" points="831,-196 820.49,-199.14 826.04,-195.34 821.09,-194.68 821.09,-194.68 821.09,-194.68 826.04,-195.34 821.68,-190.22 831,-196 831,-196"/>
</g>
<!-- indirect_2_1&#45;&gt;data -->
<g id="edge14" class="edge">
<title>indirect_2_1:id1024&#45;&gt;data:d1024</title>
<path fill="none" stroke="black" d="M761,-124C794.67,-124 794.09,-161.94 820.81,-169.64"/>
<polygon fill="black" stroke="black" points="831,-171 820.49,-174.14 826.04,-170.34 821.09,-169.68 821.09,-169.68 821.09,-169.68 826.04,-170.34 821.68,-165.22 831,-171 831,-171"/>
</g>
<!-- indirect_2_2&#45;&gt;data -->
<g id="edge15" class="edge">
<title>indirect_2_2:id1025&#45;&gt;data:d1025</title>
<path fill="none" stroke="black" d="M761,-54C808.57,-54 784.02,-132.85 820.88,-144.55"/>
<polygon fill="black" stroke="black" points="831,-146 820.46,-149.04 826.05,-145.29 821.1,-144.59 821.1,-144.59 821.1,-144.59 826.05,-145.29 821.74,-140.13 831,-146 831,-146"/>
</g>
</g>
</svg>
