<?xml version="1.0" encoding="UTF-8" standalone="no"?>
<!DOCTYPE svg PUBLIC "-//W3C//DTD SVG 1.1//EN"
 "http://www.w3.org/Graphics/SVG/1.1/DTD/svg11.dtd">
<!-- Generated by graphviz version 2.43.0 (0)
 -->
<!-- Title: file_system Pages: 1 -->
<svg width="412pt" height="340pt"
 viewBox="0.00 0.00 412.00 340.00" xmlns="http://www.w3.org/2000/svg" xmlns:xlink="http://www.w3.org/1999/xlink">
<g id="graph0" class="graph" transform="scale(1 1) rotate(0) translate(4 336)">
<title>file_system</title>
<polygon fill="white" stroke="transparent" points="-4,4 -4,-336 408,-336 408,4 -4,4"/>
<!-- fs -->
<g id="node1" class="node">
<title>fs</title>
<polygon fill="none" stroke="black" points="0,-0.5 0,-331.5 404,-331.5 404,-0.5 0,-0.5"/>
<text text-anchor="start" x="8" y="-316.3" font-family="Times,serif" font-size="14.00">блок_0</text>
<polyline fill="none" stroke="black" points="0,-308.5 89,-308.5 "/>
<text text-anchor="start" x="8" y="-293.3" font-family="Times,serif" font-size="14.00">блок_1</text>
<polyline fill="none" stroke="black" points="0,-285.5 89,-285.5 "/>
<text text-anchor="start" x="8" y="-270.3" font-family="Times,serif" font-size="14.00">блок_2</text>
<text text-anchor="start" x="8" y="-175.3" font-family="Times,serif" font-size="14.00">блок_K+1</text>
<polyline fill="none" stroke="black" points="0,-167.5 89,-167.5 "/>
<text text-anchor="start" x="8" y="-151.8" font-family="Times,serif" font-size="14.00">блок_K+2</text>
<text text-anchor="start" x="8" y="-8.8" font-family="Times,serif" font-size="14.00">блок_N&#45;1</text>
<polyline fill="none" stroke="black" points="89,-0.5 89,-331.5 "/>
<text text-anchor="middle" x="246.5" y="-316.3" font-family="Times,serif" font-size="14.00">Загрузочный сектор и таблица разделов</text>
<polyline fill="none" stroke="black" points="89,-308.5 404,-308.5 "/>
<text text-anchor="middle" x="246.5" y="-293.3" font-family="Times,serif" font-size="14.00">Суперблок</text>
<polyline fill="none" stroke="black" points="89,-285.5 404,-285.5 "/>
<text text-anchor="middle" x="246.5" y="-238.3" font-family="Times,serif" font-size="14.00">Битмап свободных блоков</text>
<text text-anchor="middle" x="246.5" y="-207.3" font-family="Times,serif" font-size="14.00">K блоков хранят N бит + выравнивание</text>
<polyline fill="none" stroke="black" points="89,-167.5 404,-167.5 "/>
<text text-anchor="middle" x="246.5" y="-88.3" font-family="Times,serif" font-size="14.00">Данные файлов и директорий</text>
</g>
</g>
</svg>
