<?xml version="1.0" encoding="UTF-8" standalone="no"?>
<!DOCTYPE svg PUBLIC "-//W3C//DTD SVG 1.1//EN"
 "http://www.w3.org/Graphics/SVG/1.1/DTD/svg11.dtd">
<!-- Generated by graphviz version 2.43.0 (0)
 -->
<!-- Title: block_cache_jos Pages: 1 -->
<svg width="667pt" height="179pt"
 viewBox="0.00 0.00 667.00 179.00" xmlns="http://www.w3.org/2000/svg" xmlns:xlink="http://www.w3.org/1999/xlink">
<g id="graph0" class="graph" transform="scale(1 1) rotate(0) translate(4 175)">
<title>block_cache_jos</title>
<polygon fill="white" stroke="transparent" points="-4,4 -4,-175 663,-175 663,4 -4,4"/>
<g id="clust1" class="cluster">
<title>cluster_memory</title>
<polygon fill="none" stroke="black" points="8,-8 8,-163 305,-163 305,-8 8,-8"/>
<text text-anchor="middle" x="156.5" y="-147.8" font-family="Helvetica,Arial,sans-serif" font-size="14.00">Блочный кеш в памяти</text>
</g>
<g id="clust2" class="cluster">
<title>cluster_disk</title>
<polygon fill="none" stroke="black" points="433,-8 433,-163 651,-163 651,-8 433,-8"/>
<text text-anchor="middle" x="542" y="-147.8" font-family="Helvetica,Arial,sans-serif" font-size="14.00">Диск</text>
</g>
<!-- memory -->
<g id="node1" class="node">
<title>memory</title>
<polygon fill="none" stroke="black" points="16,-16.5 16,-131.5 297,-131.5 297,-16.5 16,-16.5"/>
<text text-anchor="start" x="24" y="-116.3" font-family="Times,serif" font-size="14.00">страница_0</text>
<polyline fill="none" stroke="black" points="16,-108.5 119,-108.5 "/>
<text text-anchor="start" x="24" y="-93.3" font-family="Times,serif" font-size="14.00">страница_1</text>
<polyline fill="none" stroke="black" points="16,-85.5 119,-85.5 "/>
<text text-anchor="start" x="24" y="-70.3" font-family="Times,serif" font-size="14.00">страница_2</text>
<polyline fill="none" stroke="black" points="16,-62.5 119,-62.5 "/>
<text text-anchor="start" x="24" y="-47.3" font-family="Times,serif" font-size="14.00">...</text>
<polyline fill="none" stroke="black" points="16,-39.5 119,-39.5 "/>
<text text-anchor="start" x="24" y="-24.3" font-family="Times,serif" font-size="14.00">страница_N</text>
<polyline fill="none" stroke="black" points="119,-16.5 119,-131.5 "/>
<text text-anchor="start" x="127" y="-116.3" font-family="Times,serif" font-size="14.00">Present = 0</text>
<polyline fill="none" stroke="black" points="119,-108.5 297,-108.5 "/>
<text text-anchor="start" x="127" y="-93.3" font-family="Times,serif" font-size="14.00">Present = 1, Dirty = 0</text>
<polyline fill="none" stroke="black" points="119,-85.5 297,-85.5 "/>
<text text-anchor="start" x="127" y="-70.3" font-family="Times,serif" font-size="14.00">Present = 1, Dirty = 1</text>
<polyline fill="none" stroke="black" points="119,-62.5 297,-62.5 "/>
<text text-anchor="middle" x="208" y="-47.3" font-family="Times,serif" font-size="14.00"> </text>
<polyline fill="none" stroke="black" points="119,-39.5 297,-39.5 "/>
<text text-anchor="middle" x="208" y="-24.3" font-family="Times,serif" font-size="14.00"> </text>
</g>
<!-- disk -->
<g id="node2" class="node">
<title>disk</title>
<polygon fill="none" stroke="black" points="441,-16.5 441,-131.5 643,-131.5 643,-16.5 441,-16.5"/>
<text text-anchor="middle" x="542" y="-116.3" font-family="Times,serif" font-size="14.00">блок_0</text>
<polyline fill="none" stroke="black" points="441,-108.5 643,-108.5 "/>
<text text-anchor="middle" x="542" y="-93.3" font-family="Times,serif" font-size="14.00">блок_1</text>
<polyline fill="none" stroke="black" points="441,-85.5 643,-85.5 "/>
<text text-anchor="middle" x="542" y="-70.3" font-family="Times,serif" font-size="14.00">блок_2</text>
<polyline fill="none" stroke="black" points="441,-62.5 643,-62.5 "/>
<text text-anchor="middle" x="542" y="-47.3" font-family="Times,serif" font-size="14.00">...</text>
<polyline fill="none" stroke="black" points="441,-39.5 643,-39.5 "/>
<text text-anchor="middle" x="542" y="-24.3" font-family="Times,serif" font-size="14.00">блок_M</text>
</g>
<!-- memory&#45;&gt;disk -->
<g id="edge1" class="edge">
<title>memory:m0&#45;&gt;disk:d0</title>
<path fill="none" stroke="black" d="M308.75,-120C360.12,-120 378.51,-120 429.99,-120"/>
<polygon fill="black" stroke="black" points="298.5,-120 308.5,-115.5 303.5,-120 308.5,-120 308.5,-120 308.5,-120 303.5,-120 308.5,-124.5 298.5,-120 298.5,-120"/>
<polygon fill="black" stroke="black" points="440,-120 430,-124.5 435,-120 430,-120 430,-120 430,-120 435,-120 430,-115.5 440,-120 440,-120"/>
</g>
<!-- memory&#45;&gt;disk -->
<g id="edge2" class="edge">
<title>memory:m1&#45;&gt;disk:d1</title>
<path fill="none" stroke="black" d="M308.75,-97C360.12,-97 378.51,-97 429.99,-97"/>
<polygon fill="black" stroke="black" points="298.5,-97 308.5,-92.5 303.5,-97 308.5,-97 308.5,-97 308.5,-97 303.5,-97 308.5,-101.5 298.5,-97 298.5,-97"/>
<polygon fill="black" stroke="black" points="440,-97 430,-101.5 435,-97 430,-97 430,-97 430,-97 435,-97 430,-92.5 440,-97 440,-97"/>
</g>
<!-- memory&#45;&gt;disk -->
<g id="edge3" class="edge">
<title>memory:m2&#45;&gt;disk:d2</title>
<path fill="none" stroke="black" d="M308.75,-74C360.12,-74 378.51,-74 429.99,-74"/>
<polygon fill="black" stroke="black" points="298.5,-74 308.5,-69.5 303.5,-74 308.5,-74 308.5,-74 308.5,-74 303.5,-74 308.5,-78.5 298.5,-74 298.5,-74"/>
<polygon fill="black" stroke="black" points="440,-74 430,-78.5 435,-74 430,-74 430,-74 430,-74 435,-74 430,-69.5 440,-74 440,-74"/>
</g>
<!-- memory&#45;&gt;disk -->
<g id="edge4" class="edge">
<title>memory:m3&#45;&gt;disk:d3</title>
<path fill="none" stroke="black" d="M308.75,-51C360.12,-51 378.51,-51 429.99,-51"/>
<polygon fill="black" stroke="black" points="298.5,-51 308.5,-46.5 303.5,-51 308.5,-51 308.5,-51 308.5,-51 303.5,-51 308.5,-55.5 298.5,-51 298.5,-51"/>
<polygon fill="black" stroke="black" points="440,-51 430,-55.5 435,-51 430,-51 430,-51 430,-51 435,-51 430,-46.5 440,-51 440,-51"/>
</g>
<!-- memory&#45;&gt;disk -->
<g id="edge5" class="edge">
<title>memory:mn&#45;&gt;disk:dm</title>
<path fill="none" stroke="black" d="M308.75,-28C360.12,-28 378.51,-28 429.99,-28"/>
<polygon fill="black" stroke="black" points="298.5,-28 308.5,-23.5 303.5,-28 308.5,-28 308.5,-28 308.5,-28 303.5,-28 308.5,-32.5 298.5,-28 298.5,-28"/>
<polygon fill="black" stroke="black" points="440,-28 430,-32.5 435,-28 430,-28 430,-28 430,-28 435,-28 430,-23.5 440,-28 440,-28"/>
<text text-anchor="middle" x="397.5" y="-31.8" font-family="Times,serif" font-size="14.00"> &#160;&#160;&#160;запись &#160;&#160;&#160;</text>
<text text-anchor="middle" x="342.5" y="-16.8" font-family="Times,serif" font-size="14.00"> &#160;&#160;&#160;чтение &#160;&#160;&#160;</text>
</g>
</g>
</svg>
